SplineFontDB: 3.0
FontName: NovaSquare-BoldOblique
FullName: Nova Square Bold Oblique
FamilyName: Nova Square
Weight: Bold
Copyright: Copyright (c) 2020-2024 by Wojciech Kalinowski "wmk69" with Reserved Font Name "NovaSquare-BoldOblique".\nThis Font Software is licensed under the SIL Open Font License, Version 1.1.
Version: 3.1.0; 2021-05-23
ItalicAngle: -12
UnderlinePosition: -80
UnderlineWidth: 320
Ascent: 1638
Descent: 410
InvalidEm: 0
LayerCount: 2
Layer: 0 1 "Warstwa t+AUIA-a" 1
Layer: 1 1 "Plan pierwszy" 0
XUID: [1021 783 23647091 8360855]
StyleMap: 0x0021
FSType: 0
OS2Version: 3
OS2_WeightWidthSlopeOnly: 0
OS2_UseTypoMetrics: 1
CreationTime: 1260698820
ModificationTime: 1621762362
PfmFamily: 33
TTFWeight: 700
TTFWidth: 5
LineGap: 200
VLineGap: 0
Panose: 2 12 8 4 2 5 3 13 2 4
OS2TypoAscent: 2000
OS2TypoAOffset: 0
OS2TypoDescent: -500
OS2TypoDOffset: 0
OS2TypoLinegap: 200
OS2WinAscent: 2000
OS2WinAOffset: 0
OS2WinDescent: 500
OS2WinDOffset: 0
HheadAscent: 2000
HheadAOffset: 0
HheadDescent: -500
HheadDOffset: 0
OS2SubXSize: 1434
OS2SubYSize: 1331
OS2SubXOff: 0
OS2SubYOff: 287
OS2SupXSize: 1434
OS2SupYSize: 1331
OS2SupXOff: 0
OS2SupYOff: 977
OS2StrikeYSize: 102
OS2StrikeYPos: 512
OS2CapHeight: 1530
OS2XHeight: 1120
OS2Vendor: '    '
OS2CodePages: 20000093.00000000
OS2UnicodeRanges: 8000002f.4000204b.00000000.00000000
Lookup: 258 0 0 "'kern' Horizontal Kerning lookup 0" { "'kern' Horizontal Kerning lookup 0-1 subtable" [307,0,4] } ['kern' ('DFLT' <'dflt' > 'grek' <'dflt' > 'latn' <'dflt' > ) ]
MarkAttachClasses: 1
DEI: 91125
KernClass2: 65 55 "'kern' Horizontal Kerning lookup 0-1 subtable"
 134 A M N Agrave Aacute Acircumflex Atilde Adieresis Aring Ntilde Amacron Abreve Aogonek Nacute Ncommaaccent Ncaron Eng Aringacute uni1E40
 28 B germandbls uni1E02 uni1E9E
 47 C Ccedilla Cacute Ccircumflex Cdotaccent Ccaron
 122 D O Q Eth Ograve Oacute Ocircumflex Otilde Odieresis Oslash Dcaron Dcroat Omacron Obreve Ohungarumlaut Oslashacute uni1E0A

StartChar: .notdef
Encoding: 65536 -1 0
Width: 1034
Flags: W
HStem: 0 118<323 761> 1392 118<594 1032>
VStem: 110 814<0 814> 431 814<696 1510>
DStem2: 110 0 297.918 0 0.207912 0.978148<159.707 1462.21> 735.918 0 924 0 0.207912 0.978148<120.636 1423.14>
LayerCount: 2
Fore
SplineSet
110 0 m 1,0,-1
 431 1510 l 1,1,-1
 1245 1510 l 1,2,-1
 924 0 l 1,3,-1
 110 0 l 1,0,-1
323 118 m 1,4,-1
 761 118 l 1,5,-1
 1032 1392 l 1,6,-1
 594 1392 l 1,7,-1
 323 118 l 1,4,-1
EndSplineSet
Validated: 19457
EndChar

StartChar: exclam
Encoding: 33 33 4
Width: 640
GlyphClass: 2
Flags: W
HStem: -20 365<266.097 442.323> 1510 20G<748.605 805>
VStem: 170 635
DStem2: 155.789 -20 475.543 -20 0.207912 0.978148<641.036 1434.34>
LayerCount: 2
Fore
SplineSet
316 -20 m 0,0,1
 240 -20 240 -20 200 34 c 0,2,3
 170 73 170 73 170 123 c 0,4,5
 170 142 170 142 174 162 c 0,6,7
 190 238 190 238 254 291 c 0,8,9
 318 345 318 345 393 345 c 0,10,11
 469 345 469 345 510 292 c 0,12,13
 539 254 539 254 539 203 c 0,14,15
 539 184 539 184 535 163 c 0,16,17
 519 88 519 88 454.5 34 c 128,-1,18
 390 -20 390 -20 316 -20 c 0,0,1
795 1530 m 1,19,-1
 805 1530 l 1,20,-1
 595 542 l 1,21,-1
 254 395 l 1,22,-1
 244 395 l 1,23,-1
 454 1383 l 1,24,-1
 795 1530 l 1,19,-1
EndSplineSet
Validated: 19457
EndChar

StartChar: quotedbl
Encoding: 34 34 5
Width: 510
GlyphClass: 2
Flags: W
HStem: 1100 480
VStem: 264 552
DStem2: 264 1100 443.783 1100 0.207912 0.978148<120.189 407.953> 534 1100 713.783 1100 0.207912 0.978148<120.189 407.953>
LayerCount: 2
Fore
SplineSet
806 1580 m 1,0,-1
 816 1580 l 1,1,-1
 731 1181 l 1,2,-1
 544 1100 l 1,3,-1
 534 1100 l 1,4,-1
 619 1499 l 1,5,-1
 806 1580 l 1,0,-1
536 1580 m 1,6,-1
 546 1580 l 1,7,-1
 461 1181 l 1,8,-1
 274 1100 l 1,9,-1
 264 1100 l 1,10,-1
 349 1499 l 1,11,-1
 536 1580 l 1,6,-1
EndSplineSet
Validated: 19457
EndChar

StartChar: numbersign
Encoding: 35 35 6
Width: 1408
GlyphClass: 2
Flags: W
HStem: 460 180<326 506 724 918 1136 1316> 872 180<414 593 812 1005 1224 1403>
DStem2: 442 161 621.783 161 0.207912 0.978148<120.189 305.772 527.164 726.858 948.457 1132.85> 854 161 1033.78 161 0.207912 0.978148<120.189 305.772 527.164 726.858 948.457 1132.85>
LayerCount: 2
Fore
SplineSet
865 1350 m 1,0,-1
 875 1350 l 1,1,-1
 812 1052 l 1,2,-1
 1044 1052 l 1,3,-1
 1090 1269 l 1,4,-1
 1277 1350 l 1,5,-1
 1287 1350 l 1,6,-1
 1224 1052 l 1,7,-1
 1522 1052 l 1,8,-1
 1519 1042 l 1,9,-1
 1403 872 l 1,10,-1
 1185 872 l 1,11,-1
 1136 640 l 1,12,-1
 1434 640 l 1,13,-1
 1432 630 l 1,14,-1
 1316 460 l 1,15,-1
 1098 460 l 1,16,-1
 1051 242 l 1,17,-1
 864 161 l 1,18,-1
 854 161 l 1,19,-1
 918 460 l 1,20,-1
 686 460 l 1,21,-1
 639 242 l 1,22,-1
 452 161 l 1,23,-1
 442 161 l 1,24,-1
 506 460 l 1,25,-1
 208 460 l 1,26,-1
 210 470 l 1,27,-1
 326 640 l 1,28,-1
 544 640 l 1,29,-1
 593 872 l 1,30,-1
 295 872 l 1,31,-1
 297 882 l 1,32,-1
 414 1052 l 1,33,-1
 632 1052 l 1,34,-1
 678 1269 l 1,35,-1
 865 1350 l 1,0,-1
956 640 m 1,36,-1
 1005 872 l 1,37,-1
 773 872 l 1,38,-1
 724 640 l 1,39,-1
 956 640 l 1,36,-1
EndSplineSet
Validated: 19457
EndChar

StartChar: dollar
Encoding: 36 36 7
Width: 1130
GlyphClass: 2
Flags: W
HStem: 0 300<406.164 505 688 831.223>
VStem: 88 318<136 388.97> 311 323<808.5 1183.96> 903 328<453.562 848>
DStem2: 479 -120 599.16 -120 0.207912 0.978148<77.122 122.783 454.276 821.005 1153.68 1370.18 1691.27 1737.14>
LayerCount: 2
Fore
SplineSet
710 0 m 2,0,-1
 625 0 l 1,1,-1
 610 -69 l 1,2,-1
 489 -120 l 1,3,-1
 479 -120 l 1,4,-1
 505 0 l 1,5,-1
 450 0 l 2,6,7
 88 0 88 0 88 272 c 0,8,9
 88 323 88 323 101 383 c 1,10,-1
 432 526 l 1,11,-1
 442 526 l 1,12,-1
 408 367 l 2,13,14
 406 357 406 357 406 349 c 0,15,16
 406 300 406 300 474 300 c 2,17,-1
 568 300 l 1,18,-1
 650 683 l 1,19,-1
 638 683 l 2,20,21
 311 683 311 683 311 934 c 0,22,23
 311 985 311 985 325 1047 c 2,24,-1
 352 1170 l 2,25,26
 427 1510 427 1510 754 1510 c 2,27,-1
 826 1510 l 1,28,-1
 841 1579 l 1,29,-1
 961 1630 l 1,30,-1
 971 1630 l 1,31,-1
 945 1510 l 1,32,33
 1258 1507 1258 1507 1258 1268 c 0,34,35
 1258 1225 1258 1225 1248 1175 c 1,36,-1
 927 1036 l 1,37,-1
 917 1036 l 1,38,-1
 943 1158 l 2,39,40
 945 1167 945 1167 945 1174 c 0,41,42
 945 1217 945 1217 884 1220 c 1,43,-1
 834 984 l 1,44,-1
 859 984 l 2,45,46
 1231 984 1231 984 1231 712 c 0,47,48
 1231 661 1231 661 1218 601 c 2,49,-1
 1171 383 l 2,50,51
 1088 0 1088 0 710 0 c 2,0,-1
714 984 m 1,52,-1
 765 1220 l 1,53,-1
 752 1220 l 2,54,55
 672 1220 672 1220 658 1154 c 2,56,-1
 636 1050 l 2,57,58
 634 1040 634 1040 634 1032 c 0,59,60
 634 984 634 984 702 984 c 2,61,-1
 714 984 l 1,52,-1
770 683 m 1,62,-1
 688 300 l 1,63,-1
 754 300 l 2,64,65
 834 300 834 300 848 367 c 2,66,-1
 901 616 l 2,67,68
 903 626 903 626 903 634 c 0,69,70
 903 683 903 683 835 683 c 2,71,-1
 770 683 l 1,62,-1
EndSplineSet
Validated: 19457
EndChar

StartChar: percent
Encoding: 37 37 8
Width: 1946
GlyphClass: 2
Flags: W
HStem: -20 21G<709.301 770.57> 0 206<1364.97 1675.52> 536 213<1410.63 1728.03> 761 213<538.969 856.372> 1304 206<591.482 902.031> 1510 20G<1496.42 1557.52>
VStem: 321 213<857.5 1200.73> 908 212<1070.36 1413.5> 1147 212<96.5 439.641> 1733 213<309.266 652.5>
DStem2: 105.69 -20 312.816 -20 0.207912 0.978148<1098.74 1400.16> 534 93 757 -20 0.561853 0.827237<31.8155 1737.11> 636.478 -20 844.092 -20 0.207912 0.978148<1012.92 1314.11> 1093.45 -20 1301.06 -20 0.207912 0.978148<313.688 614.874> 1624.72 -20 1831.85 -20 0.207912 0.978148<227.528 528.948>
LayerCount: 2
Fore
SplineSet
1616 206 m 2,0,1
 1673 206 1673 206 1685 262 c 2,2,-1
 1731 480 l 2,3,4
 1733 490 1733 490 1733 498 c 0,5,6
 1733 536 1733 536 1686 536 c 2,7,-1
 1476 536 l 2,8,9
 1419 536 1419 536 1407 480 c 2,10,-1
 1361 262 l 2,11,12
 1359 252 1359 252 1359 244 c 0,13,14
 1359 206 1359 206 1406 206 c 2,15,-1
 1616 206 l 2,0,1
1569 0 m 2,16,-1
 1395 0 l 2,17,18
 1147 0 1147 0 1147 193 c 0,19,20
 1147 232 1147 232 1157 279 c 2,21,-1
 1198 470 l 2,22,23
 1258 749 1258 749 1524 749 c 2,24,-1
 1698 749 l 2,25,26
 1946 749 1946 749 1946 556 c 0,27,28
 1946 517 1946 517 1936 470 c 2,29,-1
 1895 279 l 2,30,31
 1835 0 1835 0 1569 0 c 2,16,-1
651 1304 m 2,32,33
 594 1304 594 1304 582 1248 c 2,34,-1
 536 1030 l 2,35,36
 534 1020 534 1020 534 1012 c 0,37,38
 534 974 534 974 581 974 c 2,39,-1
 791 974 l 2,40,41
 848 974 848 974 860 1030 c 2,42,-1
 906 1248 l 2,43,44
 908 1258 908 1258 908 1266 c 0,45,46
 908 1304 908 1304 861 1304 c 2,47,-1
 651 1304 l 2,32,33
698 1510 m 2,48,-1
 872 1510 l 2,49,50
 1120 1510 1120 1510 1120 1317 c 0,51,52
 1120 1278 1120 1278 1110 1231 c 2,53,-1
 1069 1040 l 2,54,55
 1009 761 1009 761 743 761 c 2,56,-1
 569 761 l 2,57,58
 321 761 321 761 321 954 c 0,59,60
 321 993 321 993 331 1040 c 2,61,-1
 372 1231 l 2,62,63
 432 1510 432 1510 698 1510 c 2,48,-1
747 -20 m 1,64,-1
 534 93 l 1,65,-1
 1510 1530 l 1,66,-1
 1520 1530 l 1,67,-1
 1732 1417 l 1,68,-1
 757 -20 l 1,69,-1
 747 -20 l 1,64,-1
EndSplineSet
Validated: 19457
EndChar

StartChar: ampersand
Encoding: 38 38 9
Width: 1692
GlyphClass: 2
Flags: W
HStem: -20 21G<1263.47 1333.46> 0 300<512.309 1025.69> 1220 290<770.324 1059.32>
VStem: 178 329<134.5 533.039>
DStem2: 1007 955 790 695 0.561215 -0.82767<93.4106 464.569 790.706 958.506>
LayerCount: 2
Fore
SplineSet
563 624 m 2,0,-1
 509 371 l 2,1,2
 507 359 507 359 507 350 c 0,3,4
 507 300 507 300 571 300 c 2,5,-1
 909 300 l 2,6,7
 980 300 980 300 1030 341 c 1,8,-1
 790 695 l 1,9,-1
 654 695 l 2,10,11
 578 695 578 695 563 624 c 2,0,-1
546 0 m 2,12,13
 178 0 178 0 178 269 c 0,14,15
 178 320 178 320 190 377 c 2,16,-1
 234 585 l 2,17,18
 288 839 288 839 468 884 c 1,19,20
 421 937 421 937 421 1011 c 0,21,22
 421 1038 421 1038 427 1067 c 2,23,-1
 447 1164 l 2,24,25
 518 1510 518 1510 904 1510 c 2,26,-1
 1015 1510 l 2,27,28
 1381 1510 1381 1510 1381 1245 c 0,29,30
 1381 1218 1381 1218 1377 1188 c 9,31,-1
 1056 1050 l 1,32,-1
 1046 1050 l 1,33,-1
 1067 1149 l 2,34,35
 1069 1158 1069 1158 1069 1169 c 0,36,37
 1069 1220 1069 1220 1001 1220 c 2,38,-1
 850 1220 l 2,39,40
 769 1220 769 1220 754 1149 c 2,41,-1
 729 1031 l 2,42,43
 726 1017 726 1017 726 1008 c 0,44,45
 726 955 726 955 795 955 c 2,46,-1
 1007 955 l 1,47,-1
 1267 570 l 1,48,49
 1336 678 1336 678 1391 851 c 1,50,-1
 1738 1000 l 1,51,-1
 1748 1000 l 1,52,53
 1658 587 1658 587 1429 331 c 1,54,-1
 1582 107 l 1,55,-1
 1287 -20 l 1,56,-1
 1277 -20 l 1,57,-1
 1183 119 l 1,58,59
 1032 0 1032 0 875 0 c 2,60,-1
 546 0 l 2,12,13
EndSplineSet
Validated: 19457
EndChar

StartChar: quotesingle
Encoding: 39 39 10
Width: 240
GlyphClass: 2
Flags: W
HStem: 1100 480
VStem: 264 282
DStem2: 264 1100 443.783 1100 0.207912 0.978148<120.189 407.953>
LayerCount: 2
Fore
SplineSet
536 1580 m 1,0,-1
 546 1580 l 1,1,-1
 461 1181 l 1,2,-1
 274 1100 l 1,3,-1
 264 1100 l 1,4,-1
 349 1499 l 1,5,-1
 536 1580 l 1,0,-1
EndSplineSet
Validated: 19457
EndChar

StartChar: parenleft
Encoding: 40 40 11
Width: 756
GlyphClass: 2
Flags: W
HStem: -240 300<515.034 675> 1450 300<790.208 1034>
VStem: 178 328<-104.5 290.375>
DStem2: 109.229 -240 429.142 -240 0.207912 0.978148<425.211 1790.95>
LayerCount: 2
Fore
SplineSet
675 -240 m 1,0,-1
 549 -240 l 2,1,2
 178 -240 178 -240 178 31 c 0,3,4
 178 83 178 83 190 140 c 2,5,-1
 451 1370 l 2,6,7
 532 1750 532 1750 912 1750 c 2,8,-1
 1098 1750 l 1,9,-1
 1034 1450 l 1,10,-1
 868 1450 l 2,11,12
 788 1450 788 1450 773 1379 c 2,13,-1
 508 131 l 2,14,15
 506 122 506 122 506 110 c 0,16,17
 506 60 506 60 573 60 c 2,18,-1
 739 60 l 1,19,-1
 675 -240 l 1,0,-1
EndSplineSet
Validated: 19457
EndChar

StartChar: parenright
Encoding: 41 41 12
Width: 756
GlyphClass: 2
Flags: W
HStem: -240 300<43 286.792> 1450 300<402 561.966>
VStem: 571 328<1219.62 1614.5>
DStem2: -21 -240 545.229 -240 0.207912 0.978148<117.678 1727.71 1763.6 1871.18> 225.142 -240 545.229 -240 0.207912 0.978148<309.967 1675.76>
LayerCount: 2
Fore
SplineSet
-21 -240 m 1,0,-1
 43 60 l 1,1,-1
 209 60 l 2,2,3
 289 60 289 60 304 131 c 2,4,-1
 569 1379 l 2,5,6
 571 1390 571 1390 571 1400 c 0,7,8
 571 1450 571 1450 504 1450 c 2,9,-1
 338 1450 l 1,10,-1
 402 1750 l 1,11,-1
 528 1750 l 2,12,13
 899 1750 899 1750 899 1479 c 0,14,15
 899 1429 899 1429 887 1370 c 2,16,-1
 626 140 l 2,17,18
 545 -240 545 -240 165 -240 c 2,19,-1
 -21 -240 l 1,0,-1
EndSplineSet
Validated: 19457
EndChar

StartChar: asterisk
Encoding: 42 42 13
Width: 790
GlyphClass: 2
Flags: W
DStem2: 264 1103 400 988 0.889369 0.457191<68.3772 213.28 574.709 719.612>
LayerCount: 2
Fore
SplineSet
811 1580 m 1,0,-1
 821 1580 l 1,1,-1
 775 1366 l 1,2,-1
 904 1432 l 1,3,-1
 1037 1326 l 1,4,-1
 1040 1317 l 1,5,-1
 832 1210 l 1,6,-1
 994 1103 l 1,7,-1
 988 1094 l 1,8,-1
 810 988 l 1,9,-1
 709 1054 l 1,10,-1
 681 921 l 1,11,-1
 494 840 l 1,12,-1
 484 840 l 1,13,-1
 529 1054 l 1,14,-1
 400 988 l 1,15,-1
 268 1094 l 1,16,-1
 264 1103 l 1,17,-1
 472 1210 l 1,18,-1
 310 1317 l 1,19,-1
 317 1326 l 1,20,-1
 494 1432 l 1,21,-1
 595 1366 l 1,22,-1
 624 1499 l 1,23,-1
 811 1580 l 1,0,-1
EndSplineSet
Validated: 19457
EndChar

StartChar: plus
Encoding: 43 43 14
Width: 1240
GlyphClass: 2
Flags: W
HStem: 620 270<424 617 944 1137>
DStem2: 537 245 807.43 245 0.207912 0.978148<184.018 383.438 715.525 914.945>
LayerCount: 2
Fore
SplineSet
1014 1265 m 1,0,-1
 1024 1265 l 1,1,-1
 944 890 l 1,2,-1
 1319 890 l 1,3,-1
 1317 880 l 1,4,-1
 1137 620 l 1,5,-1
 887 620 l 1,6,-1
 834 370 l 1,7,-1
 547 245 l 1,8,-1
 537 245 l 1,9,-1
 617 620 l 1,10,-1
 242 620 l 1,11,-1
 244 630 l 1,12,-1
 424 890 l 1,13,-1
 674 890 l 1,14,-1
 727 1140 l 1,15,-1
 1014 1265 l 1,0,-1
EndSplineSet
Validated: 19457
EndChar

StartChar: comma
Encoding: 44 44 15
Width: 496
GlyphClass: 2
Flags: W
HStem: -328 666
VStem: 203 283<-42.5039 147.058>
LayerCount: 2
Fore
SplineSet
75 212 m 1,0,-1
 371 338 l 1,1,-1
 381 338 l 1,2,3
 486 259 486 259 486 132 c 0,4,5
 486 95 486 95 477 54 c 0,6,7
 422 -203 422 -203 60 -328 c 1,8,-1
 55 -321 l 1,9,10
 166 -172 166 -172 197 -24 c 0,11,12
 203 3 203 3 203 28 c 0,13,14
 203 146 203 146 75 212 c 1,0,-1
EndSplineSet
Validated: 19457
EndChar

StartChar: hyphen
Encoding: 45 45 16
Width: 1240
GlyphClass: 2
Flags: W
HStem: 620 270<424 1137>
LayerCount: 2
Fore
SplineSet
424 890 m 1,0,-1
 1319 890 l 1,1,-1
 1317 880 l 1,2,-1
 1137 620 l 1,3,-1
 242 620 l 1,4,-1
 244 630 l 1,5,-1
 424 890 l 1,0,-1
EndSplineSet
Validated: 19457
EndChar

StartChar: period
Encoding: 46 46 17
Width: 420
GlyphClass: 2
Flags: W
HStem: -20 365<156.097 332.323>
VStem: 60 369<75.75 249.936>
LayerCount: 2
Fore
SplineSet
206 -20 m 0,0,1
 130 -20 130 -20 90 34 c 0,2,3
 60 73 60 73 60 123 c 0,4,5
 60 142 60 142 64 162 c 0,6,7
 80 238 80 238 144 291 c 0,8,9
 208 345 208 345 283 345 c 0,10,11
 359 345 359 345 400 292 c 0,12,13
 429 254 429 254 429 203 c 0,14,15
 429 184 429 184 425 163 c 0,16,17
 409 88 409 88 344.5 34 c 128,-1,18
 280 -20 280 -20 206 -20 c 0,0,1
EndSplineSet
Validated: 19457
EndChar

StartChar: slash
Encoding: 47 47 18
Width: 1105
GlyphClass: 2
Flags: W
DStem2: -8 -87 214 -200 0.561693 0.827346<31.2057 2172.01>
LayerCount: 2
Fore
SplineSet
204 -200 m 1,0,-1
 -8 -87 l 1,1,-1
 1212 1710 l 1,2,-1
 1222 1710 l 1,3,-1
 1434 1597 l 1,4,-1
 214 -200 l 1,5,-1
 204 -200 l 1,0,-1
EndSplineSet
Validated: 1
EndChar

StartChar: zero
Encoding: 48 48 19
Width: 1270
GlyphClass: 2
Flags: W
HStem: 0 300<426.034 891.792> 1210 300<599.208 1064.97>
VStem: 89 328<135.5 529.672> 1074 328<980.328 1374.5>
DStem2: 20.2285 0 340.142 0 0.207912 0.978148<425.151 1300.23> 830.142 0 1150.23 0 0.207912 0.978148<309.967 1185.05>
LayerCount: 2
Fore
SplineSet
484 300 m 2,0,-1
 814 300 l 2,1,2
 894 300 894 300 909 371 c 2,3,-1
 1072 1139 l 2,4,5
 1074 1150 1074 1150 1074 1160 c 0,6,7
 1074 1210 1074 1210 1007 1210 c 2,8,-1
 677 1210 l 2,9,10
 597 1210 597 1210 582 1139 c 2,11,-1
 419 371 l 2,12,13
 417 360 417 360 417 350 c 0,14,15
 417 300 417 300 484 300 c 2,0,-1
460 0 m 2,16,17
 89 0 89 0 89 271 c 0,18,19
 89 321 89 321 101 380 c 2,20,-1
 260 1130 l 2,21,22
 341 1510 341 1510 721 1510 c 2,23,-1
 1031 1510 l 2,24,25
 1402 1510 1402 1510 1402 1239 c 0,26,27
 1402 1189 1402 1189 1390 1130 c 2,28,-1
 1231 380 l 2,29,30
 1150 0 1150 0 770 0 c 2,31,-1
 460 0 l 2,16,17
EndSplineSet
Validated: 19457
EndChar

StartChar: one
Encoding: 49 49 20
Width: 794
GlyphClass: 2
Flags: W
HStem: -20 21G<260 316.395> 1510 20G<852.612 909>
DStem2: 260 -20 579.754 -20 0.207912 0.978148<216.765 1122.45>
LayerCount: 2
Fore
SplineSet
270 -20 m 1,0,-1
 260 -20 l 1,1,-1
 493 1078 l 1,2,-1
 227 973 l 1,3,-1
 289 1267 l 1,4,-1
 899 1530 l 1,5,-1
 909 1530 l 1,6,-1
 611 127 l 1,7,-1
 270 -20 l 1,0,-1
EndSplineSet
Validated: 19457
EndChar

StartChar: two
Encoding: 50 50 21
Width: 1273
GlyphClass: 2
Flags: W
HStem: 0 300<684 1047> 1210 300<669.208 1084.6>
VStem: 1094 324<964.869 1366.5>
DStem2: 764 667 684 300 0.828016 0.560704<-272.02 316.477>
LayerCount: 2
Fore
SplineSet
40 0 m 1,0,-1
 42 10 l 1,1,-1
 256 323 l 1,2,-1
 764 667 l 2,3,4
 1030 847 1030 847 1064 1007 c 2,5,-1
 1092 1139 l 2,6,7
 1094 1150 1094 1150 1094 1160 c 0,8,9
 1094 1210 1094 1210 1027 1210 c 2,10,-1
 747 1210 l 2,11,12
 667 1210 667 1210 652 1139 c 2,13,-1
 644 1100 l 1,14,-1
 302 952 l 1,15,-1
 292 952 l 1,16,-1
 330 1130 l 2,17,18
 411 1510 411 1510 791 1510 c 2,19,-1
 1051 1510 l 2,20,21
 1418 1510 1418 1510 1418 1223 c 0,22,23
 1418 1180 1418 1180 1410 1130 c 2,24,-1
 1391 1017 l 2,25,26
 1338 700 1338 700 998 492 c 2,27,-1
 684 300 l 1,28,-1
 1247 300 l 1,29,-1
 1245 290 l 1,30,-1
 1047 0 l 1,31,-1
 40 0 l 1,0,-1
EndSplineSet
Validated: 19457
EndChar

StartChar: three
Encoding: 51 51 22
Width: 1221
GlyphClass: 2
Flags: W
HStem: 0 300<457.949 883.077> 1210 300<620 861>
VStem: 130 318<138 397.275> 956 329<466.266 847.5>
LayerCount: 2
Fore
SplineSet
491 0 m 2,0,1
 130 0 130 0 130 276 c 0,2,3
 130 329 130 329 143 392 c 1,4,-1
 475 536 l 1,5,-1
 485 536 l 1,6,-1
 450 371 l 2,7,8
 448 360 448 360 448 350 c 0,9,10
 448 300 448 300 515 300 c 2,11,-1
 805 300 l 2,12,13
 885 300 885 300 900 371 c 2,14,-1
 954 627 l 2,15,16
 956 638 956 638 956 648 c 0,17,18
 956 698 956 698 889 698 c 2,19,-1
 580 698 l 17,20,-1
 525 780 l 1,21,-1
 861 1210 l 1,22,-1
 420 1210 l 1,23,-1
 422 1220 l 1,24,-1
 620 1510 l 1,25,-1
 1451 1510 l 1,26,-1
 1039 991 l 1,27,28
 1285 961 1285 961 1285 734 c 0,29,30
 1285 681 1285 681 1272 618 c 2,31,-1
 1222 380 l 2,32,33
 1142 0 1142 0 761 0 c 2,34,-1
 491 0 l 2,0,1
EndSplineSet
Validated: 19457
EndChar

StartChar: four
Encoding: 52 52 23
Width: 1317
GlyphClass: 2
Flags: W
HStem: -20 21G<783 839.395> 304 300<660 852> 1510 20G<1375.51 1432>
DStem2: 77 314 660 604 0.680769 0.732499<609.313 1099.76>
LayerCount: 2
Fore
SplineSet
660 604 m 1,0,-1
 915 604 l 1,1,-1
 992 965 l 1,2,-1
 660 604 l 1,0,-1
793 -20 m 1,3,-1
 783 -20 l 1,4,-1
 852 304 l 1,5,-1
 75 304 l 1,6,-1
 77 314 l 1,7,-1
 1064 1376 l 1,8,-1
 1422 1530 l 1,9,-1
 1432 1530 l 1,10,-1
 1235 604 l 1,11,-1
 1385 604 l 1,12,-1
 1383 594 l 1,13,-1
 1186 304 l 1,14,-1
 1172 304 l 1,15,-1
 1134 127 l 1,16,-1
 793 -20 l 1,3,-1
EndSplineSet
Validated: 19457
EndChar

StartChar: five
Encoding: 53 53 24
Width: 1221
GlyphClass: 2
Flags: W
HStem: 0 300<457.949 883.077> 698 300<715 946.966> 1210 300<819 1216>
VStem: 130 318<138 397.275> 956 328<462.406 862>
LayerCount: 2
Fore
SplineSet
491 0 m 2,0,1
 130 0 130 0 130 276 c 0,2,3
 130 329 130 329 143 392 c 1,4,-1
 475 536 l 1,5,-1
 485 536 l 1,6,-1
 450 371 l 2,7,8
 448 360 448 360 448 350 c 0,9,10
 448 300 448 300 515 300 c 2,11,-1
 805 300 l 2,12,13
 885 300 885 300 900 371 c 2,14,-1
 954 627 l 2,15,16
 956 638 956 638 956 648 c 0,17,18
 956 698 956 698 889 698 c 2,19,-1
 616 698 l 2,20,21
 536 698 536 698 523 636 c 1,22,-1
 267 761 l 1,23,-1
 616 1510 l 1,24,-1
 1416 1510 l 1,25,-1
 1414 1500 l 1,26,-1
 1216 1210 l 1,27,-1
 819 1210 l 1,28,-1
 715 998 l 1,29,-1
 913 998 l 2,30,31
 1284 998 1284 998 1284 726 c 0,32,33
 1284 676 1284 676 1272 618 c 2,34,-1
 1222 380 l 2,35,36
 1142 0 1142 0 761 0 c 2,37,-1
 491 0 l 2,0,1
EndSplineSet
Validated: 19457
EndChar

StartChar: six
Encoding: 54 54 25
Width: 1320
GlyphClass: 2
Flags: W
HStem: 0 300<526.034 951.792> 630 300<637.278 1002.15> 1210 300<699.208 1123.96>
VStem: 189 328<135.5 533.922> 1011 330<404.172 796.5> 1134 317<1112.73 1372>
DStem2: 120.229 0 440.142 0 0.207912 0.978148<425.151 715.398 1007.13 1300.23>
LayerCount: 2
Fore
SplineSet
1009 559 m 2,0,1
 1011 570 1011 570 1011 580 c 0,2,3
 1011 630 1011 630 944 630 c 2,4,-1
 654 630 l 2,5,6
 574 630 574 630 559 559 c 2,7,-1
 519 371 l 2,8,9
 517 360 517 360 517 350 c 0,10,11
 517 300 517 300 584 300 c 2,12,-1
 874 300 l 2,13,14
 954 300 954 300 969 371 c 2,15,-1
 1009 559 l 2,0,1
830 0 m 2,16,-1
 560 0 l 2,17,18
 189 0 189 0 189 271 c 0,19,20
 189 321 189 321 201 380 c 2,21,-1
 360 1130 l 2,22,23
 441 1510 441 1510 821 1510 c 2,24,-1
 1091 1510 l 2,25,26
 1451 1510 1451 1510 1451 1234 c 0,27,28
 1451 1181 1451 1181 1438 1118 c 1,29,-1
 1107 974 l 1,30,-1
 1097 974 l 1,31,-1
 1132 1139 l 2,32,33
 1134 1150 1134 1150 1134 1160 c 0,34,35
 1134 1210 1134 1210 1067 1210 c 2,36,-1
 777 1210 l 2,37,38
 697 1210 697 1210 682 1139 c 2,39,-1
 636 920 l 1,40,41
 683 930 683 930 728 930 c 2,42,-1
 968 930 l 2,43,44
 1341 930 1341 930 1341 663 c 0,45,46
 1341 615 1341 615 1329 558 c 2,47,-1
 1291 380 l 2,48,49
 1210 0 1210 0 830 0 c 2,16,-1
EndSplineSet
Validated: 19457
EndChar

StartChar: seven
Encoding: 55 55 26
Width: 1098
GlyphClass: 2
Flags: W
HStem: -20 21G<128 184.604> 1210 300<467 863>
DStem2: 128 -20 632 192 0.509748 0.860324<439.302 1432.86>
LayerCount: 2
Fore
SplineSet
138 -20 m 1,0,-1
 128 -20 l 1,1,-1
 863 1210 l 1,2,-1
 267 1210 l 1,3,-1
 269 1220 l 1,4,-1
 467 1510 l 1,5,-1
 1409 1510 l 1,6,-1
 1407 1500 l 1,7,-1
 632 192 l 1,8,-1
 138 -20 l 1,0,-1
EndSplineSet
Validated: 1
EndChar

StartChar: eight
Encoding: 56 56 27
Width: 1260
GlyphClass: 2
Flags: W
HStem: 0 300<476.034 932.077> 676 285<676.066 1000.58> 1225 285<718.644 1037.3>
VStem: 139 327<136 537.328> 382 294<963.134 1190.71> 1001 326<433.781 769.5> 1048 308<1017.48 1380>
LayerCount: 2
Fore
SplineSet
534 300 m 2,0,1
 854 300 l 2,2,3
 934 300 934 300 948 367 c 2,4,-1
 999 609 l 2,5,6
 1001 619 1001 619 1001 628 c 0,7,8
 1001 676 1001 676 934 676 c 2,9,-1
 614 676 l 2,10,11
 534 676 534 676 519 609 c 2,12,-1
 468 367 l 2,13,14
 466 357 466 357 466 349 c 0,15,16
 466 300 466 300 534 300 c 2,0,1
744 961 m 2,17,-1
 924 961 l 2,18,19
 1004 961 1004 961 1018 1027 c 2,20,-1
 1046 1159 l 2,21,22
 1048 1169 1048 1169 1048 1177 c 0,23,24
 1048 1225 1048 1225 980 1225 c 2,25,-1
 800 1225 l 2,26,27
 720 1225 720 1225 706 1159 c 2,28,-1
 678 1027 l 2,29,30
 676 1017 676 1017 676 1009 c 0,31,32
 676 961 676 961 744 961 c 2,17,-1
510 0 m 2,33,34
 139 0 139 0 139 272 c 0,35,36
 139 321 139 321 151 380 c 2,37,-1
 195 590 l 2,38,39
 248 844 248 844 430 891 c 1,40,41
 382 939 382 939 382 1014 c 0,42,43
 382 1041 382 1041 388 1072 c 2,44,-1
 408 1168 l 2,45,46
 479 1510 479 1510 861 1510 c 2,47,-1
 981 1510 l 2,48,49
 1356 1510 1356 1510 1356 1250 c 0,50,51
 1356 1206 1356 1206 1345 1153 c 2,52,-1
 1328 1072 l 2,53,54
 1304 958 1304 958 1210 890 c 1,55,56
 1327 843 1327 843 1327 696 c 0,57,58
 1327 648 1327 648 1315 590 c 2,59,-1
 1271 380 l 2,60,61
 1191 0 1191 0 810 0 c 2,62,-1
 510 0 l 2,33,34
EndSplineSet
Validated: 19457
EndChar

StartChar: nine
Encoding: 57 57 28
Width: 1320
GlyphClass: 2
Flags: W
HStem: 0 300<517.041 941.792> 580 300<638.851 1003.72> 1210 300<689.208 1114.97>
VStem: 190 317<138 397.275> 300 330<713.5 1105.83> 1124 328<976.078 1374.5>
DStem2: 880.142 0 1200.23 0 0.207912 0.978148<309.967 603.067 894.799 1185.05>
LayerCount: 2
Fore
SplineSet
632 951 m 2,0,1
 630 940 630 940 630 930 c 0,2,3
 630 880 630 880 697 880 c 2,4,-1
 987 880 l 2,5,6
 1067 880 1067 880 1082 951 c 2,7,-1
 1122 1139 l 2,8,9
 1124 1150 1124 1150 1124 1160 c 0,10,11
 1124 1210 1124 1210 1057 1210 c 2,12,-1
 767 1210 l 2,13,14
 687 1210 687 1210 672 1139 c 2,15,-1
 632 951 l 2,0,1
550 0 m 2,16,17
 190 0 190 0 190 276 c 0,18,19
 190 329 190 329 203 392 c 1,20,-1
 534 536 l 1,21,-1
 544 536 l 1,22,-1
 509 371 l 2,23,24
 507 360 507 360 507 350 c 0,25,26
 507 300 507 300 574 300 c 2,27,-1
 864 300 l 2,28,29
 944 300 944 300 959 371 c 2,30,-1
 1005 590 l 1,31,32
 958 580 958 580 913 580 c 2,33,-1
 673 580 l 2,34,35
 300 580 300 580 300 847 c 0,36,37
 300 895 300 895 312 952 c 2,38,-1
 350 1130 l 2,39,40
 431 1510 431 1510 811 1510 c 2,41,-1
 1081 1510 l 2,42,43
 1452 1510 1452 1510 1452 1239 c 0,44,45
 1452 1189 1452 1189 1440 1130 c 2,46,-1
 1281 380 l 2,47,48
 1200 0 1200 0 820 0 c 2,49,-1
 550 0 l 2,16,17
EndSplineSet
Validated: 19457
EndChar

StartChar: colon
Encoding: 58 58 29
Width: 420
GlyphClass: 2
Flags: W
HStem: -20 365<156.097 332.323> 573 365<282.097 458.323>
VStem: 60 495
LayerCount: 2
Fore
SplineSet
206 -20 m 0,0,1
 130 -20 130 -20 90 34 c 0,2,3
 60 73 60 73 60 123 c 0,4,5
 60 142 60 142 64 162 c 0,6,7
 80 238 80 238 144 291 c 0,8,9
 208 345 208 345 283 345 c 0,10,11
 359 345 359 345 400 292 c 0,12,13
 429 254 429 254 429 203 c 0,14,15
 429 184 429 184 425 163 c 0,16,17
 409 88 409 88 344.5 34 c 128,-1,18
 280 -20 280 -20 206 -20 c 0,0,1
409 938 m 0,19,20
 485 938 485 938 526 885 c 0,21,22
 555 847 555 847 555 796 c 0,23,24
 555 777 555 777 551 756 c 0,25,26
 535 681 535 681 470.5 627 c 128,-1,27
 406 573 406 573 332 573 c 0,28,29
 256 573 256 573 216 627 c 0,30,31
 186 666 186 666 186 716 c 0,32,33
 186 735 186 735 190 755 c 0,34,35
 206 831 206 831 270 884 c 0,36,37
 334 938 334 938 409 938 c 0,19,20
EndSplineSet
Validated: 19457
EndChar

StartChar: semicolon
Encoding: 59 59 30
Width: 496
GlyphClass: 2
Flags: W
HStem: 573 365<320.097 496.323>
VStem: 203 283<-42.5039 147.058>
LayerCount: 2
Fore
SplineSet
75 212 m 1,0,-1
 371 338 l 1,1,-1
 381 338 l 1,2,3
 486 259 486 259 486 132 c 0,4,5
 486 95 486 95 477 54 c 0,6,7
 422 -203 422 -203 60 -328 c 1,8,-1
 55 -321 l 1,9,10
 166 -172 166 -172 197 -24 c 0,11,12
 203 3 203 3 203 28 c 0,13,14
 203 146 203 146 75 212 c 1,0,-1
447 938 m 0,15,16
 523 938 523 938 564 885 c 0,17,18
 593 847 593 847 593 796 c 0,19,20
 593 777 593 777 589 756 c 0,21,22
 573 681 573 681 508.5 627 c 128,-1,23
 444 573 444 573 370 573 c 0,24,25
 294 573 294 573 254 627 c 0,26,27
 224 666 224 666 224 716 c 0,28,29
 224 735 224 735 228 755 c 0,30,31
 244 831 244 831 308 884 c 0,32,33
 372 938 372 938 447 938 c 0,15,16
EndSplineSet
Validated: 19457
EndChar

StartChar: less
Encoding: 60 60 31
Width: 1355
GlyphClass: 2
Flags: W
DStem2: 768 742 246 638 0.933479 -0.358631<0 512.014> 416 891 768 742 0.945892 0.324481<284.606 958.174>
LayerCount: 2
Fore
SplineSet
246 638 m 1,0,-1
 248 648 l 1,1,-1
 416 891 l 1,2,-1
 1343 1209 l 1,3,-1
 1408 968 l 1,4,-1
 1406 958 l 1,5,-1
 768 742 l 1,6,-1
 1310 539 l 1,7,-1
 1307 529 l 1,8,-1
 1144 293 l 1,9,-1
 246 638 l 1,0,-1
EndSplineSet
Validated: 19457
EndChar

StartChar: equal
Encoding: 61 61 32
Width: 1240
GlyphClass: 2
Flags: W
HStem: 390 270<375 1088> 850 270<473 1186>
LayerCount: 2
Fore
SplineSet
375 660 m 1,0,-1
 1270 660 l 1,1,-1
 1268 650 l 1,2,-1
 1088 390 l 1,3,-1
 193 390 l 1,4,-1
 195 400 l 1,5,-1
 375 660 l 1,0,-1
473 1120 m 1,6,-1
 1368 1120 l 1,7,-1
 1366 1110 l 1,8,-1
 1186 850 l 1,9,-1
 291 850 l 1,10,-1
 293 860 l 1,11,-1
 473 1120 l 1,6,-1
EndSplineSet
Validated: 19457
EndChar

StartChar: greater
Encoding: 62 62 33
Width: 1355
GlyphClass: 2
Flags: W
DStem2: 270 552 333 301 0.945892 0.324481<0 673.567> 532 1217 366 971 0.933479 -0.358631<0 512.014>
LayerCount: 2
Fore
SplineSet
1430 872 m 1,0,-1
 1428 862 l 1,1,-1
 1260 619 l 1,2,-1
 333 301 l 1,3,-1
 268 542 l 1,4,-1
 270 552 l 1,5,-1
 908 768 l 1,6,-1
 366 971 l 1,7,-1
 369 981 l 1,8,-1
 532 1217 l 1,9,-1
 1430 872 l 1,0,-1
EndSplineSet
Validated: 19457
EndChar

StartChar: question
Encoding: 63 63 34
Width: 1303
GlyphClass: 2
Flags: W
HStem: -20 365<551.097 727.323> 1210 300<689.208 1104.6>
VStem: 1114 324<976.034 1366.5>
LayerCount: 2
Fore
SplineSet
601 -20 m 0,0,1
 525 -20 525 -20 485 34 c 0,2,3
 455 73 455 73 455 123 c 0,4,5
 455 142 455 142 459 162 c 0,6,7
 475 238 475 238 539 291 c 0,8,9
 603 345 603 345 678 345 c 0,10,11
 754 345 754 345 795 292 c 0,12,13
 824 254 824 254 824 203 c 0,14,15
 824 184 824 184 820 163 c 0,16,17
 804 88 804 88 739.5 34 c 128,-1,18
 675 -20 675 -20 601 -20 c 0,0,1
811 1510 m 2,19,-1
 1071 1510 l 2,20,21
 1438 1510 1438 1510 1438 1223 c 0,22,23
 1438 1180 1438 1180 1430 1130 c 2,24,-1
 1417 1053 l 2,25,26
 1365 743 1365 743 960 559 c 0,27,28
 885 525 885 525 879 506 c 1,29,-1
 534 359 l 1,30,-1
 524 359 l 1,31,32
 595 692 595 692 860 796 c 0,33,34
 1057 873 1057 873 1091 1038 c 2,35,-1
 1112 1139 l 2,36,37
 1114 1150 1114 1150 1114 1160 c 0,38,39
 1114 1210 1114 1210 1047 1210 c 2,40,-1
 767 1210 l 2,41,42
 687 1210 687 1210 672 1139 c 2,43,-1
 664 1100 l 1,44,-1
 322 952 l 1,45,-1
 312 952 l 1,46,-1
 350 1130 l 2,47,48
 431 1510 431 1510 811 1510 c 2,19,-1
EndSplineSet
Validated: 19457
EndChar

StartChar: at
Encoding: 64 64 35
Width: 1420
GlyphClass: 2
Flags: W
HStem: -410 280<431.689 619> 0 220<855.208 1027> 441 221<889.249 1074> 820 280<611.962 1140.84>
VStem: 121 304<-277.5 114.188> 613 237<109 416.338> 1141 307<665.141 968>
DStem2: 53.2285 -410 352.393 -410 0.207912 0.978148<400.39 1320.28>
LayerCount: 2
Fore
SplineSet
1031 0 m 1,0,-1
 898 0 l 2,1,2
 613 0 613 0 613 218 c 0,3,4
 613 261 613 261 624 311 c 2,5,-1
 639 381 l 2,6,7
 699 662 699 662 979 662 c 2,8,-1
 1118 662 l 1,9,-1
 1140 768 l 2,10,11
 1141 774 1141 774 1141 780 c 0,12,13
 1141 820 1141 820 1071 820 c 10,14,-1
 694 820 l 2,15,16
 614 820 614 820 599 749 c 2,17,-1
 427 -59 l 2,18,19
 425 -70 425 -70 425 -80 c 0,20,21
 425 -130 425 -130 492 -130 c 2,22,-1
 808 -130 l 1,23,-1
 806 -140 l 1,24,-1
 619 -410 l 1,25,-1
 463 -410 l 2,26,27
 121 -410 121 -410 121 -145 c 0,28,29
 121 -93 121 -93 134 -30 c 2,30,-1
 293 720 l 2,31,32
 374 1100 374 1100 754 1100 c 2,33,-1
 1074 1100 l 2,34,35
 1448 1100 1448 1100 1448 836 c 0,36,37
 1448 789 1448 789 1436 734 c 2,38,-1
 1305 118 l 1,39,-1
 1031 0 l 1,0,-1
1027 220 m 1,40,-1
 1074 441 l 1,41,-1
 932 441 l 2,42,43
 892 441 892 441 886 412 c 2,44,-1
 851 251 l 2,45,46
 850 247 850 247 850 243 c 0,47,48
 850 220 850 220 885 220 c 2,49,-1
 1027 220 l 1,40,-1
EndSplineSet
Validated: 19457
EndChar

StartChar: A
Encoding: 65 65 36
Width: 1410
GlyphClass: 2
Flags: W
HStem: -20 21G<136 192.395 946 1002.39> 605 300<652 1079> 1210 300<719.208 1185.06>
VStem: 1194 329<985.367 1374.5>
DStem2: 136 -20 455.754 -20 0.207912 0.978148<216.765 705.526 1012.07 1320.67> 946 -20 1265.75 -20 0.207912 0.978148<216.765 638.995 945.537 1205.47>
LayerCount: 2
Fore
SplineSet
146 -20 m 1,0,-1
 136 -20 l 1,1,-1
 380 1130 l 2,2,3
 461 1510 461 1510 841 1510 c 2,4,-1
 1151 1510 l 2,5,6
 1523 1510 1523 1510 1523 1239 c 0,7,8
 1523 1189 1523 1189 1510 1130 c 2,9,-1
 1297 127 l 1,10,-1
 956 -20 l 1,11,-1
 946 -20 l 1,12,-1
 1079 605 l 1,13,-1
 589 605 l 1,14,-1
 487 127 l 1,15,-1
 146 -20 l 1,0,-1
652 905 m 1,16,-1
 1142 905 l 1,17,-1
 1192 1139 l 2,18,19
 1194 1150 1194 1150 1194 1160 c 0,20,21
 1194 1210 1194 1210 1127 1210 c 2,22,-1
 797 1210 l 2,23,24
 717 1210 717 1210 702 1139 c 2,25,-1
 652 905 l 1,16,-1
EndSplineSet
Validated: 19457
EndChar

StartChar: B
Encoding: 66 66 37
Width: 1300
GlyphClass: 2
Flags: W
HStem: 0 300<544 992.077> 676 285<684 1060.58> 1225 285<749 1107.84>
VStem: 1061 321<409.062 674.303> 1108 307<1008.5 1378.5>
DStem2: 160 0 480.233 0 0.207912 0.978148<373.282 757.699 1048.95 1318.82>
LayerCount: 2
Fore
SplineSet
544 300 m 1,0,-1
 914 300 l 2,1,2
 994 300 994 300 1008 367 c 2,3,-1
 1059 609 l 2,4,5
 1061 619 1061 619 1061 628 c 0,6,7
 1061 676 1061 676 994 676 c 2,8,-1
 624 676 l 1,9,-1
 544 300 l 1,0,-1
160 0 m 1,10,-1
 454 1384 l 1,11,-1
 749 1510 l 1,12,-1
 1041 1510 l 2,13,14
 1415 1510 1415 1510 1415 1247 c 0,15,16
 1415 1201 1415 1201 1404 1148 c 2,17,-1
 1388 1072 l 2,18,19
 1358 928 1358 928 1271 866 c 1,20,21
 1382 780 1382 780 1382 655 c 0,22,23
 1382 624 1382 624 1375 590 c 2,24,-1
 1331 380 l 2,25,26
 1251 0 1251 0 870 0 c 2,27,-1
 160 0 l 1,10,-1
684 961 m 1,28,-1
 984 961 l 2,29,30
 1064 961 1064 961 1078 1027 c 2,31,-1
 1106 1159 l 2,32,33
 1108 1169 1108 1169 1108 1177 c 0,34,35
 1108 1225 1108 1225 1040 1225 c 2,36,-1
 740 1225 l 1,37,-1
 684 961 l 1,28,-1
EndSplineSet
Validated: 19457
EndChar

StartChar: C
Encoding: 67 67 38
Width: 1250
GlyphClass: 2
Flags: W
HStem: 0 300<526.034 951.792> 1210 300<699.208 1123.96>
VStem: 189 328<135.5 529.672> 1134 317<1112.74 1372.5>
DStem2: 120.229 0 440.142 0 0.207912 0.978148<425.151 1300.23>
LayerCount: 2
Fore
SplineSet
560 0 m 2,0,1
 189 0 189 0 189 271 c 0,2,3
 189 321 189 321 201 380 c 2,4,-1
 360 1130 l 2,5,6
 441 1510 441 1510 821 1510 c 2,7,-1
 1091 1510 l 2,8,9
 1451 1510 1451 1510 1451 1235 c 0,10,11
 1451 1182 1451 1182 1438 1118 c 1,12,-1
 1107 974 l 1,13,-1
 1097 974 l 1,14,-1
 1132 1139 l 2,15,16
 1134 1150 1134 1150 1134 1160 c 0,17,18
 1134 1210 1134 1210 1067 1210 c 2,19,-1
 777 1210 l 2,20,21
 697 1210 697 1210 682 1139 c 2,22,-1
 519 371 l 2,23,24
 517 360 517 360 517 350 c 0,25,26
 517 300 517 300 584 300 c 2,27,-1
 874 300 l 2,28,29
 954 300 954 300 969 371 c 2,30,-1
 977 410 l 1,31,-1
 1319 558 l 1,32,-1
 1329 558 l 1,33,-1
 1291 380 l 2,34,35
 1210 0 1210 0 830 0 c 2,36,-1
 560 0 l 2,0,1
EndSplineSet
Validated: 19457
EndChar

StartChar: D
Encoding: 68 68 39
Width: 1390
GlyphClass: 2
Flags: W
HStem: 0 300<544 1011.79> 1210 300<749 1184.97>
VStem: 1194 328<980.328 1374.5>
DStem2: 160 0 480.233 0 0.207912 0.978148<373.282 1303.52> 950.142 0 1270.23 0 0.207912 0.978148<309.967 1185.05>
LayerCount: 2
Fore
SplineSet
544 300 m 1,0,-1
 934 300 l 2,1,2
 1014 300 1014 300 1029 371 c 2,3,-1
 1192 1139 l 2,4,5
 1194 1150 1194 1150 1194 1160 c 0,6,7
 1194 1210 1194 1210 1127 1210 c 2,8,-1
 737 1210 l 1,9,-1
 544 300 l 1,0,-1
160 0 m 1,10,-1
 454 1383 l 1,11,-1
 749 1510 l 1,12,-1
 1151 1510 l 2,13,14
 1522 1510 1522 1510 1522 1239 c 0,15,16
 1522 1189 1522 1189 1510 1130 c 2,17,-1
 1351 380 l 2,18,19
 1270 0 1270 0 890 0 c 2,20,-1
 160 0 l 1,10,-1
EndSplineSet
Validated: 19457
EndChar

StartChar: E
Encoding: 69 69 40
Width: 1100
GlyphClass: 2
Flags: W
HStem: 0 300<544 954> 605 300<672 1033> 1210 300<749 1161>
DStem2: 160 0 480.233 0 0.207912 0.978148<373.282 685.132 991.674 1303.52>
CounterMasks: 1 e0
LayerCount: 2
Fore
SplineSet
160 0 m 1,0,-1
 454 1384 l 1,1,-1
 749 1510 l 1,2,-1
 1361 1510 l 1,3,-1
 1359 1500 l 1,4,-1
 1161 1210 l 1,5,-1
 737 1210 l 1,6,-1
 672 905 l 1,7,-1
 1232 905 l 1,8,-1
 1230 895 l 1,9,-1
 1033 605 l 1,10,-1
 609 605 l 1,11,-1
 544 300 l 1,12,-1
 1154 300 l 1,13,-1
 1152 290 l 1,14,-1
 954 0 l 1,15,-1
 160 0 l 1,0,-1
EndSplineSet
Validated: 19457
EndChar

StartChar: F
Encoding: 70 70 41
Width: 1050
GlyphClass: 2
Flags: W
HStem: -20 21G<156 212.395> 605 300<672 1033> 1210 300<749 1161>
DStem2: 156 -20 475.754 -20 0.207912 0.978148<216.765 705.526 1012.07 1323.92>
LayerCount: 2
Fore
SplineSet
166 -20 m 1,0,-1
 156 -20 l 1,1,-1
 454 1384 l 1,2,-1
 749 1510 l 1,3,-1
 1361 1510 l 1,4,-1
 1359 1500 l 1,5,-1
 1161 1210 l 1,6,-1
 737 1210 l 1,7,-1
 672 905 l 1,8,-1
 1232 905 l 1,9,-1
 1230 895 l 1,10,-1
 1033 605 l 1,11,-1
 609 605 l 1,12,-1
 507 127 l 1,13,-1
 166 -20 l 1,0,-1
EndSplineSet
Validated: 19457
EndChar

StartChar: G
Encoding: 71 71 42
Width: 1330
GlyphClass: 2
Flags: W
HStem: 0 300<526.034 952.077> 1210 300<699.208 1123.96>
VStem: 189 328<135.5 529.672> 1134 317<1112.74 1372.5>
DStem2: 120.229 0 440.142 0 0.207912 0.978148<425.151 1300.23>
LayerCount: 2
Fore
SplineSet
560 0 m 2,0,1
 189 0 189 0 189 271 c 0,2,3
 189 321 189 321 201 380 c 2,4,-1
 360 1130 l 2,5,6
 441 1510 441 1510 821 1510 c 2,7,-1
 1091 1510 l 2,8,9
 1451 1510 1451 1510 1451 1235 c 0,10,11
 1451 1182 1451 1182 1438 1118 c 1,12,-1
 1107 974 l 1,13,-1
 1097 974 l 1,14,-1
 1132 1139 l 2,15,16
 1134 1150 1134 1150 1134 1160 c 0,17,18
 1134 1210 1134 1210 1067 1210 c 2,19,-1
 777 1210 l 2,20,21
 697 1210 697 1210 682 1139 c 2,22,-1
 519 371 l 2,23,24
 517 360 517 360 517 350 c 0,25,26
 517 300 517 300 584 300 c 2,27,-1
 874 300 l 2,28,29
 954 300 954 300 969 371 c 2,30,-1
 1019 605 l 1,31,-1
 691 605 l 1,32,-1
 693 615 l 1,33,-1
 890 905 l 1,34,-1
 1402 905 l 1,35,-1
 1291 380 l 2,36,37
 1211 0 1211 0 830 0 c 2,38,-1
 560 0 l 2,0,1
EndSplineSet
Validated: 19457
EndChar

StartChar: H
Encoding: 72 72 43
Width: 1440
GlyphClass: 2
Flags: W
HStem: -20 21G<156 212.395 956 1012.39> 605 300<672 1089> 1510 20G<748.605 805 1548.61 1605>
DStem2: 156 -20 475.754 -20 0.207912 0.978148<216.765 705.526 1012.07 1434.3> 956 -20 1275.75 -20 0.207912 0.978148<216.765 638.995 945.537 1434.3>
LayerCount: 2
Fore
SplineSet
166 -20 m 1,0,-1
 156 -20 l 1,1,-1
 454 1383 l 1,2,-1
 795 1530 l 1,3,-1
 805 1530 l 1,4,-1
 672 905 l 1,5,-1
 1152 905 l 1,6,-1
 1254 1383 l 1,7,-1
 1595 1530 l 1,8,-1
 1605 1530 l 1,9,-1
 1307 127 l 1,10,-1
 966 -20 l 1,11,-1
 956 -20 l 1,12,-1
 1089 605 l 1,13,-1
 609 605 l 1,14,-1
 507 127 l 1,15,-1
 166 -20 l 1,0,-1
EndSplineSet
Validated: 19457
EndChar

StartChar: I
Encoding: 73 73 44
Width: 640
GlyphClass: 2
Flags: W
HStem: -20 21G<156 212.395> 1510 20G<748.605 805>
VStem: 156 649
DStem2: 156 -20 475.754 -20 0.207912 0.978148<216.765 1434.3>
LayerCount: 2
Fore
SplineSet
166 -20 m 1,0,-1
 156 -20 l 1,1,-1
 454 1383 l 1,2,-1
 795 1530 l 1,3,-1
 805 1530 l 1,4,-1
 507 127 l 1,5,-1
 166 -20 l 1,0,-1
EndSplineSet
Validated: 19457
EndChar

StartChar: J
Encoding: 74 74 45
Width: 1170
GlyphClass: 2
Flags: W
HStem: 0 300<407.041 791.792> 1210 300<542 987>
VStem: 80 317<138 397.658>
DStem2: 730.142 0 1050.23 0 0.207912 0.978148<309.967 1236.96>
LayerCount: 2
Fore
SplineSet
670 0 m 2,0,-1
 440 0 l 2,1,2
 80 0 80 0 80 276 c 0,3,4
 80 329 80 329 93 393 c 1,5,-1
 424 535 l 1,6,-1
 434 535 l 1,7,-1
 399 371 l 2,8,9
 397 360 397 360 397 350 c 0,10,11
 397 300 397 300 464 300 c 2,12,-1
 714 300 l 2,13,14
 794 300 794 300 809 371 c 2,15,-1
 987 1210 l 1,16,-1
 342 1210 l 1,17,-1
 344 1220 l 1,18,-1
 542 1510 l 1,19,-1
 1371 1510 l 1,20,-1
 1131 380 l 2,21,22
 1050 0 1050 0 670 0 c 2,0,-1
EndSplineSet
Validated: 19457
EndChar

StartChar: K
Encoding: 75 75 46
Width: 1370
GlyphClass: 2
Flags: W
HStem: -20 21G<156 212.395 926 982.395> 1510 20G<748.605 805 1268.59 1344.09>
VStem: 1076 328<516.227 903.5>
DStem2: 156 -20 475.754 -20 0.207912 0.978148<216.765 858.416 1217.62 1434.3> 715 1106 1065 1042 0.807773 0.589494<244.993 719.261> 926 -20 1245.75 -20 0.207912 0.978148<216.765 735.147>
LayerCount: 2
Fore
SplineSet
166 -20 m 1,0,-1
 156 -20 l 1,1,-1
 454 1383 l 1,2,-1
 795 1530 l 1,3,-1
 805 1530 l 1,4,-1
 715 1106 l 1,5,-1
 1296 1530 l 1,6,-1
 1306 1530 l 1,7,-1
 1565 1394 l 1,8,-1
 1065 1042 l 1,9,10
 1404 1032 1404 1032 1404 775 c 0,11,12
 1404 727 1404 727 1392 670 c 2,13,-1
 1277 127 l 1,14,-1
 936 -20 l 1,15,-1
 926 -20 l 1,16,-1
 1074 679 l 2,17,18
 1076 690 1076 690 1076 700 c 0,19,20
 1076 750 1076 750 1009 750 c 2,21,-1
 719 750 l 2,22,23
 639 750 639 750 624 679 c 2,24,-1
 507 127 l 1,25,-1
 166 -20 l 1,0,-1
EndSplineSet
Validated: 19457
EndChar

StartChar: L
Encoding: 76 76 47
Width: 1100
GlyphClass: 2
Flags: W
HStem: 0 300<544 954> 1510 20G<748.288 805>
DStem2: 160 0 480.233 0 0.207912 0.978148<373.282 1414.88>
LayerCount: 2
Fore
SplineSet
160 0 m 1,0,-1
 454 1384 l 1,1,-1
 795 1530 l 1,2,-1
 805 1530 l 1,3,-1
 544 300 l 1,4,-1
 1154 300 l 1,5,-1
 1152 290 l 1,6,-1
 954 0 l 1,7,-1
 160 0 l 1,0,-1
EndSplineSet
Validated: 19457
EndChar

StartChar: M
Encoding: 77 77 48
Width: 2220
GlyphClass: 2
Flags: W
HStem: -20 21G<136 192.395 946 1002.39 1756 1812.39> 1210 300<719.208 1192.93 1524.56 1995.06>
VStem: 2004 329<991.539 1374.5>
DStem2: 136 -20 455.754 -20 0.207912 0.978148<216.765 1320.67> 946 -20 1265.75 -20 0.207912 0.978148<216.765 1205.47> 1756 -20 2075.75 -20 0.207912 0.978148<216.765 1205.47>
LayerCount: 2
Fore
SplineSet
146 -20 m 1,0,-1
 136 -20 l 1,1,-1
 380 1130 l 2,2,3
 461 1510 461 1510 841 1510 c 2,4,-1
 1151 1510 l 2,5,6
 1305 1510 1305 1510 1389 1456 c 1,7,8
 1496 1510 1496 1510 1651 1510 c 2,9,-1
 1961 1510 l 2,10,11
 2333 1510 2333 1510 2333 1239 c 0,12,13
 2333 1189 2333 1189 2320 1130 c 2,14,-1
 2107 127 l 1,15,-1
 1766 -20 l 1,16,-1
 1756 -20 l 1,17,-1
 2002 1139 l 2,18,19
 2004 1150 2004 1150 2004 1160 c 0,20,21
 2004 1210 2004 1210 1937 1210 c 2,22,-1
 1607 1210 l 2,23,24
 1527 1210 1527 1210 1512 1139 c 2,25,-1
 1297 127 l 1,26,-1
 956 -20 l 1,27,-1
 946 -20 l 1,28,-1
 1192 1139 l 2,29,30
 1194 1150 1194 1150 1194 1160 c 0,31,32
 1194 1210 1194 1210 1127 1210 c 2,33,-1
 797 1210 l 2,34,35
 717 1210 717 1210 702 1139 c 2,36,-1
 487 127 l 1,37,-1
 146 -20 l 1,0,-1
EndSplineSet
Validated: 19457
EndChar

StartChar: N
Encoding: 78 78 49
Width: 1410
GlyphClass: 2
Flags: W
HStem: -20 21G<136 192.395 946 1002.39> 1210 300<719.208 1185.06>
VStem: 1194 329<991.539 1374.5>
DStem2: 136 -20 455.754 -20 0.207912 0.978148<216.765 1320.67> 946 -20 1265.75 -20 0.207912 0.978148<216.765 1205.47>
LayerCount: 2
Fore
SplineSet
146 -20 m 1,0,-1
 136 -20 l 1,1,-1
 380 1130 l 2,2,3
 461 1510 461 1510 841 1510 c 2,4,-1
 1151 1510 l 2,5,6
 1523 1510 1523 1510 1523 1239 c 0,7,8
 1523 1189 1523 1189 1510 1130 c 2,9,-1
 1297 127 l 1,10,-1
 956 -20 l 1,11,-1
 946 -20 l 1,12,-1
 1192 1139 l 2,13,14
 1194 1150 1194 1150 1194 1160 c 0,15,16
 1194 1210 1194 1210 1127 1210 c 2,17,-1
 797 1210 l 2,18,19
 717 1210 717 1210 702 1139 c 2,20,-1
 487 127 l 1,21,-1
 146 -20 l 1,0,-1
EndSplineSet
Validated: 19457
EndChar

StartChar: O
Encoding: 79 79 50
Width: 1370
GlyphClass: 2
Flags: W
HStem: 0 300<526.034 991.792> 1210 300<699.208 1164.97>
VStem: 189 328<135.5 529.672> 1174 328<980.328 1374.5>
DStem2: 120.229 0 440.142 0 0.207912 0.978148<425.151 1300.23> 930.142 0 1250.23 0 0.207912 0.978148<309.967 1185.05>
LayerCount: 2
Fore
SplineSet
584 300 m 2,0,-1
 914 300 l 2,1,2
 994 300 994 300 1009 371 c 2,3,-1
 1172 1139 l 2,4,5
 1174 1150 1174 1150 1174 1160 c 0,6,7
 1174 1210 1174 1210 1107 1210 c 2,8,-1
 777 1210 l 2,9,10
 697 1210 697 1210 682 1139 c 2,11,-1
 519 371 l 2,12,13
 517 360 517 360 517 350 c 0,14,15
 517 300 517 300 584 300 c 2,0,-1
560 0 m 2,16,17
 189 0 189 0 189 271 c 0,18,19
 189 321 189 321 201 380 c 2,20,-1
 360 1130 l 2,21,22
 441 1510 441 1510 821 1510 c 2,23,-1
 1131 1510 l 2,24,25
 1502 1510 1502 1510 1502 1239 c 0,26,27
 1502 1189 1502 1189 1490 1130 c 2,28,-1
 1331 380 l 2,29,30
 1250 0 1250 0 870 0 c 2,31,-1
 560 0 l 2,16,17
EndSplineSet
Validated: 19457
EndChar

StartChar: P
Encoding: 80 80 51
Width: 1250
GlyphClass: 2
Flags: W
HStem: -20 21G<156 212.395> 440 300<637 1045.82> 1210 300<749 1124.87>
VStem: 1134 327<972.703 1372>
DStem2: 156 -20 475.754 -20 0.207912 0.978148<216.765 536.855 843.398 1323.92> 885.365 -20 1205.75 -20 0.207912 0.978148<775.253 1205.6>
LayerCount: 2
Fore
SplineSet
166 -20 m 1,0,-1
 156 -20 l 1,1,-1
 454 1383 l 1,2,-1
 749 1510 l 1,3,-1
 1091 1510 l 2,4,5
 1461 1510 1461 1510 1461 1234 c 0,6,7
 1461 1183 1461 1183 1448 1122 c 2,8,-1
 1386 828 l 2,9,10
 1304 440 1304 440 924 440 c 2,11,-1
 574 440 l 1,12,-1
 507 127 l 1,13,-1
 166 -20 l 1,0,-1
637 740 m 1,14,-1
 967 740 l 2,15,16
 1047 740 1047 740 1062 811 c 2,17,-1
 1132 1139 l 2,18,19
 1134 1150 1134 1150 1134 1160 c 0,20,21
 1134 1210 1134 1210 1067 1210 c 2,22,-1
 737 1210 l 1,23,-1
 637 740 l 1,14,-1
EndSplineSet
Validated: 19457
EndChar

StartChar: Q
Encoding: 81 81 52
Width: 1370
GlyphClass: 2
Flags: W
HStem: 0 300<526.034 714> 1210 300<699.208 1164.97>
VStem: 189 328<135.5 529.672> 1174 328<979.688 1374.5>
DStem2: 111.726 -40 431.639 -40 0.207912 0.978148<466.045 1341.12> 921.224 -40 1241.73 -40 0.207912 0.978148<473.527 1226.03>
LayerCount: 2
Fore
SplineSet
603 512 m 1,0,-1
 910 609 l 1,1,-1
 920 609 l 1,2,-1
 1019 420 l 1,3,-1
 1172 1139 l 2,4,5
 1174 1150 1174 1150 1174 1160 c 0,6,7
 1174 1210 1174 1210 1107 1210 c 2,8,-1
 777 1210 l 2,9,10
 697 1210 697 1210 682 1139 c 2,11,-1
 519 371 l 2,12,13
 517 360 517 360 517 350 c 0,14,15
 517 300 517 300 584 300 c 2,16,-1
 714 300 l 1,17,-1
 603 512 l 1,0,-1
560 0 m 2,18,19
 189 0 189 0 189 271 c 0,20,21
 189 321 189 321 201 380 c 2,22,-1
 360 1130 l 2,23,24
 441 1510 441 1510 821 1510 c 2,25,-1
 1131 1510 l 2,26,27
 1502 1510 1502 1510 1502 1239 c 0,28,29
 1502 1189 1502 1189 1490 1130 c 2,30,-1
 1331 380 l 2,31,32
 1293 202 1293 202 1183 107 c 1,33,-1
 1209 57 l 1,34,-1
 901 -40 l 1,35,-1
 891 -40 l 1,36,-1
 870 1 l 1,37,38
 855 0 855 0 840 0 c 2,39,-1
 560 0 l 2,18,19
EndSplineSet
Validated: 19457
EndChar

StartChar: R
Encoding: 82 82 53
Width: 1381
GlyphClass: 2
Flags: W
HStem: -20 21G<156 212.395 1042.17 1113.42> 440 300<637 782> 1210 300<749 1124.87>
VStem: 1134 327<972.703 1372>
DStem2: 156 -20 475.754 -20 0.207912 0.978148<216.765 536.855 843.398 1323.92> 885.365 -20 1205.75 -20 0.207912 0.978148<778.271 1205.6>
LayerCount: 2
Fore
SplineSet
637 740 m 1,0,-1
 967 740 l 2,1,2
 1047 740 1047 740 1062 811 c 2,3,-1
 1132 1139 l 2,4,5
 1134 1150 1134 1150 1134 1160 c 0,6,7
 1134 1210 1134 1210 1067 1210 c 2,8,-1
 737 1210 l 1,9,-1
 637 740 l 1,0,-1
166 -20 m 1,10,-1
 156 -20 l 1,11,-1
 454 1383 l 1,12,-1
 749 1510 l 1,13,-1
 1091 1510 l 2,14,15
 1461 1510 1461 1510 1461 1234 c 0,16,17
 1461 1183 1461 1183 1448 1122 c 2,18,-1
 1386 828 l 2,19,20
 1330 561 1330 561 1125 485 c 1,21,-1
 1363 101 l 1,22,-1
 1064 -20 l 1,23,-1
 1054 -20 l 1,24,-1
 782 440 l 1,25,-1
 574 440 l 1,26,-1
 507 127 l 1,27,-1
 166 -20 l 1,10,-1
EndSplineSet
Validated: 19457
EndChar

StartChar: T
Encoding: 84 84 54
Width: 1190
GlyphClass: 2
Flags: W
HStem: -20 21G<431 487.712> 1210 300<467 692 1012 1301>
DStem2: 431 -20 750.967 -20 0.207912 0.978148<215.787 1257.39>
LayerCount: 2
Fore
SplineSet
441 -20 m 1,0,-1
 431 -20 l 1,1,-1
 692 1210 l 1,2,-1
 267 1210 l 1,3,-1
 269 1220 l 1,4,-1
 467 1510 l 1,5,-1
 1501 1510 l 1,6,-1
 1499 1500 l 1,7,-1
 1301 1210 l 1,8,-1
 1012 1210 l 1,9,-1
 782 126 l 1,10,-1
 441 -20 l 1,0,-1
EndSplineSet
Validated: 1
EndChar

StartChar: U
Encoding: 85 85 55
Width: 1410
GlyphClass: 2
Flags: W
HStem: 0 300<545.942 1011.79> 1510 20G<728.605 785 1538.61 1595>
VStem: 208 329<135.5 518.461>
DStem2: 140.229 0 460.142 0 0.207912 0.978148<425.151 1413.86> 950.142 0 1270.23 0 0.207912 0.978148<309.967 1413.87>
LayerCount: 2
Fore
SplineSet
890 0 m 2,0,-1
 580 0 l 2,1,2
 208 0 208 0 208 271 c 0,3,4
 208 321 208 321 221 380 c 2,5,-1
 434 1383 l 1,6,-1
 775 1530 l 1,7,-1
 785 1530 l 1,8,-1
 539 371 l 2,9,10
 537 360 537 360 537 350 c 0,11,12
 537 300 537 300 604 300 c 2,13,-1
 934 300 l 2,14,15
 1014 300 1014 300 1029 371 c 2,16,-1
 1244 1383 l 1,17,-1
 1585 1530 l 1,18,-1
 1595 1530 l 1,19,-1
 1351 380 l 2,20,21
 1270 0 1270 0 890 0 c 2,0,-1
EndSplineSet
Validated: 19457
EndChar

StartChar: V
Encoding: 86 86 56
Width: 1361
GlyphClass: 2
Flags: W
HStem: -20 21G<544.578 604.508> 1510 20G<544.71 604.397 1380.57 1440.59>
DStem2: 601 1530 304 1406 0.168657 -0.985675<72.1326 1015.33> 771 529 851 106 0.52769 0.849437<0 1178.51>
LayerCount: 2
Fore
SplineSet
558 -20 m 1,0,-1
 548 -20 l 1,1,-1
 304 1406 l 1,2,-1
 591 1530 l 1,3,-1
 601 1530 l 1,4,-1
 771 529 l 1,5,-1
 1393 1530 l 1,6,-1
 1403 1530 l 1,7,-1
 1653 1397 l 1,8,-1
 851 106 l 1,9,-1
 558 -20 l 1,0,-1
EndSplineSet
Validated: 19457
EndChar

StartChar: W
Encoding: 87 87 57
Width: 2220
GlyphClass: 2
Flags: W
HStem: 0 300<545.942 1019.33 1348.05 1821.79> 1510 20G<728.605 785 1538.61 1595 2348.61 2405>
VStem: 208 329<135.5 518.461>
DStem2: 140.229 0 460.142 0 0.207912 0.978148<425.151 1413.86> 950.142 0 1270.14 0 0.207912 0.978148<425.169 1413.87> 1760.14 0 2080.23 0 0.207912 0.978148<309.967 1413.87>
LayerCount: 2
Fore
SplineSet
580 0 m 2,0,1
 208 0 208 0 208 271 c 0,2,3
 208 321 208 321 221 380 c 2,4,-1
 434 1383 l 1,5,-1
 775 1530 l 1,6,-1
 785 1530 l 1,7,-1
 539 371 l 2,8,9
 537 360 537 360 537 350 c 0,10,11
 537 300 537 300 604 300 c 2,12,-1
 934 300 l 2,13,14
 1014 300 1014 300 1029 371 c 2,15,-1
 1244 1383 l 1,16,-1
 1585 1530 l 1,17,-1
 1595 1530 l 1,18,-1
 1349 371 l 2,19,20
 1347 360 1347 360 1347 350 c 0,21,22
 1347 300 1347 300 1414 300 c 2,23,-1
 1744 300 l 2,24,25
 1824 300 1824 300 1839 371 c 2,26,-1
 2054 1383 l 1,27,-1
 2395 1530 l 1,28,-1
 2405 1530 l 1,29,-1
 2161 380 l 2,30,31
 2080 0 2080 0 1700 0 c 2,32,-1
 1390 0 l 2,33,34
 1236 0 1236 0 1151 54 c 1,35,36
 1044 0 1044 0 890 0 c 2,37,-1
 580 0 l 2,0,1
EndSplineSet
Validated: 19457
EndChar

StartChar: X
Encoding: 88 88 58
Width: 1254
GlyphClass: 2
Flags: W
HStem: -20 21G<232.92 298.722 973.618 1039.5> 1509 20G<535.898 601.4 1276.28 1341.48>
DStem2: 33 105 281 -20 0.662699 0.748886<70.7385 762.84 1210.72 1902.83> 592 1529 310 1411 0.42534 -0.905033<0 571.26 996.04 1568.2>
LayerCount: 2
Fore
SplineSet
281 -20 m 1,0,-1
 271 -20 l 1,1,-1
 33 105 l 1,2,-1
 615 763 l 1,3,-1
 310 1411 l 1,4,-1
 582 1529 l 1,5,-1
 592 1529 l 1,6,-1
 835 1012 l 1,7,-1
 1294 1530 l 1,8,-1
 1304 1530 l 1,9,-1
 1542 1403 l 1,10,-1
 960 746 l 1,11,-1
 1265 97 l 1,12,-1
 993 -20 l 1,13,-1
 983 -20 l 1,14,-1
 740 498 l 1,15,-1
 281 -20 l 1,0,-1
EndSplineSet
Validated: 19457
EndChar

StartChar: Y
Encoding: 89 89 59
Width: 1250
GlyphClass: 2
Flags: W
HStem: -20 21G<461 517.395> 1510 20G<668.605 725 1438.61 1495>
VStem: 236 329<554 941.109>
DStem2: 75.3413 -20 395.254 -20 0.207912 0.978148<871.914 1434.44> 845.254 -20 1165.34 -20 0.207912 0.978148<756.696 1434.45>
LayerCount: 2
Fore
SplineSet
471 -20 m 1,0,-1
 461 -20 l 1,1,-1
 554 417 l 1,2,3
 236 426 236 426 236 682 c 0,4,5
 236 734 236 734 249 797 c 2,6,-1
 374 1383 l 1,7,-1
 715 1530 l 1,8,-1
 725 1530 l 1,9,-1
 567 788 l 2,10,11
 565 777 565 777 565 767 c 0,12,13
 565 717 565 717 632 717 c 2,14,-1
 922 717 l 2,15,16
 1002 717 1002 717 1017 788 c 2,17,-1
 1144 1383 l 1,18,-1
 1485 1530 l 1,19,-1
 1495 1530 l 1,20,-1
 1339 797 l 2,21,22
 1258 417 1258 417 874 417 c 1,23,-1
 812 127 l 1,24,-1
 471 -20 l 1,0,-1
EndSplineSet
Validated: 19457
EndChar

StartChar: Z
Encoding: 90 90 60
Width: 1138
GlyphClass: 2
Flags: W
HStem: 0 300<585 992> 1210 300<498 874>
DStem2: 12 10 585 300 0.583413 0.812176<569.827 1477.51>
LayerCount: 2
Fore
SplineSet
10 0 m 1,0,-1
 12 10 l 1,1,-1
 874 1210 l 1,2,-1
 298 1210 l 1,3,-1
 300 1220 l 1,4,-1
 498 1510 l 1,5,-1
 1449 1510 l 1,6,-1
 1447 1500 l 1,7,-1
 585 300 l 1,8,-1
 1192 300 l 1,9,-1
 1190 290 l 1,10,-1
 992 0 l 1,11,-1
 10 0 l 1,0,-1
EndSplineSet
Validated: 19457
EndChar

StartChar: bracketleft
Encoding: 91 91 61
Width: 920
GlyphClass: 2
Flags: W
HStem: -240 300<493 723> 1450 300<800 1082>
DStem2: 109 -240 429.233 -240 0.207912 0.978148<373.282 1794.24>
LayerCount: 2
Fore
SplineSet
109 -240 m 1,0,-1
 505 1624 l 1,1,-1
 800 1750 l 1,2,-1
 1282 1750 l 1,3,-1
 1280 1740 l 1,4,-1
 1082 1450 l 1,5,-1
 788 1450 l 1,6,-1
 493 60 l 1,7,-1
 923 60 l 1,8,-1
 921 50 l 1,9,-1
 723 -240 l 1,10,-1
 109 -240 l 1,0,-1
EndSplineSet
Validated: 19457
EndChar

StartChar: backslash
Encoding: 92 92 62
Width: 1069
GlyphClass: 2
Flags: W
DStem2: 601 1710 351 1606 0.235692 -0.971828<42.147 1858.35>
LayerCount: 2
Fore
SplineSet
797 -200 m 1,0,-1
 787 -200 l 1,1,-1
 351 1606 l 1,2,-1
 591 1710 l 1,3,-1
 601 1710 l 1,4,-1
 1039 -96 l 1,5,-1
 797 -200 l 1,0,-1
EndSplineSet
Validated: 19457
EndChar

StartChar: bracketright
Encoding: 93 93 63
Width: 920
GlyphClass: 2
Flags: W
HStem: -240 300<159 441> 1450 300<518 748>
DStem2: 389.233 -240 709.218 -240 0.207912 0.978148<306.702 1727.66>
LayerCount: 2
Fore
SplineSet
441 -240 m 1,0,-1
 -41 -240 l 1,1,-1
 -39 -230 l 1,2,-1
 159 60 l 1,3,-1
 453 60 l 1,4,-1
 748 1450 l 1,5,-1
 318 1450 l 1,6,-1
 320 1460 l 1,7,-1
 518 1750 l 1,8,-1
 1132 1750 l 1,9,-1
 736 -114 l 1,10,-1
 441 -240 l 1,0,-1
EndSplineSet
Validated: 19457
EndChar

StartChar: asciicircum
Encoding: 94 94 64
Width: 1009
GlyphClass: 2
Flags: W
HStem: 1039 531
LayerCount: 2
Fore
SplineSet
538 1039 m 1,0,-1
 528 1039 l 1,1,-1
 279 1172 l 1,2,-1
 604 1442 l 1,3,-1
 900 1570 l 1,4,-1
 910 1570 l 1,5,-1
 1226 1160 l 1,6,-1
 947 1039 l 1,7,-1
 937 1039 l 1,8,-1
 778 1246 l 1,9,-1
 538 1039 l 1,0,-1
EndSplineSet
Validated: 19457
EndChar

StartChar: underscore
Encoding: 95 95 65
Width: 1404
GlyphClass: 2
Flags: W
HStem: -410 200<156 1116>
LayerCount: 2
Fore
SplineSet
23 -410 m 1,0,-1
 25 -400 l 1,1,-1
 156 -210 l 1,2,-1
 1249 -210 l 1,3,-1
 1247 -220 l 1,4,-1
 1116 -410 l 1,5,-1
 23 -410 l 1,0,-1
EndSplineSet
Validated: 19457
EndChar

StartChar: grave
Encoding: 96 96 66
Width: 405
GlyphClass: 2
Flags: W
HStem: 1160 410
VStem: 346 293
DStem2: 554 1570 346 1485 0.252301 -0.967649<29.7715 336.899>
LayerCount: 2
Fore
SplineSet
544 1570 m 1,0,-1
 554 1570 l 1,1,-1
 639 1244 l 1,2,-1
 444 1160 l 1,3,-1
 434 1160 l 1,4,-1
 346 1485 l 1,5,-1
 544 1570 l 1,0,-1
EndSplineSet
Validated: 19457
EndChar

StartChar: a
Encoding: 97 97 67
Width: 1095
GlyphClass: 2
Flags: W
HStem: -20 21G<651 707.232> 0 250<411.202 655.375> 469 251<449.703 753.987> 840 260<548 826.994>
VStem: 105 305<110 451.926> 827 307<718.141 990>
LayerCount: 2
Fore
SplineSet
421 0 m 2,0,1
 105 0 105 0 105 220 c 0,2,3
 105 260 105 260 116 308 c 2,4,-1
 139 412 l 2,5,6
 207 720 207 720 514 720 c 2,7,-1
 738 720 l 2,8,9
 787 720 787 720 807 713 c 1,10,-1
 826 805 l 2,11,12
 827 812 827 812 827 817 c 0,13,14
 827 840 827 840 804 840 c 2,15,-1
 374 840 l 1,16,-1
 376 850 l 1,17,-1
 548 1100 l 1,18,-1
 819 1100 l 2,19,20
 1134 1100 1134 1100 1134 880 c 0,21,22
 1134 842 1134 842 1124 796 c 2,23,-1
 980 118 l 1,24,-1
 661 -20 l 1,25,-1
 651 -20 l 1,26,-1
 656 7 l 1,27,28
 636 0 636 0 615 0 c 2,29,-1
 421 0 l 2,0,1
411 282 m 18,30,31
 410 277 410 277 410 273 c 0,32,33
 410 250 410 250 444 250 c 2,34,-1
 673 250 l 2,35,36
 713 250 713 250 720 282 c 2,37,-1
 753 437 l 2,38,39
 754 442 754 442 754 446 c 0,40,41
 754 469 754 469 720 469 c 2,42,-1
 491 469 l 2,43,44
 451 469 451 469 444 437 c 2,45,-1
 411 282 l 18,30,31
EndSplineSet
Validated: 19457
EndChar

StartChar: b
Encoding: 98 98 68
Width: 1210
GlyphClass: 2
Flags: W
HStem: 0 280<506.008 853.453> 820 280<673.656 957.992> 1510 20G<708.768 765>
VStem: 195 311<111 464.398> 958 311<632.156 989>
DStem2: 139.745 0 440.045 0 0.207912 0.978148<374.637 909.878 1180.96 1423.18> 790.045 0 1090.44 0 0.207912 0.978148<284.138 812.394>
LayerCount: 2
Fore
SplineSet
510 0 m 2,0,1
 195 0 195 0 195 222 c 0,2,3
 195 261 195 261 205 307 c 2,4,-1
 436 1392 l 1,5,-1
 755 1530 l 1,6,-1
 765 1530 l 1,7,-1
 673 1094 l 1,8,9
 694 1100 694 1100 714 1100 c 2,10,-1
 954 1100 l 2,11,12
 1269 1100 1269 1100 1269 878 c 0,13,14
 1269 839 1269 839 1259 793 c 2,15,-1
 1155 307 l 2,16,17
 1089 0 1089 0 780 0 c 2,18,-1
 510 0 l 2,0,1
540 280 m 2,19,-1
 810 280 l 2,20,21
 850 280 850 280 857 315 c 2,22,-1
 957 785 l 2,23,24
 958 790 958 790 958 795 c 0,25,26
 958 820 958 820 924 820 c 2,27,-1
 654 820 l 2,28,29
 614 820 614 820 607 785 c 2,30,-1
 507 315 l 2,31,32
 506 310 506 310 506 305 c 0,33,34
 506 280 506 280 540 280 c 2,19,-1
EndSplineSet
Validated: 19457
EndChar

StartChar: c
Encoding: 99 99 69
Width: 1070
GlyphClass: 2
Flags: W
HStem: 0 280<486.008 793.453> 820 280<590.547 897.992>
VStem: 175 311<111 467.844> 898 299<783.812 988>
DStem2: 119.745 0 420.045 0 0.207912 0.978148<374.637 902.892>
LayerCount: 2
Fore
SplineSet
720 0 m 2,0,-1
 490 0 l 2,1,2
 175 0 175 0 175 222 c 0,3,4
 175 261 175 261 185 307 c 2,5,-1
 289 793 l 2,6,7
 355 1100 355 1100 664 1100 c 2,8,-1
 894 1100 l 2,9,10
 1197 1100 1197 1100 1197 876 c 0,11,12
 1197 835 1197 835 1187 786 c 1,13,-1
 879 653 l 1,14,-1
 869 653 l 1,15,-1
 897 785 l 2,16,17
 898 790 898 790 898 795 c 0,18,19
 898 820 898 820 864 820 c 2,20,-1
 634 820 l 2,21,22
 594 820 594 820 587 785 c 2,23,-1
 487 315 l 2,24,25
 486 310 486 310 486 305 c 0,26,27
 486 280 486 280 520 280 c 2,28,-1
 750 280 l 2,29,30
 788 280 788 280 797 315 c 2,31,-1
 800 327 l 1,32,-1
 1119 465 l 1,33,-1
 1129 465 l 1,34,-1
 1095 307 l 2,35,36
 1029 0 1029 0 720 0 c 2,0,-1
EndSplineSet
Validated: 19457
EndChar

StartChar: d
Encoding: 100 100 70
Width: 1210
GlyphClass: 2
Flags: W
HStem: 0 280<486.008 833.672> 820 280<590.547 937.458> 1510 20G<1338.77 1395>
VStem: 175 311<111 467.844>
DStem2: 119.745 0 420.045 0 0.207912 0.978148<374.637 902.892> 770.143 0 1069.75 0 0.207912 0.978148<284.173 812.374 1114.5 1423.09>
LayerCount: 2
Fore
SplineSet
490 0 m 2,0,1
 175 0 175 0 175 222 c 0,2,3
 175 261 175 261 185 307 c 2,4,-1
 289 793 l 2,5,6
 355 1100 355 1100 664 1100 c 2,7,-1
 934 1100 l 2,8,9
 971 1100 971 1100 1003 1094 c 1,10,-1
 1066 1392 l 1,11,-1
 1385 1530 l 1,12,-1
 1395 1530 l 1,13,-1
 1135 307 l 2,14,15
 1070 0 1070 0 760 0 c 2,16,-1
 490 0 l 2,0,1
790 280 m 2,17,18
 830 280 830 280 837 315 c 2,19,-1
 937 785 l 2,20,21
 938 790 938 790 938 795 c 0,22,23
 938 820 938 820 904 820 c 2,24,-1
 634 820 l 2,25,26
 594 820 594 820 587 785 c 2,27,-1
 487 315 l 2,28,29
 486 310 486 310 486 305 c 0,30,31
 486 280 486 280 520 280 c 2,32,-1
 790 280 l 2,17,18
EndSplineSet
Validated: 19457
EndChar

StartChar: e
Encoding: 101 101 71
Width: 1150
GlyphClass: 2
Flags: W
HStem: 0 280<486.008 793.453> 820 280<590.547 897.992>
VStem: 175 311<111 355.789> 898 311<718.602 989.5>
DStem2: 543 577 495 352 0.918436 0.395571<0 371.335>
LayerCount: 2
Fore
SplineSet
490 0 m 2,0,1
 175 0 175 0 175 222 c 0,2,3
 175 261 175 261 185 307 c 2,4,-1
 289 793 l 2,5,6
 355 1100 355 1100 664 1100 c 2,7,-1
 894 1100 l 2,8,9
 1209 1100 1209 1100 1209 879 c 0,10,11
 1209 839 1209 839 1199 793 c 2,12,-1
 1166 641 l 1,13,-1
 495 352 l 1,14,-1
 487 315 l 2,15,16
 486 309 486 309 486 305 c 0,17,18
 486 280 486 280 520 280 c 2,19,-1
 750 280 l 2,20,21
 788 280 788 280 797 315 c 2,22,-1
 800 327 l 1,23,-1
 1119 465 l 1,24,-1
 1129 465 l 1,25,-1
 1095 307 l 2,26,27
 1029 0 1029 0 720 0 c 2,28,-1
 490 0 l 2,0,1
543 577 m 1,29,-1
 884 724 l 1,30,-1
 897 785 l 2,31,32
 898 790 898 790 898 795 c 0,33,34
 898 820 898 820 864 820 c 2,35,-1
 634 820 l 2,36,37
 594 820 594 820 587 785 c 2,38,-1
 543 577 l 1,29,-1
EndSplineSet
Validated: 19457
EndChar

StartChar: f
Encoding: 102 102 72
Width: 860
GlyphClass: 2
Flags: W
HStem: -20 21G<136 192.232> 662 280<640 823> 1230 280<697.328 982>
DStem2: 136 -20 435.667 -20 0.207912 0.978148<203.387 759.617 1045.77 1342.31>
LayerCount: 2
Fore
SplineSet
146 -20 m 1,0,-1
 136 -20 l 1,1,-1
 396 1203 l 2,2,3
 461 1510 461 1510 771 1510 c 2,4,-1
 1171 1510 l 1,5,-1
 1169 1500 l 1,6,-1
 982 1230 l 1,7,-1
 741 1230 l 2,8,9
 701 1230 701 1230 694 1195 c 2,10,-1
 640 942 l 1,11,-1
 1011 942 l 1,12,-1
 1009 932 l 1,13,-1
 823 662 l 1,14,-1
 581 662 l 1,15,-1
 465 118 l 1,16,-1
 146 -20 l 1,0,-1
EndSplineSet
Validated: 19457
EndChar

StartChar: g
Encoding: 103 103 73
Width: 1210
GlyphClass: 2
Flags: W
HStem: -410 250<341 737.882> 0 280<486.008 770.344> 820 280<590.547 937.992>
VStem: 175 311<111 467.844> 938 311<634.891 989>
DStem2: 32.5969 -410 332.896 -410 0.207912 0.978148<793.796 1322.05> 682.421 -410 982.745 -410 0.207912 0.978148<250.941 425.326 696.412 1231.65>
LayerCount: 2
Fore
SplineSet
490 0 m 2,0,1
 175 0 175 0 175 222 c 0,2,3
 175 261 175 261 185 307 c 2,4,-1
 289 793 l 2,5,6
 355 1100 355 1100 664 1100 c 2,7,-1
 934 1100 l 2,8,9
 1249 1100 1249 1100 1249 878 c 0,10,11
 1249 839 1249 839 1239 793 c 2,12,-1
 1048 -103 l 2,13,14
 983 -410 983 -410 673 -410 c 2,15,-1
 173 -410 l 1,16,-1
 175 -400 l 1,17,-1
 341 -160 l 1,18,-1
 696 -160 l 2,19,20
 736 -160 736 -160 743 -125 c 2,21,-1
 771 6 l 1,22,23
 750 0 750 0 730 0 c 2,24,-1
 490 0 l 2,0,1
937 785 m 2,25,26
 938 790 938 790 938 795 c 0,27,28
 938 820 938 820 904 820 c 2,29,-1
 634 820 l 2,30,31
 594 820 594 820 587 785 c 2,32,-1
 487 315 l 2,33,34
 486 310 486 310 486 305 c 0,35,36
 486 280 486 280 520 280 c 2,37,-1
 790 280 l 2,38,39
 830 280 830 280 837 315 c 2,40,-1
 937 785 l 2,25,26
EndSplineSet
Validated: 19457
EndChar

StartChar: h
Encoding: 104 104 74
Width: 1250
GlyphClass: 2
Flags: W
HStem: -20 21G<156 212.232 806 862.232> 820 280<692.564 977.992> 1510 20G<728.768 785>
VStem: 978 311<634.43 989>
DStem2: 156 -20 455.667 -20 0.207912 0.978148<203.387 930.219 1200.12 1443.52> 806 -20 1105.67 -20 0.207912 0.978148<203.387 832.798>
LayerCount: 2
Fore
SplineSet
166 -20 m 1,0,-1
 156 -20 l 1,1,-1
 456 1392 l 1,2,-1
 775 1530 l 1,3,-1
 785 1530 l 1,4,-1
 692 1093 l 1,5,6
 710 1100 710 1100 734 1100 c 2,7,-1
 974 1100 l 2,8,9
 1289 1100 1289 1100 1289 878 c 0,10,11
 1289 839 1289 839 1279 793 c 2,12,-1
 1135 118 l 1,13,-1
 816 -20 l 1,14,-1
 806 -20 l 1,15,-1
 977 785 l 2,16,17
 978 790 978 790 978 795 c 0,18,19
 978 820 978 820 944 820 c 2,20,-1
 674 820 l 2,21,22
 634 820 634 820 627 785 c 2,23,-1
 485 118 l 1,24,-1
 166 -20 l 1,0,-1
EndSplineSet
Validated: 19457
EndChar

StartChar: i
Encoding: 105 105 75
Width: 620
GlyphClass: 2
Flags: W
HStem: -20 21G<156 212.232> 1100 20G<641.768 698> 1179 365<511.097 687.323>
VStem: 156 628
DStem2: 156 -20 455.667 -20 0.207912 0.978148<203.387 1024.39>
LayerCount: 2
Fore
SplineSet
638 1544 m 0,0,1
 714 1544 714 1544 755 1491 c 0,2,3
 784 1453 784 1453 784 1402 c 0,4,5
 784 1383 784 1383 780 1362 c 0,6,7
 764 1287 764 1287 699.5 1233 c 128,-1,8
 635 1179 635 1179 561 1179 c 0,9,10
 485 1179 485 1179 445 1233 c 0,11,12
 415 1272 415 1272 415 1322 c 0,13,14
 415 1341 415 1341 419 1361 c 0,15,16
 435 1437 435 1437 499 1490 c 0,17,18
 563 1544 563 1544 638 1544 c 0,0,1
166 -20 m 1,19,-1
 156 -20 l 1,20,-1
 369 982 l 1,21,-1
 688 1120 l 1,22,-1
 698 1120 l 1,23,-1
 485 118 l 1,24,-1
 166 -20 l 1,19,-1
EndSplineSet
Validated: 19457
EndChar

StartChar: j
Encoding: 106 106 76
Width: 620
GlyphClass: 2
Flags: W
HStem: -410 21G<-162 218> 1100 20G<641.768 698> 1179 365<511.097 687.323>
DStem2: 73.1213 -410 372.745 -410 0.207912 0.978148<284.177 1423.1>
LayerCount: 2
Fore
SplineSet
638 1544 m 0,0,1
 714 1544 714 1544 755 1491 c 0,2,3
 784 1453 784 1453 784 1402 c 0,4,5
 784 1383 784 1383 780 1362 c 0,6,7
 764 1287 764 1287 699.5 1233 c 128,-1,8
 635 1179 635 1179 561 1179 c 0,9,10
 485 1179 485 1179 445 1233 c 0,11,12
 415 1272 415 1272 415 1322 c 0,13,14
 415 1341 415 1341 419 1361 c 0,15,16
 435 1437 435 1437 499 1490 c 0,17,18
 563 1544 563 1544 638 1544 c 0,0,1
688 1120 m 1,19,-1
 698 1120 l 1,20,-1
 438 -103 l 2,21,22
 373 -410 373 -410 63 -410 c 2,23,-1
 -162 -410 l 1,24,-1
 -160 -400 l 1,25,-1
 26 -130 l 1,26,-1
 92 -130 l 2,27,28
 133 -130 133 -130 140 -95 c 2,29,-1
 369 982 l 1,30,-1
 688 1120 l 1,19,-1
EndSplineSet
Validated: 19457
EndChar

StartChar: k
Encoding: 107 107 77
Width: 1210
GlyphClass: 2
Flags: W
HStem: -20 21G<156 212.232 786 842.232> 1100 20G<1020.46 1099.73> 1510 20G<728.768 785>
VStem: 898 308<338.688 669.5>
DStem2: 156 -20 455.667 -20 0.207912 0.978148<203.387 640.864 961.815 1443.52>
LayerCount: 2
Fore
SplineSet
166 -20 m 1,0,-1
 156 -20 l 1,1,-1
 456 1392 l 1,2,-1
 775 1530 l 1,3,-1
 785 1530 l 1,4,-1
 642 860 l 1,5,-1
 1052 1120 l 1,6,-1
 1062 1120 l 1,7,-1
 1311 988 l 1,8,-1
 988 791 l 1,9,10
 1206 756 1206 756 1206 583 c 0,11,12
 1206 549 1206 549 1198 510 c 2,13,-1
 1115 118 l 1,14,-1
 796 -20 l 1,15,-1
 786 -20 l 1,16,-1
 897 502 l 2,17,18
 898 507 898 507 898 512 c 0,19,20
 898 537 898 537 864 537 c 2,21,-1
 614 537 l 2,22,23
 574 537 574 537 567 502 c 2,24,-1
 485 118 l 1,25,-1
 166 -20 l 1,0,-1
EndSplineSet
Validated: 19457
EndChar

StartChar: l
Encoding: 108 108 78
Width: 620
GlyphClass: 2
Flags: W
HStem: -20 21G<156 212.232> 1510 20G<728.768 785>
VStem: 156 629
DStem2: 156 -20 455.667 -20 0.207912 0.978148<203.387 1443.52>
LayerCount: 2
Fore
SplineSet
166 -20 m 1,0,-1
 156 -20 l 1,1,-1
 456 1392 l 1,2,-1
 775 1530 l 1,3,-1
 785 1530 l 1,4,-1
 485 118 l 1,5,-1
 166 -20 l 1,0,-1
EndSplineSet
Validated: 19457
EndChar

StartChar: m
Encoding: 109 109 79
Width: 1880
GlyphClass: 2
Flags: W
HStem: -20 21G<136 192.232 786 842.232 1436 1492.23> 820 280<610.328 957.551 1257 1607.99>
VStem: 1608 311<634.43 989>
DStem2: 136 -20 435.667 -20 0.207912 0.978148<203.387 923.179> 786 -20 1085.67 -20 0.207912 0.978148<203.387 832.798> 1436 -20 1735.67 -20 0.207912 0.978148<203.387 832.798>
LayerCount: 2
Fore
SplineSet
146 -20 m 1,0,-1
 136 -20 l 1,1,-1
 309 793 l 2,2,3
 374 1100 374 1100 684 1100 c 2,4,-1
 954 1100 l 2,5,6
 1068 1100 1068 1100 1136 1065 c 1,7,8
 1219 1100 1219 1100 1334 1100 c 2,9,-1
 1604 1100 l 2,10,11
 1919 1100 1919 1100 1919 878 c 0,12,13
 1919 839 1919 839 1909 793 c 2,14,-1
 1765 118 l 1,15,-1
 1446 -20 l 1,16,-1
 1436 -20 l 1,17,-1
 1607 785 l 2,18,19
 1608 790 1608 790 1608 795 c 0,20,21
 1608 820 1608 820 1574 820 c 2,22,-1
 1304 820 l 2,23,24
 1264 820 1264 820 1257 785 c 2,25,-1
 1115 118 l 1,26,-1
 796 -20 l 1,27,-1
 786 -20 l 1,28,-1
 957 785 l 2,29,30
 958 790 958 790 958 795 c 0,31,32
 958 820 958 820 924 820 c 2,33,-1
 654 820 l 2,34,35
 614 820 614 820 607 785 c 2,36,-1
 465 118 l 1,37,-1
 146 -20 l 1,0,-1
EndSplineSet
Validated: 19457
EndChar

StartChar: n
Encoding: 110 110 80
Width: 1230
GlyphClass: 2
Flags: W
HStem: -20 21G<136 192.232 786 842.232> 820 280<610.328 957.992>
VStem: 958 311<634.43 989>
DStem2: 136 -20 435.667 -20 0.207912 0.978148<203.387 923.179> 786 -20 1085.67 -20 0.207912 0.978148<203.387 832.798>
LayerCount: 2
Fore
SplineSet
146 -20 m 1,0,-1
 136 -20 l 1,1,-1
 309 793 l 2,2,3
 374 1100 374 1100 684 1100 c 2,4,-1
 954 1100 l 2,5,6
 1269 1100 1269 1100 1269 878 c 0,7,8
 1269 839 1269 839 1259 793 c 2,9,-1
 1115 118 l 1,10,-1
 796 -20 l 1,11,-1
 786 -20 l 1,12,-1
 957 785 l 2,13,14
 958 790 958 790 958 795 c 0,15,16
 958 820 958 820 924 820 c 2,17,-1
 654 820 l 2,18,19
 614 820 614 820 607 785 c 2,20,-1
 465 118 l 1,21,-1
 146 -20 l 1,0,-1
EndSplineSet
Validated: 19457
EndChar

StartChar: o
Encoding: 111 111 81
Width: 1190
GlyphClass: 2
Flags: W
HStem: 0 280<486.008 833.453> 820 280<590.547 937.992>
VStem: 175 311<111 467.844> 938 311<632.156 989>
DStem2: 119.745 0 420.045 0 0.207912 0.978148<374.606 902.892> 770.045 0 1070.44 0 0.207912 0.978148<284.138 812.424>
LayerCount: 2
Fore
SplineSet
790 280 m 2,0,1
 830 280 830 280 837 315 c 2,2,-1
 937 785 l 2,3,4
 938 791 938 791 938 795 c 0,5,6
 938 820 938 820 904 820 c 2,7,-1
 634 820 l 2,8,9
 594 820 594 820 587 785 c 2,10,-1
 487 315 l 2,11,12
 486 309 486 309 486 305 c 0,13,14
 486 280 486 280 520 280 c 2,15,-1
 790 280 l 2,0,1
760 0 m 2,16,-1
 490 0 l 2,17,18
 175 0 175 0 175 222 c 0,19,20
 175 261 175 261 185 307 c 2,21,-1
 289 793 l 2,22,23
 355 1100 355 1100 664 1100 c 2,24,-1
 934 1100 l 2,25,26
 1249 1100 1249 1100 1249 878 c 0,27,28
 1249 839 1249 839 1239 793 c 2,29,-1
 1135 307 l 2,30,31
 1069 0 1069 0 760 0 c 2,16,-1
EndSplineSet
Validated: 19457
EndChar

StartChar: p
Encoding: 112 112 82
Width: 1210
GlyphClass: 2
Flags: W
HStem: -430 21G<49 105.232> 0 280<506.905 853.453> 820 280<610.328 957.992>
VStem: 958 311<632.156 989>
DStem2: 49 -430 348.667 -430 0.207912 0.978148<203.387 511.797 814.107 1342.31> 698.645 -430 999.043 -430 0.207912 0.978148<723.745 1252>
LayerCount: 2
Fore
SplineSet
780 0 m 2,0,-1
 510 0 l 2,1,2
 460 0 460 0 441 6 c 1,3,-1
 378 -292 l 1,4,-1
 59 -430 l 1,5,-1
 49 -430 l 1,6,-1
 309 793 l 2,7,8
 374 1100 374 1100 684 1100 c 2,9,-1
 954 1100 l 2,10,11
 1269 1100 1269 1100 1269 878 c 0,12,13
 1269 839 1269 839 1259 793 c 2,14,-1
 1155 307 l 2,15,16
 1089 0 1089 0 780 0 c 2,0,-1
654 820 m 2,17,18
 614 820 614 820 607 785 c 2,19,-1
 507 315 l 2,20,21
 506 310 506 310 506 305 c 0,22,23
 506 280 506 280 540 280 c 2,24,-1
 810 280 l 2,25,26
 850 280 850 280 857 315 c 2,27,-1
 957 785 l 2,28,29
 958 790 958 790 958 795 c 0,30,31
 958 820 958 820 924 820 c 2,32,-1
 654 820 l 2,17,18
EndSplineSet
Validated: 19457
EndChar

StartChar: q
Encoding: 113 113 83
Width: 1210
GlyphClass: 2
Flags: W
HStem: -430 21G<679 735.232> 0 280<486.008 770.344> 820 280<590.547 937.992>
VStem: 175 311<111 467.844> 938 311<635.602 989>
DStem2: 28.3458 -430 328.645 -430 0.207912 0.978148<814.243 1342.5> 679 -430 978.667 -430 0.207912 0.978148<203.387 445.6 716.686 1251.93>
LayerCount: 2
Fore
SplineSet
490 0 m 2,0,1
 175 0 175 0 175 222 c 0,2,3
 175 261 175 261 185 307 c 2,4,-1
 289 793 l 2,5,6
 355 1100 355 1100 664 1100 c 2,7,-1
 934 1100 l 2,8,9
 1249 1100 1249 1100 1249 878 c 0,10,11
 1249 839 1249 839 1239 793 c 2,12,-1
 1008 -292 l 1,13,-1
 689 -430 l 1,14,-1
 679 -430 l 1,15,-1
 771 6 l 1,16,17
 750 0 750 0 730 0 c 2,18,-1
 490 0 l 2,0,1
904 820 m 2,19,-1
 634 820 l 2,20,21
 594 820 594 820 587 785 c 2,22,-1
 487 315 l 2,23,24
 486 310 486 310 486 305 c 0,25,26
 486 280 486 280 520 280 c 2,27,-1
 790 280 l 2,28,29
 830 280 830 280 837 315 c 2,30,-1
 937 785 l 2,31,32
 938 790 938 790 938 795 c 0,33,34
 938 820 938 820 904 820 c 2,19,-1
EndSplineSet
Validated: 19457
EndChar

StartChar: r
Encoding: 114 114 84
Width: 860
GlyphClass: 2
Flags: W
HStem: -20 21G<136 192.232> 820 280<610.328 895>
DStem2: 136 -20 435.667 -20 0.207912 0.978148<203.387 923.179>
LayerCount: 2
Fore
SplineSet
146 -20 m 1,0,-1
 136 -20 l 1,1,-1
 309 793 l 2,2,3
 374 1100 374 1100 684 1100 c 2,4,-1
 1084 1100 l 1,5,-1
 1082 1090 l 1,6,-1
 895 820 l 1,7,-1
 654 820 l 2,8,9
 614 820 614 820 607 785 c 2,10,-1
 465 118 l 1,11,-1
 146 -20 l 1,0,-1
EndSplineSet
Validated: 19457
EndChar

StartChar: t
Encoding: 116 116 85
Width: 890
GlyphClass: 2
Flags: W
HStem: -20 21G<296 352.316> 820 280<373 474 824 925> 1510 20G<858.684 915>
DStem2: 296 -20 585.73 -20 0.207912 0.978148<196.21 858.652 1205.3 1448.62>
LayerCount: 2
Fore
SplineSet
306 -20 m 1,0,-1
 296 -20 l 1,1,-1
 474 820 l 1,2,-1
 184 820 l 1,3,-1
 186 830 l 1,4,-1
 373 1100 l 1,5,-1
 534 1100 l 1,6,-1
 597 1397 l 1,7,-1
 905 1530 l 1,8,-1
 915 1530 l 1,9,-1
 824 1100 l 1,10,-1
 1114 1100 l 1,11,-1
 1112 1090 l 1,12,-1
 925 820 l 1,13,-1
 764 820 l 1,14,-1
 614 113 l 1,15,-1
 306 -20 l 1,0,-1
EndSplineSet
Validated: 1
EndChar

StartChar: u
Encoding: 117 117 86
Width: 1230
GlyphClass: 2
Flags: W
HStem: 0 280<506.008 853.672> 1100 20G<621.768 678 1271.77 1328>
VStem: 195 311<111 465.57>
DStem2: 139.745 0 440.045 0 0.207912 0.978148<374.637 1004.05> 790.269 0 1089.75 0 0.207912 0.978148<284.147 1003.94>
LayerCount: 2
Fore
SplineSet
510 0 m 2,0,1
 195 0 195 0 195 222 c 0,2,3
 195 261 195 261 205 307 c 2,4,-1
 349 982 l 1,5,-1
 668 1120 l 1,6,-1
 678 1120 l 1,7,-1
 507 315 l 2,8,9
 506 310 506 310 506 305 c 0,10,11
 506 280 506 280 540 280 c 2,12,-1
 810 280 l 2,13,14
 850 280 850 280 857 315 c 2,15,-1
 999 982 l 1,16,-1
 1318 1120 l 1,17,-1
 1328 1120 l 1,18,-1
 1155 307 l 2,19,20
 1090 0 1090 0 780 0 c 2,21,-1
 510 0 l 2,0,1
EndSplineSet
Validated: 19457
EndChar

StartChar: v
Encoding: 118 118 87
Width: 1084
GlyphClass: 2
Flags: W
HStem: -20 21G<408.207 468.25> 1100 20G<441.846 501.324 1029.46 1091.18>
DStem2: 498 1120 218 1003 0.186318 -0.98249<62.7823 695.228> 612 434 718 108 0.54133 0.84081<0 809.568>
LayerCount: 2
Fore
SplineSet
422 -20 m 1,0,-1
 412 -20 l 1,1,-1
 218 1003 l 1,2,-1
 488 1120 l 1,3,-1
 498 1120 l 1,4,-1
 612 434 l 1,5,-1
 1042 1120 l 1,6,-1
 1052 1120 l 1,7,-1
 1291 998 l 1,8,-1
 718 108 l 1,9,-1
 422 -20 l 1,0,-1
EndSplineSet
Validated: 19457
EndChar

StartChar: w
Encoding: 119 119 88
Width: 1880
GlyphClass: 2
Flags: W
HStem: 0 280<506.008 856.999 1156.45 1503.67> 1100 20G<621.768 678 1271.77 1328 1921.77 1978>
VStem: 195 311<111 465.57>
DStem2: 139.745 0 440.045 0 0.207912 0.978148<374.637 1004.05> 790.045 0 1090.04 0 0.207912 0.978148<374.574 1003.99> 1440.27 0 1739.75 0 0.207912 0.978148<284.147 1003.94>
LayerCount: 2
Fore
SplineSet
510 0 m 2,0,1
 195 0 195 0 195 222 c 0,2,3
 195 261 195 261 205 307 c 2,4,-1
 349 982 l 1,5,-1
 668 1120 l 1,6,-1
 678 1120 l 1,7,-1
 507 315 l 2,8,9
 506 310 506 310 506 305 c 0,10,11
 506 280 506 280 540 280 c 2,12,-1
 810 280 l 2,13,14
 850 280 850 280 857 315 c 2,15,-1
 999 982 l 1,16,-1
 1318 1120 l 1,17,-1
 1328 1120 l 1,18,-1
 1157 315 l 2,19,20
 1156 310 1156 310 1156 305 c 0,21,22
 1156 280 1156 280 1190 280 c 2,23,-1
 1460 280 l 2,24,25
 1500 280 1500 280 1507 315 c 2,26,-1
 1649 982 l 1,27,-1
 1968 1120 l 1,28,-1
 1978 1120 l 1,29,-1
 1805 307 l 2,30,31
 1740 0 1740 0 1430 0 c 2,32,-1
 1160 0 l 2,33,34
 1046 0 1046 0 977 35 c 1,35,36
 894 0 894 0 780 0 c 2,37,-1
 510 0 l 2,0,1
EndSplineSet
Validated: 19457
EndChar

StartChar: x
Encoding: 120 120 89
Width: 985
GlyphClass: 2
Flags: W
HStem: -20 21G<212.069 278.16 722.148 788.667> 1100 20G<430.761 496.822 940.893 1006.44>
DStem2: 30 96 260 -20 0.671916 0.740627<68.6281 523.826 926.674 1382.61> 487 1120 225 1011 0.440941 -0.897536<0 376.563 755.556 1131.22>
LayerCount: 2
Fore
SplineSet
260 -20 m 1,0,-1
 250 -20 l 1,1,-1
 30 96 l 1,2,-1
 448 557 l 1,3,-1
 225 1011 l 1,4,-1
 477 1120 l 1,5,-1
 487 1120 l 1,6,-1
 653 782 l 1,7,-1
 959 1120 l 1,8,-1
 969 1120 l 1,9,-1
 1188 1003 l 1,10,-1
 771 543 l 1,11,-1
 994 88 l 1,12,-1
 742 -20 l 1,13,-1
 732 -20 l 1,14,-1
 566 317 l 1,15,-1
 260 -20 l 1,0,-1
EndSplineSet
Validated: 19457
EndChar

StartChar: y
Encoding: 121 121 90
Width: 1250
GlyphClass: 2
Flags: W
HStem: -410 250<361 757.882> 0 280<506.008 790.344> 1100 20G<621.768 678 1271.77 1328>
VStem: 195 311<111 465.57>
DStem2: 52.5969 -410 352.896 -410 0.207912 0.978148<793.796 1423.21> 702.421 -410 1002.75 -410 0.207912 0.978148<250.941 425.326 696.412 1423.24>
LayerCount: 2
Fore
SplineSet
510 0 m 2,0,1
 195 0 195 0 195 222 c 0,2,3
 195 261 195 261 205 307 c 2,4,-1
 349 982 l 1,5,-1
 668 1120 l 1,6,-1
 678 1120 l 1,7,-1
 507 315 l 2,8,9
 506 310 506 310 506 305 c 0,10,11
 506 280 506 280 540 280 c 2,12,-1
 810 280 l 2,13,14
 850 280 850 280 857 315 c 2,15,-1
 999 982 l 1,16,-1
 1318 1120 l 1,17,-1
 1328 1120 l 1,18,-1
 1068 -103 l 2,19,20
 1003 -410 1003 -410 693 -410 c 2,21,-1
 193 -410 l 1,22,-1
 195 -400 l 1,23,-1
 361 -160 l 1,24,-1
 716 -160 l 2,25,26
 756 -160 756 -160 763 -125 c 2,27,-1
 791 6 l 1,28,29
 770 0 770 0 750 0 c 2,30,-1
 510 0 l 2,0,1
EndSplineSet
Validated: 19457
EndChar

StartChar: z
Encoding: 122 122 91
Width: 975
GlyphClass: 2
Flags: W
HStem: 0 280<561 835> 820 280<405 647>
DStem2: 647 820 561 280 0.616963 0.786992<-478.035 0>
LayerCount: 2
Fore
SplineSet
10 0 m 1,0,-1
 12 10 l 1,1,-1
 647 820 l 1,2,-1
 216 820 l 1,3,-1
 218 830 l 1,4,-1
 405 1100 l 1,5,-1
 1198 1100 l 1,6,-1
 1196 1090 l 1,7,-1
 561 280 l 1,8,-1
 1024 280 l 1,9,-1
 1021 270 l 1,10,-1
 835 0 l 1,11,-1
 10 0 l 1,0,-1
EndSplineSet
Validated: 19457
EndChar

StartChar: braceleft
Encoding: 123 123 92
Width: 830
GlyphClass: 2
Flags: W
HStem: -240 300<588.942 749> 1450 300<864.208 1108>
VStem: 251 329<-104.5 288.5>
DStem2: 183.229 -240 503.142 -240 0.207912 0.978148<425.151 879.207 1155.16 1790.95>
LayerCount: 2
Fore
SplineSet
749 -240 m 1,0,-1
 623 -240 l 2,1,2
 251 -240 251 -240 251 31 c 0,3,4
 251 81 251 81 264 140 c 2,5,-1
 366 620 l 1,6,-1
 142 620 l 1,7,-1
 144 630 l 1,8,-1
 324 890 l 1,9,-1
 423 890 l 1,10,-1
 525 1370 l 2,11,12
 606 1750 606 1750 986 1750 c 2,13,-1
 1172 1750 l 1,14,-1
 1108 1450 l 1,15,-1
 942 1450 l 2,16,17
 862 1450 862 1450 847 1379 c 2,18,-1
 582 131 l 2,19,20
 580 120 580 120 580 110 c 0,21,22
 580 60 580 60 647 60 c 2,23,-1
 813 60 l 1,24,-1
 749 -240 l 1,0,-1
EndSplineSet
Validated: 19457
EndChar

StartChar: bar
Encoding: 124 124 93
Width: 690
GlyphClass: 2
Flags: W
VStem: 167 676
DStem2: 167 -200 437.643 -200 0.207912 0.978148<183.04 1825.98>
LayerCount: 2
Fore
SplineSet
167 -200 m 1,0,-1
 547 1586 l 1,1,-1
 833 1710 l 1,2,-1
 843 1710 l 1,3,-1
 464 -76 l 1,4,-1
 177 -200 l 1,5,-1
 167 -200 l 1,0,-1
EndSplineSet
Validated: 19457
EndChar

StartChar: braceright
Encoding: 125 125 94
Width: 830
GlyphClass: 2
Flags: W
HStem: -240 300<43 286.792> 1450 300<402 562.058>
VStem: 571 329<1221.5 1614.5>
DStem2: -21 -240 545.229 -240 0.207912 0.978148<117.678 1727.71 1763.6 1871.39> 225.142 -240 545.229 -240 0.207912 0.978148<309.967 945.757 1221.71 1675.76>
LayerCount: 2
Fore
SplineSet
-21 -240 m 1,0,-1
 43 60 l 1,1,-1
 209 60 l 2,2,3
 289 60 289 60 304 131 c 2,4,-1
 569 1379 l 2,5,6
 571 1390 571 1390 571 1400 c 0,7,8
 571 1450 571 1450 504 1450 c 2,9,-1
 338 1450 l 1,10,-1
 402 1750 l 1,11,-1
 528 1750 l 2,12,13
 900 1750 900 1750 900 1479 c 0,14,15
 900 1429 900 1429 887 1370 c 2,16,-1
 785 890 l 1,17,-1
 1009 890 l 1,18,-1
 1007 880 l 1,19,-1
 827 620 l 1,20,-1
 728 620 l 1,21,-1
 626 140 l 2,22,23
 545 -240 545 -240 165 -240 c 2,24,-1
 -21 -240 l 1,0,-1
EndSplineSet
Validated: 19457
EndChar

StartChar: asciitilde
Encoding: 126 126 95
Width: 1178
GlyphClass: 2
Flags: W
HStem: 515 482<742.748 756.534>
LayerCount: 2
Fore
SplineSet
1270 997 m 1,0,-1
 1280 997 l 1,1,2
 1178 515 1178 515 891 515 c 0,3,4
 735 515 735 515 641 666 c 0,5,6
 614 709 614 709 607 718 c 0,7,8
 598 729 598 729 586 729 c 0,9,10
 553 729 553 729 534 647 c 1,11,-1
 229 515 l 1,12,-1
 219 515 l 1,13,14
 321 997 321 997 608 997 c 0,15,16
 764 997 764 997 859 846 c 0,17,18
 886 803 886 803 893 794 c 0,19,20
 902 783 902 783 913 783 c 0,21,22
 946 783 946 783 965 865 c 1,23,-1
 1270 997 l 1,0,-1
EndSplineSet
Validated: 19457
EndChar

StartChar: exclamdown
Encoding: 161 161 97
Width: 640
GlyphClass: 2
Flags: W
HStem: -430 21G<69 125.395> 755 365<431.097 607.323>
VStem: 69 635
DStem2: 69 -430 388.754 -430 0.207912 0.978148<216.765 1010.07>
LayerCount: 2
Fore
SplineSet
558 1120 m 0,0,1
 634 1120 634 1120 675 1067 c 0,2,3
 704 1029 704 1029 704 978 c 0,4,5
 704 959 704 959 700 938 c 0,6,7
 684 863 684 863 619.5 809 c 128,-1,8
 555 755 555 755 481 755 c 0,9,10
 405 755 405 755 365 809 c 0,11,12
 335 848 335 848 335 898 c 0,13,14
 335 917 335 917 339 937 c 0,15,16
 355 1013 355 1013 419 1066 c 0,17,18
 483 1120 483 1120 558 1120 c 0,0,1
79 -430 m 1,19,-1
 69 -430 l 1,20,-1
 279 558 l 1,21,-1
 620 705 l 1,22,-1
 630 705 l 1,23,-1
 420 -283 l 1,24,-1
 79 -430 l 1,19,-1
EndSplineSet
Validated: 19457
EndChar

StartChar: cent
Encoding: 162 162 98
Width: 1070
GlyphClass: 2
Flags: W
HStem: 0 280<486.008 515 694 793.453> 820 280<590.547 689 868 897.992>
VStem: 175 311<111 467.844> 898 299<783.812 988>
DStem2: 94.2383 -120 394.538 -120 0.207912 0.978148<497.317 1025.57> 489 -120 609.16 -120 0.207912 0.978148<77.122 122.783 433.881 961.041 1272.14 1317.8>
LayerCount: 2
Fore
SplineSet
720 0 m 2,0,-1
 635 0 l 1,1,-1
 620 -69 l 1,2,-1
 499 -120 l 1,3,-1
 489 -120 l 1,4,-1
 515 0 l 1,5,-1
 490 0 l 2,6,7
 175 0 175 0 175 222 c 0,8,9
 175 261 175 261 185 307 c 2,10,-1
 289 793 l 2,11,12
 355 1100 355 1100 664 1100 c 2,13,-1
 748 1100 l 1,14,-1
 763 1169 l 1,15,-1
 884 1220 l 1,16,-1
 894 1220 l 1,17,-1
 868 1100 l 1,18,-1
 894 1100 l 2,19,20
 1197 1100 1197 1100 1197 876 c 0,21,22
 1197 835 1197 835 1187 786 c 1,23,-1
 879 653 l 1,24,-1
 869 653 l 1,25,-1
 897 785 l 2,26,27
 898 790 898 790 898 795 c 0,28,29
 898 820 898 820 864 820 c 2,30,-1
 809 820 l 1,31,-1
 694 280 l 1,32,-1
 750 280 l 2,33,34
 788 280 788 280 797 315 c 2,35,-1
 800 327 l 1,36,-1
 1119 465 l 1,37,-1
 1129 465 l 1,38,-1
 1095 307 l 2,39,40
 1029 0 1029 0 720 0 c 2,0,-1
574 280 m 1,41,-1
 689 820 l 1,42,-1
 634 820 l 2,43,44
 594 820 594 820 587 785 c 2,45,-1
 487 315 l 2,46,47
 486 310 486 310 486 305 c 0,48,49
 486 280 486 280 520 280 c 2,50,-1
 574 280 l 1,41,-1
EndSplineSet
Validated: 19457
EndChar

StartChar: sterling
Encoding: 163 163 99
Width: 1375
GlyphClass: 2
Flags: W
HStem: 0 300<310 324 644 1129> 550 300<761 976> 1210 300<838.923 1118.06>
DStem2: 260.233 0 580.233 0 0.207912 0.978148<373.234 562.258 935.541 1300.16>
LayerCount: 2
Fore
SplineSet
110 0 m 1,0,-1
 112 10 l 1,1,-1
 310 300 l 1,2,-1
 324 300 l 1,3,-1
 377 550 l 1,4,-1
 228 550 l 1,5,-1
 230 560 l 1,6,-1
 428 850 l 1,7,-1
 441 850 l 1,8,-1
 500 1130 l 2,9,10
 580 1510 580 1510 961 1510 c 2,11,-1
 1084 1510 l 2,12,13
 1456 1510 1456 1510 1456 1273 c 0,14,15
 1456 1237 1456 1237 1447 1195 c 1,16,-1
 1117 1052 l 1,17,-1
 1107 1052 l 1,18,-1
 1125 1139 l 2,19,20
 1127 1150 1127 1150 1127 1160 c 0,21,22
 1127 1210 1127 1210 1060 1210 c 2,23,-1
 917 1210 l 2,24,25
 837 1210 837 1210 822 1139 c 2,26,-1
 761 850 l 1,27,-1
 1176 850 l 1,28,-1
 1174 840 l 1,29,-1
 976 550 l 1,30,-1
 697 550 l 1,31,-1
 644 300 l 1,32,-1
 1329 300 l 1,33,-1
 1327 290 l 1,34,-1
 1129 0 l 1,35,-1
 110 0 l 1,0,-1
EndSplineSet
Validated: 19457
EndChar

StartChar: currency
Encoding: 164 164 100
Width: 1535
GlyphClass: 2
Flags: W
HStem: 180 300<638.758 1118.84> 1029 300<736.673 1216.76>
VStem: 313 325<481.912 723.406> 1219 324<779.375 1027.12>
DStem2: 241.229 180 561.142 180 0.207912 0.978148<425.151 938.291> 1051.14 180 1371.23 180 0.207912 0.978148<305.964 816.134>
LayerCount: 2
Fore
SplineSet
705 480 m 2,0,-1
 1035 480 l 2,1,2
 1115 480 1115 480 1130 551 c 2,3,-1
 1217 958 l 2,4,5
 1219 969 1219 969 1219 979 c 0,6,7
 1219 1029 1219 1029 1152 1029 c 2,8,-1
 822 1029 l 2,9,10
 742 1029 742 1029 727 958 c 2,11,-1
 640 551 l 2,12,13
 638 540 638 540 638 530 c 0,14,15
 638 480 638 480 705 480 c 2,0,-1
895 1329 m 2,16,-1
 1205 1329 l 2,17,18
 1300 1329 1300 1329 1365 1299 c 1,19,-1
 1394 1323 l 1,20,-1
 1676 1215 l 1,21,-1
 1682 1208 l 1,22,-1
 1537 1089 l 1,23,24
 1543 1058 1543 1058 1543 1026 c 0,25,26
 1543 989 1543 989 1535 949 c 2,27,-1
 1452 560 l 2,28,29
 1435 480 1435 480 1402 416 c 1,30,-1
 1490 305 l 1,31,-1
 1481 298 l 1,32,-1
 1152 190 l 1,33,-1
 1142 203 l 1,34,35
 1061 180 1061 180 961 180 c 2,36,-1
 651 180 l 2,37,38
 552 180 552 180 487 213 c 1,39,-1
 464 192 l 1,40,-1
 181 300 l 1,41,-1
 175 307 l 1,42,-1
 320 426 l 1,43,44
 313 453 313 453 313 484 c 0,45,46
 313 519 313 519 322 560 c 2,47,-1
 405 949 l 2,48,49
 423 1033 423 1033 455 1096 c 1,50,-1
 367 1209 l 1,51,-1
 375 1216 l 1,52,-1
 702 1323 l 1,53,-1
 716 1307 l 1,54,55
 795 1329 795 1329 895 1329 c 2,16,-1
EndSplineSet
Validated: 19457
EndChar

StartChar: yen
Encoding: 165 165 101
Width: 1250
GlyphClass: 2
Flags: W
HStem: -20 21G<461 517.316> 94 140<311 485 835 1009> 294 140<353 455 1009 1051> 1510 20G<668.605 725 1438.61 1495>
VStem: 237 328<588.5 946.906>
DStem2: 75.3413 -20 395.254 -20 0.207912 0.978148<871.914 1434.44> 845.254 -20 1165.34 -20 0.207912 0.978148<751.909 1434.45>
LayerCount: 2
Fore
SplineSet
471 -20 m 1,0,-1
 461 -20 l 1,1,-1
 485 94 l 1,2,-1
 220 94 l 1,3,-1
 222 104 l 1,4,-1
 311 234 l 1,5,-1
 515 234 l 1,6,-1
 527 294 l 1,7,-1
 262 294 l 1,8,-1
 265 304 l 1,9,-1
 353 434 l 1,10,-1
 455 434 l 1,11,12
 237 486 237 486 237 691 c 0,13,14
 237 740 237 740 249 797 c 2,15,-1
 374 1383 l 1,16,-1
 715 1530 l 1,17,-1
 725 1530 l 1,18,-1
 567 788 l 2,19,20
 565 777 565 777 565 767 c 0,21,22
 565 717 565 717 632 717 c 2,23,-1
 922 717 l 2,24,25
 1002 717 1002 717 1017 788 c 2,26,-1
 1144 1383 l 1,27,-1
 1485 1530 l 1,28,-1
 1495 1530 l 1,29,-1
 1339 797 l 2,30,31
 1271 475 1271 475 1009 434 c 1,32,-1
 1142 434 l 1,33,-1
 1140 424 l 1,34,-1
 1051 294 l 1,35,-1
 847 294 l 1,36,-1
 835 234 l 1,37,-1
 1100 234 l 1,38,-1
 1098 224 l 1,39,-1
 1009 94 l 1,40,-1
 735 94 l 1,41,-1
 471 -20 l 1,0,-1
EndSplineSet
Validated: 19457
EndChar

StartChar: brokenbar
Encoding: 166 166 102
Width: 690
GlyphClass: 2
Flags: W
VStem: 167 676
DStem2: 167 -200 437.643 -200 0.207912 0.978148<183.04 806.688 1194.09 1825.98>
LayerCount: 2
Fore
SplineSet
167 -200 m 1,0,-1
 335 589 l 1,1,-1
 622 713 l 1,2,-1
 632 713 l 1,3,-1
 464 -76 l 1,4,-1
 177 -200 l 1,5,-1
 167 -200 l 1,0,-1
833 1710 m 1,6,-1
 843 1710 l 1,7,-1
 674 913 l 1,8,-1
 388 789 l 1,9,-1
 378 789 l 1,10,-1
 547 1586 l 1,11,-1
 833 1710 l 1,6,-1
EndSplineSet
Validated: 19457
EndChar

StartChar: section
Encoding: 167 167 103
Width: 1089
GlyphClass: 2
Flags: W
HStem: 0 250<494.009 718.733> 406 251<550.066 742.991> 853 251<667.009 859.934> 1260 250<691.267 915.991>
VStem: 246 299<507.5 790.541> 391 276<956 1239.29> 743 276<270.706 554> 865 299<719.459 1002.5>
LayerCount: 2
Fore
SplineSet
494 0 m 2,0,1
 227 0 227 0 227 206 c 0,2,3
 227 223 227 223 229 242 c 1,4,-1
 503 360 l 1,5,-1
 513 360 l 1,6,-1
 495 276 l 2,7,8
 494 271 494 271 494 270 c 0,9,10
 494 250 494 250 529 250 c 2,11,-1
 675 250 l 2,12,13
 715 250 715 250 721 279 c 2,14,-1
 742 376 l 2,15,16
 743 381 743 381 743 383 c 0,17,18
 743 406 743 406 708 406 c 2,19,-1
 570 406 l 2,20,21
 246 406 246 406 246 609 c 0,22,23
 246 641 246 641 254 678 c 2,24,-1
 278 789 l 2,25,26
 290 845 290 845 309 887 c 1,27,-1
 565 778 l 1,28,-1
 546 689 l 2,29,30
 545 684 545 684 545 680 c 0,31,32
 545 657 545 657 580 657 c 2,33,-1
 742 657 l 2,34,35
 1019 657 1019 657 1019 451 c 0,36,37
 1019 412 1019 412 1010 369 c 2,38,-1
 991 278 l 2,39,40
 933 0 933 0 662 0 c 2,41,-1
 494 0 l 2,0,1
916 1510 m 2,42,43
 1183 1510 1183 1510 1183 1304 c 0,44,45
 1183 1287 1183 1287 1181 1268 c 1,46,-1
 907 1150 l 1,47,-1
 897 1150 l 1,48,-1
 915 1234 l 2,49,50
 916 1239 916 1239 916 1240 c 0,51,52
 916 1260 916 1260 881 1260 c 2,53,-1
 735 1260 l 2,54,55
 695 1260 695 1260 689 1231 c 2,56,-1
 668 1134 l 2,57,58
 667 1129 667 1129 667 1127 c 0,59,60
 667 1104 667 1104 702 1104 c 2,61,-1
 840 1104 l 2,62,63
 1164 1104 1164 1104 1164 901 c 0,64,65
 1164 869 1164 869 1156 832 c 2,66,-1
 1132 721 l 2,67,68
 1120 665 1120 665 1101 623 c 1,69,-1
 845 732 l 1,70,-1
 864 821 l 2,71,72
 865 826 865 826 865 830 c 0,73,74
 865 853 865 853 830 853 c 2,75,-1
 668 853 l 2,76,77
 391 853 391 853 391 1059 c 0,78,79
 391 1098 391 1098 400 1141 c 2,80,-1
 419 1232 l 2,81,82
 477 1510 477 1510 748 1510 c 2,83,-1
 916 1510 l 2,42,43
EndSplineSet
Validated: 19457
EndChar

StartChar: dieresis
Encoding: 168 168 104
Width: 690
GlyphClass: 2
Flags: W
HStem: 1210 297<383.468 545.489 722.984 883.99>
VStem: 315 300<1278.5 1438.97> 653 300<1278.5 1437.11>
LayerCount: 2
Fore
SplineSet
834 1507 m 128,-1,1
 894 1507 894 1507 928 1463 c 0,2,3
 952 1432 952 1432 953 1391 c 0,4,5
 953 1374 953 1374 949 1358 c 0,6,7
 936 1298 936 1298 884 1254 c 128,-1,8
 832 1210 832 1210 771 1210 c 128,-1,9
 710 1210 710 1210 677 1254 c 0,10,11
 653 1286 653 1286 653 1325 c 0,12,13
 653 1341 653 1341 657 1358 c 0,14,15
 669 1417 669 1417 722 1462 c 0,16,0
 774 1507 774 1507 834 1507 c 128,-1,1
495.5 1507 m 128,-1,18
 556 1507 556 1507 590 1463 c 0,19,20
 615 1431 615 1431 615 1391 c 0,21,22
 615 1376 615 1376 611 1358 c 0,23,24
 598 1298 598 1298 545.5 1254 c 128,-1,25
 493 1210 493 1210 433 1210 c 0,26,27
 372 1210 372 1210 339 1254 c 0,28,29
 315 1286 315 1286 315 1325 c 0,30,31
 315 1341 315 1341 319 1358 c 0,32,33
 332 1419 332 1419 383 1462 c 0,34,17
 435 1507 435 1507 495.5 1507 c 128,-1,18
EndSplineSet
Validated: 19457
EndChar

StartChar: copyright
Encoding: 169 169 105
Width: 1340
GlyphClass: 2
Flags: W
HStem: 386 52<604.584 925.646> 553 191<743.004 934.906> 1157 191<823.939 1011> 1478 52<824.632 1143.39>
VStem: 302 59<686.575 1015.56> 537 206<627.5 939.984> 1011 192<1104.91 1260> 1386 59<900.437 1234>
DStem2: 463.866 386 663.654 386 0.207912 0.978148<419.094 837.638>
LayerCount: 2
Fore
SplineSet
754 386 m 0,0,1
 528 386 528 386 398 549 c 0,2,3
 302 669 302 669 302 841 c 0,4,5
 302 890 302 890 310 943 c 0,6,7
 345 1183 345 1183 555 1362 c 0,8,9
 752 1530 752 1530 993 1530 c 0,10,11
 1219 1530 1219 1530 1349 1367 c 0,12,13
 1445 1247 1445 1247 1445 1075 c 0,14,15
 1445 1026 1445 1026 1437 973 c 0,16,17
 1402 733 1402 733 1192 554 c 0,18,19
 994 386 994 386 754 386 c 0,0,1
983 1478 m 0,20,21
 783 1478 783 1478 603 1330 c 0,22,23
 421 1181 421 1181 373 953 c 0,24,25
 361 897 361 897 361 843 c 0,26,27
 361 704 361 704 442 587 c 0,28,29
 545 438 545 438 764 438 c 0,30,31
 964 438 964 438 1144 586 c 0,32,33
 1326 735 1326 735 1374 963 c 0,34,35
 1386 1022 1386 1022 1386 1077 c 0,36,37
 1386 1216 1386 1216 1308 1329 c 0,38,39
 1205 1478 1205 1478 983 1478 c 0,20,21
880 1348 m 2,40,-1
 1014 1348 l 2,41,42
 1203 1348 1203 1348 1203 1172 c 0,43,44
 1203 1144 1203 1144 1198 1111 c 1,45,-1
 999 1039 l 1,46,-1
 989 1039 l 1,47,-1
 1010 1138 l 2,48,49
 1011 1143 1011 1143 1011 1146 c 0,50,51
 1011 1157 1011 1157 994 1157 c 2,52,-1
 848 1157 l 2,53,54
 828 1157 828 1157 825 1142 c 2,55,-1
 744 764 l 2,56,57
 743 759 743 759 743 755 c 0,58,59
 743 744 743 744 760 744 c 2,60,-1
 906 744 l 2,61,62
 926 744 926 744 929 759 c 2,63,-1
 935 788 l 1,64,-1
 1143 872 l 1,65,-1
 1153 872 l 1,66,-1
 1130 763 l 2,67,68
 1086 553 1086 553 875 553 c 2,69,-1
 741 553 l 2,70,71
 537 553 537 553 537 702 c 0,72,73
 537 730 537 730 544 763 c 2,74,-1
 624 1138 l 2,75,76
 669 1348 669 1348 880 1348 c 2,40,-1
EndSplineSet
Validated: 19457
EndChar

StartChar: ordfeminine
Encoding: 170 170 106
Width: 581
GlyphClass: 2
Flags: W
HStem: 733 180<295 626> 979 126<437.746 577> 1209 126<457 620> 1406 164<526 660>
VStem: 176 678
LayerCount: 2
Fore
SplineSet
680 1570 m 2,0,1
 854 1570 854 1570 854 1446 c 0,2,3
 854 1424 854 1424 848 1398 c 2,4,-1
 772 1040 l 1,5,-1
 577 969 l 1,6,-1
 567 969 l 1,7,-1
 569 979 l 1,8,-1
 457 979 l 2,9,10
 298 979 298 979 298 1100 c 0,11,12
 298 1124 298 1124 304 1153 c 2,13,-1
 309 1176 l 2,14,15
 344 1335 344 1335 519 1335 c 2,16,-1
 646 1335 l 1,17,-1
 660 1406 l 1,18,-1
 430 1406 l 1,19,-1
 432 1416 l 1,20,-1
 526 1570 l 1,21,-1
 680 1570 l 2,0,1
435 1105 m 1,22,-1
 598 1105 l 1,23,-1
 620 1209 l 1,24,-1
 457 1209 l 1,25,-1
 435 1105 l 1,22,-1
295 913 m 1,26,-1
 745 913 l 1,27,-1
 743 903 l 1,28,-1
 626 733 l 1,29,-1
 176 733 l 1,30,-1
 178 743 l 1,31,-1
 295 913 l 1,26,-1
EndSplineSet
Validated: 19457
EndChar

StartChar: guillemotleft
Encoding: 171 171 107
Width: 1292
GlyphClass: 2
Flags: W
DStem2: 563 731 270 755 0.35398 -0.935253<0 402.274> 270 755 563 731 0.62602 0.779807<164.709 643.749> 1044 731 751 755 0.35398 -0.935253<0 402.274> 751 755 1044 731 0.62602 0.779807<164.709 643.749>
LayerCount: 2
Fore
SplineSet
751 755 m 1,0,-1
 1154 1257 l 1,1,-1
 1164 1257 l 1,2,-1
 1375 1145 l 1,3,-1
 1044 731 l 1,4,-1
 1187 355 l 1,5,-1
 951 253 l 1,6,-1
 941 253 l 1,7,-1
 751 755 l 1,0,-1
270 755 m 1,8,-1
 673 1257 l 1,9,-1
 683 1257 l 1,10,-1
 894 1145 l 1,11,-1
 563 731 l 1,12,-1
 706 355 l 1,13,-1
 470 253 l 1,14,-1
 460 253 l 1,15,-1
 270 755 l 1,8,-1
EndSplineSet
Validated: 19457
EndChar

StartChar: logicalnot
Encoding: 172 172 108
Width: 1240
GlyphClass: 2
Flags: W
HStem: 620 270<424 891>
VStem: 709 246<358 604>
LayerCount: 2
Fore
SplineSet
424 890 m 1,0,-1
 1319 890 l 1,1,-1
 1317 880 l 1,2,-1
 955 358 l 1,3,-1
 709 358 l 1,4,-1
 891 620 l 1,5,-1
 242 620 l 1,6,-1
 244 630 l 1,7,-1
 424 890 l 1,0,-1
EndSplineSet
Validated: 19457
EndChar

StartChar: uni00AD
Encoding: 173 173 109
Width: 1240
GlyphClass: 2
Flags: W
HStem: 620 270<424 1137>
LayerCount: 2
Fore
SplineSet
424 890 m 1,0,-1
 1319 890 l 1,1,-1
 1317 880 l 1,2,-1
 1137 620 l 1,3,-1
 242 620 l 1,4,-1
 244 630 l 1,5,-1
 424 890 l 1,0,-1
EndSplineSet
Validated: 19457
EndChar

StartChar: registered
Encoding: 174 174 110
Width: 1340
GlyphClass: 2
Flags: W
HStem: 386 52<604.584 925.646> 1164 191<860 1007> 1478 52<824.632 1143.39>
VStem: 302 59<686.575 1015.56> 1007 206<972.697 1279> 1386 59<900.437 1234>
DStem2: 479.566 386 679.624 386 0.207912 0.978148<283.889 442.363 637.714 836.977>
LayerCount: 2
Fore
SplineSet
754 386 m 0,0,1
 528 386 528 386 398 549 c 0,2,3
 302 669 302 669 302 841 c 0,4,5
 302 890 302 890 310 943 c 0,6,7
 345 1183 345 1183 555 1362 c 0,8,9
 752 1530 752 1530 993 1530 c 0,10,11
 1219 1530 1219 1530 1349 1367 c 0,12,13
 1445 1247 1445 1247 1445 1075 c 0,14,15
 1445 1026 1445 1026 1437 973 c 0,16,17
 1402 733 1402 733 1192 554 c 0,18,19
 994 386 994 386 754 386 c 0,0,1
983 1478 m 0,20,21
 783 1478 783 1478 603 1330 c 0,22,23
 421 1181 421 1181 373 953 c 0,24,25
 361 897 361 897 361 843 c 0,26,27
 361 704 361 704 442 587 c 0,28,29
 545 438 545 438 764 438 c 0,30,31
 964 438 964 438 1144 586 c 0,32,33
 1326 735 1326 735 1374 963 c 0,34,35
 1386 1022 1386 1022 1386 1077 c 0,36,37
 1386 1216 1386 1216 1308 1329 c 0,38,39
 1205 1478 1205 1478 983 1478 c 0,20,21
1006 1143 m 2,40,41
 1007 1148 1007 1148 1007 1152 c 0,42,43
 1007 1164 1007 1164 990 1164 c 2,44,-1
 845 1164 l 1,45,-1
 804 969 l 1,46,-1
 949 969 l 2,47,48
 969 969 969 969 972 985 c 2,49,-1
 1006 1143 l 2,40,41
860 1355 m 1,50,-1
 1006 1355 l 2,51,52
 1213 1355 1213 1355 1213 1203 c 0,53,54
 1213 1175 1213 1175 1206 1141 c 2,55,-1
 1174 992 l 2,56,57
 1142 844 1142 844 1039 812 c 1,58,-1
 1176 616 l 1,59,-1
 992 549 l 1,60,-1
 982 549 l 1,61,-1
 837 778 l 1,62,-1
 763 778 l 1,63,-1
 730 623 l 1,64,-1
 524 548 l 1,65,-1
 514 548 l 1,66,-1
 670 1278 l 1,67,-1
 860 1355 l 1,50,-1
EndSplineSet
Validated: 19457
EndChar

StartChar: macron
Encoding: 175 175 111
Width: 680
GlyphClass: 2
Flags: W
HStem: 1288 190<430 838>
VStem: 304 660
LayerCount: 2
Fore
SplineSet
430 1478 m 1,0,-1
 964 1478 l 1,1,-1
 962 1468 l 1,2,-1
 838 1288 l 1,3,-1
 304 1288 l 1,4,-1
 306 1298 l 1,5,-1
 430 1478 l 1,0,-1
EndSplineSet
Validated: 19457
EndChar

StartChar: degree
Encoding: 176 176 112
Width: 730
GlyphClass: 2
Flags: W
HStem: 889 194<460.316 747.541> 1383 187<505.459 792.684>
VStem: 264 193<977.5 1310.47> 797 192<1148.94 1481.5>
DStem2: 219.011 889 406.924 889 0.207912 0.978148<273.691 553.262> 700.837 889 889.238 889 0.207912 0.978148<195.267 468.749>
LayerCount: 2
Fore
SplineSet
564 1383 m 2,0,1
 512 1383 512 1383 501 1332 c 2,2,-1
 459 1134 l 2,3,4
 457 1125 457 1125 457 1118 c 0,5,6
 457 1083 457 1083 500 1083 c 2,7,-1
 690 1083 l 2,8,9
 742 1083 742 1083 753 1134 c 2,10,-1
 795 1332 l 2,11,12
 797 1341 797 1341 797 1348 c 0,13,14
 797 1383 797 1383 754 1383 c 2,15,-1
 564 1383 l 2,0,1
600 1570 m 2,16,-1
 758 1570 l 2,17,18
 989 1570 989 1570 989 1393 c 0,19,20
 989 1358 989 1358 980 1316 c 2,21,-1
 943 1143 l 2,22,23
 889 889 889 889 653 889 c 2,24,-1
 495 889 l 2,25,26
 264 889 264 889 264 1066 c 0,27,28
 264 1101 264 1101 273 1143 c 2,29,-1
 310 1316 l 2,30,31
 364 1570 364 1570 600 1570 c 2,16,-1
EndSplineSet
Validated: 19457
EndChar

StartChar: plusminus
Encoding: 177 177 113
Width: 1240
GlyphClass: 2
Flags: W
HStem: 154 270<325 1038> 828 270<468 661 988 1181>
DStem2: 517.446 154 787.876 154 0.207912 0.978148<489.698 689.118 1021.21 1220.83>
LayerCount: 2
Fore
SplineSet
325 424 m 1,0,-1
 1220 424 l 1,1,-1
 1218 414 l 1,2,-1
 1038 154 l 1,3,-1
 143 154 l 1,4,-1
 145 164 l 1,5,-1
 325 424 l 1,0,-1
1058 1473 m 1,6,-1
 1068 1473 l 1,7,-1
 988 1098 l 1,8,-1
 1363 1098 l 1,9,-1
 1361 1088 l 1,10,-1
 1181 828 l 1,11,-1
 931 828 l 1,12,-1
 878 578 l 1,13,-1
 591 453 l 1,14,-1
 581 453 l 1,15,-1
 661 828 l 1,16,-1
 286 828 l 1,17,-1
 288 838 l 1,18,-1
 468 1098 l 1,19,-1
 718 1098 l 1,20,-1
 772 1348 l 1,21,-1
 1058 1473 l 1,6,-1
EndSplineSet
Validated: 19457
EndChar

StartChar: uni00B2
Encoding: 178 178 114
Width: 671
GlyphClass: 2
Flags: W
HStem: 765 191<600 732> 1369 191<540.959 722.996>
VStem: 723 205<1228.7 1483.5>
LayerCount: 2
Fore
SplineSet
597 1560 m 2,0,-1
 727 1560 l 2,1,2
 928 1560 928 1560 928 1407 c 0,3,4
 928 1381 928 1381 922 1350 c 2,5,-1
 911 1293 l 2,6,7
 877 1115 877 1115 706 1017 c 2,8,-1
 600 956 l 1,9,-1
 844 956 l 1,10,-1
 842 946 l 1,11,-1
 732 765 l 1,12,-1
 193 765 l 1,13,-1
 195 775 l 1,14,-1
 321 967 l 1,15,-1
 570 1134 l 2,16,17
 694 1217 694 1217 709 1288 c 2,18,-1
 722 1349 l 2,19,20
 723 1354 723 1354 723 1358 c 0,21,22
 723 1369 723 1369 706 1369 c 2,23,-1
 566 1369 l 2,24,25
 546 1369 546 1369 543 1354 c 2,26,-1
 535 1316 l 1,27,-1
 329 1241 l 1,28,-1
 319 1241 l 1,29,-1
 342 1350 l 2,30,31
 386 1560 386 1560 597 1560 c 2,0,-1
EndSplineSet
Validated: 19457
EndChar

StartChar: uni00B3
Encoding: 179 179 115
Width: 656
GlyphClass: 2
Flags: W
HStem: 765 191<436.004 624.041> 1369 191<499 589>
VStem: 241 195<842 1001> 650 204<959.262 1199>
LayerCount: 2
Fore
SplineSet
499 1560 m 1,0,-1
 958 1560 l 1,1,-1
 728 1280 l 1,2,3
 854 1254 854 1254 854 1144 c 0,4,5
 854 1121 854 1121 848 1093 c 2,6,-1
 823 975 l 2,7,8
 779 765 779 765 568 765 c 2,9,-1
 434 765 l 2,10,11
 241 765 241 765 241 919 c 0,12,13
 241 949 241 949 248 984 c 2,14,-1
 250 994 l 1,15,-1
 448 1074 l 1,16,-1
 458 1074 l 1,17,-1
 437 976 l 2,18,19
 436 971 436 971 436 967 c 0,20,21
 436 956 436 956 453 956 c 2,22,-1
 599 956 l 2,23,24
 619 956 619 956 622 971 c 2,25,-1
 649 1094 l 2,26,27
 650 1099 650 1099 650 1103 c 0,28,29
 650 1114 650 1114 633 1114 c 2,30,-1
 469 1114 l 1,31,-1
 428 1173 l 1,32,-1
 589 1369 l 1,33,-1
 378 1369 l 1,34,-1
 380 1379 l 1,35,-1
 499 1560 l 1,0,-1
EndSplineSet
Validated: 19457
EndChar

StartChar: acute
Encoding: 180 180 116
Width: 401
GlyphClass: 2
Flags: W
HStem: 1160 410
VStem: 296 389
DStem2: 296 1250 478 1160 0.541289 0.840837<22.8392 380.573>
LayerCount: 2
Fore
SplineSet
512 1570 m 1,0,-1
 685 1478 l 1,1,-1
 478 1160 l 1,2,-1
 468 1160 l 1,3,-1
 296 1250 l 1,4,-1
 502 1570 l 1,5,-1
 512 1570 l 1,0,-1
EndSplineSet
Validated: 19457
EndChar

StartChar: uni00B5
Encoding: 181 181 117
Width: 1230
GlyphClass: 2
Flags: W
HStem: -430 21G<49 105.232> 0 280<506.845 853.672> 1100 20G<621.768 678 1271.77 1328>
DStem2: 49 -430 348.667 -430 0.207912 0.978148<203.387 511.716 814.107 1443.52> 698.87 -430 998.346 -430 0.207912 0.978148<723.753 1443.54>
LayerCount: 2
Fore
SplineSet
780 0 m 2,0,-1
 510 0 l 2,1,2
 459 0 459 0 441 6 c 1,3,-1
 378 -292 l 1,4,-1
 59 -430 l 1,5,-1
 49 -430 l 1,6,-1
 349 982 l 1,7,-1
 668 1120 l 1,8,-1
 678 1120 l 1,9,-1
 507 315 l 2,10,11
 506 310 506 310 506 305 c 0,12,13
 506 280 506 280 540 280 c 2,14,-1
 810 280 l 2,15,16
 850 280 850 280 857 315 c 2,17,-1
 999 982 l 1,18,-1
 1318 1120 l 1,19,-1
 1328 1120 l 1,20,-1
 1155 307 l 2,21,22
 1090 0 1090 0 780 0 c 2,0,-1
EndSplineSet
Validated: 19457
EndChar

StartChar: paragraph
Encoding: 182 182 118
Width: 1220
GlyphClass: 2
Flags: W
HStem: -20 21G<736 792.538> 1490 20G<586 1167.5>
DStem2: 736 -20 855.947 -20 0.207912 0.978148<78.1001 544.847> 939.445 -20 1055.75 -20 0.207912 0.978148<174.466 1190.03>
LayerCount: 2
Fore
SplineSet
746 -20 m 1,0,-1
 736 -20 l 1,1,-1
 849 513 l 1,2,3
 838 507 838 507 828 507 c 2,4,-1
 588 507 l 2,5,6
 275 507 275 507 275 733 c 0,7,8
 275 774 275 774 285 822 c 2,9,-1
 364 1195 l 2,10,11
 431 1510 431 1510 741 1510 c 2,12,-1
 1011 1510 l 2,13,14
 1324 1510 1324 1510 1324 1284 c 0,15,16
 1324 1243 1324 1243 1314 1195 c 2,17,-1
 1087 127 l 1,18,-1
 959 72 l 1,19,-1
 1187 1144 l 1,20,-1
 1095 1106 l 1,21,-1
 867 32 l 1,22,-1
 746 -20 l 1,0,-1
EndSplineSet
Validated: 19457
EndChar

StartChar: periodcentered
Encoding: 183 183 119
Width: 420
GlyphClass: 2
Flags: W
HStem: 573 365<282.097 458.323>
VStem: 186 369<668.75 842.936>
LayerCount: 2
Fore
SplineSet
409 938 m 0,0,1
 485 938 485 938 526 885 c 0,2,3
 555 847 555 847 555 796 c 0,4,5
 555 777 555 777 551 756 c 0,6,7
 535 681 535 681 470.5 627 c 128,-1,8
 406 573 406 573 332 573 c 0,9,10
 256 573 256 573 216 627 c 0,11,12
 186 666 186 666 186 716 c 0,13,14
 186 735 186 735 190 755 c 0,15,16
 206 831 206 831 270 884 c 0,17,18
 334 938 334 938 409 938 c 0,0,1
EndSplineSet
Validated: 19457
EndChar

StartChar: cedilla
Encoding: 184 184 120
Width: 440
GlyphClass: 2
Flags: W
HStem: -410 410 -20 20G<136 294.5>
VStem: 172 199<-200.312 -79.297>
LayerCount: 2
Fore
SplineSet
-57 -410 m 1,0,-1
 -55 -400 l 1,1,-1
 69 -220 l 1,2,3
 158 -204 158 -204 171 -145 c 0,4,5
 172 -139 172 -139 172 -133 c 0,6,7
 172 -97 172 -97 120 -76 c 1,8,-1
 136 0 l 1,9,-1
 299 0 l 1,10,-1
 290 -40 l 1,11,12
 371 -82 371 -82 371 -166 c 0,13,14
 371 -176 371 -176 370 -187 c 0,15,16
 346 -410 346 -410 -57 -410 c 1,0,-1
EndSplineSet
Validated: 19457
EndChar

StartChar: uni00B9
Encoding: 185 185 121
Width: 412
GlyphClass: 2
Flags: W
VStem: 294 392
DStem2: 313 756 513.058 756 0.207912 0.978148<118.27 549.945>
LayerCount: 2
Fore
SplineSet
676 1570 m 1,0,-1
 686 1570 l 1,1,-1
 529 831 l 1,2,-1
 323 756 l 1,3,-1
 313 756 l 1,4,-1
 427 1294 l 1,5,-1
 294 1242 l 1,6,-1
 334 1432 l 1,7,-1
 676 1570 l 1,0,-1
EndSplineSet
Validated: 19457
EndChar

StartChar: ordmasculine
Encoding: 186 186 122
Width: 594
GlyphClass: 2
Flags: W
HStem: 733 180<295 639> 969 181<484 618> 1379 181<533 667>
LayerCount: 2
Fore
SplineSet
618 1150 m 1,0,-1
 667 1379 l 1,1,-1
 533 1379 l 1,2,-1
 484 1150 l 1,3,-1
 618 1150 l 1,0,-1
557 1560 m 2,4,-1
 691 1560 l 2,5,6
 865 1560 865 1560 865 1436 c 0,7,8
 865 1414 865 1414 859 1387 c 2,9,-1
 807 1142 l 2,10,11
 770 969 770 969 595 969 c 2,12,-1
 461 969 l 2,13,14
 287 969 287 969 287 1093 c 0,15,16
 287 1115 287 1115 293 1142 c 2,17,-1
 345 1387 l 2,18,19
 382 1560 382 1560 557 1560 c 2,4,-1
295 913 m 1,20,-1
 758 913 l 1,21,-1
 756 903 l 1,22,-1
 639 733 l 1,23,-1
 176 733 l 1,24,-1
 178 743 l 1,25,-1
 295 913 l 1,20,-1
EndSplineSet
Validated: 19457
EndChar

StartChar: guillemotright
Encoding: 187 187 123
Width: 1292
GlyphClass: 2
Flags: W
DStem2: 238 365 459 253 0.62602 0.779807<51.0121 530.053> 672 1257 426 1155 0.35398 -0.935253<8.31667 410.591> 719 365 940 253 0.62602 0.779807<51.0121 530.053> 1153 1257 907 1155 0.35398 -0.935253<8.31667 410.591>
LayerCount: 2
Fore
SplineSet
862 755 m 1,0,-1
 459 253 l 1,1,-1
 449 253 l 1,2,-1
 238 365 l 1,3,-1
 569 779 l 1,4,-1
 426 1155 l 1,5,-1
 662 1257 l 1,6,-1
 672 1257 l 1,7,-1
 862 755 l 1,0,-1
1343 755 m 1,8,-1
 940 253 l 1,9,-1
 930 253 l 1,10,-1
 719 365 l 1,11,-1
 1050 779 l 1,12,-1
 907 1155 l 1,13,-1
 1143 1257 l 1,14,-1
 1153 1257 l 1,15,-1
 1343 755 l 1,8,-1
EndSplineSet
Validated: 19457
EndChar

StartChar: onequarter
Encoding: 188 188 124
Width: 1543
GlyphClass: 2
Flags: W
HStem: -20 21G<450.301 511.57 1154 1218.93> 1510 20G<697.58 757 1237.42 1298.52>
DStem2: 227.558 -20 427.617 -20 0.207912 0.978148<870.713 1302.6> 275 93 498 -20 0.561853 0.827237<31.8155 1737.11>
LayerCount: 2
Fore
SplineSet
747 1530 m 1,0,-1
 757 1530 l 1,1,-1
 600 791 l 1,2,-1
 394 716 l 1,3,-1
 384 716 l 1,4,-1
 499 1254 l 1,5,-1
 365 1202 l 1,6,-1
 406 1392 l 1,7,-1
 747 1530 l 1,0,-1
488 -20 m 1,8,-1
 275 93 l 1,9,-1
 1251 1530 l 1,10,-1
 1261 1530 l 1,11,-1
 1473 1417 l 1,12,-1
 498 -20 l 1,13,-1
 488 -20 l 1,8,-1
1141 333 m 1,14,-1
 1229 333 l 1,15,-1
 1254 450 l 1,16,-1
 1141 333 l 1,14,-1
1164 -20 m 1,17,-1
 1154 -20 l 1,18,-1
 1188 142 l 1,19,-1
 800 142 l 1,20,-1
 802 152 l 1,21,-1
 1303 708 l 1,22,-1
 1517 794 l 1,23,-1
 1527 794 l 1,24,-1
 1429 333 l 1,25,-1
 1504 333 l 1,26,-1
 1502 323 l 1,27,-1
 1386 133 l 1,28,-1
 1370 55 l 1,29,-1
 1164 -20 l 1,17,-1
EndSplineSet
Validated: 19457
EndChar

StartChar: onehalf
Encoding: 189 189 125
Width: 1677
GlyphClass: 2
Flags: W
HStem: -20 21G<450.301 511.57> 0 191<1363 1495> 604 191<1303.96 1486> 1510 20G<697.58 757 1237.42 1298.52>
VStem: 1486 205<463.697 718.5>
DStem2: 227.558 -20 427.617 -20 0.207912 0.978148<870.713 1302.6> 275 93 498 -20 0.561853 0.827237<31.8155 1737.11>
LayerCount: 2
Fore
SplineSet
1360 795 m 2,0,-1
 1490 795 l 2,1,2
 1691 795 1691 795 1691 642 c 0,3,4
 1691 616 1691 616 1685 585 c 2,5,-1
 1674 528 l 2,6,7
 1640 350 1640 350 1469 252 c 2,8,-1
 1363 191 l 1,9,-1
 1607 191 l 1,10,-1
 1605 181 l 1,11,-1
 1495 0 l 1,12,-1
 956 0 l 1,13,-1
 958 10 l 1,14,-1
 1084 202 l 1,15,-1
 1333 369 l 2,16,17
 1457 452 1457 452 1472 523 c 2,18,-1
 1485 584 l 2,19,20
 1486 589 1486 589 1486 593 c 0,21,22
 1486 604 1486 604 1469 604 c 2,23,-1
 1329 604 l 2,24,25
 1309 604 1309 604 1306 589 c 2,26,-1
 1298 551 l 1,27,-1
 1092 476 l 1,28,-1
 1082 476 l 1,29,-1
 1105 585 l 2,30,31
 1149 795 1149 795 1360 795 c 2,0,-1
747 1530 m 1,32,-1
 757 1530 l 1,33,-1
 600 791 l 1,34,-1
 394 716 l 1,35,-1
 384 716 l 1,36,-1
 499 1254 l 1,37,-1
 365 1202 l 1,38,-1
 406 1392 l 1,39,-1
 747 1530 l 1,32,-1
488 -20 m 1,40,-1
 275 93 l 1,41,-1
 1251 1530 l 1,42,-1
 1261 1530 l 1,43,-1
 1473 1417 l 1,44,-1
 498 -20 l 1,45,-1
 488 -20 l 1,40,-1
EndSplineSet
Validated: 19457
EndChar

StartChar: threequarters
Encoding: 190 190 126
Width: 1780
GlyphClass: 2
Flags: W
HStem: -20 21G<687.301 748.57 1391 1455.93> 735 191<509.004 697.041> 1339 191<572 662>
VStem: 314 195<812 971> 723 204<929.262 1169>
DStem2: 512 93 735 -20 0.561853 0.827237<31.8155 1737.11>
LayerCount: 2
Fore
SplineSet
572 1530 m 1,0,-1
 1031 1530 l 1,1,-1
 801 1250 l 1,2,3
 927 1224 927 1224 927 1114 c 0,4,5
 927 1091 927 1091 921 1063 c 2,6,-1
 896 945 l 2,7,8
 852 735 852 735 641 735 c 2,9,-1
 507 735 l 2,10,11
 314 735 314 735 314 889 c 0,12,13
 314 919 314 919 321 954 c 2,14,-1
 323 964 l 1,15,-1
 521 1044 l 1,16,-1
 531 1044 l 1,17,-1
 510 946 l 2,18,19
 509 941 509 941 509 937 c 0,20,21
 509 926 509 926 526 926 c 2,22,-1
 672 926 l 2,23,24
 692 926 692 926 695 941 c 2,25,-1
 722 1064 l 2,26,27
 723 1069 723 1069 723 1073 c 0,28,29
 723 1084 723 1084 706 1084 c 2,30,-1
 542 1084 l 1,31,-1
 501 1143 l 1,32,-1
 662 1339 l 1,33,-1
 451 1339 l 1,34,-1
 453 1349 l 1,35,-1
 572 1530 l 1,0,-1
725 -20 m 1,36,-1
 512 93 l 1,37,-1
 1488 1530 l 1,38,-1
 1498 1530 l 1,39,-1
 1710 1417 l 1,40,-1
 735 -20 l 1,41,-1
 725 -20 l 1,36,-1
1378 333 m 1,42,-1
 1466 333 l 1,43,-1
 1491 450 l 1,44,-1
 1378 333 l 1,42,-1
1401 -20 m 1,45,-1
 1391 -20 l 1,46,-1
 1425 142 l 1,47,-1
 1037 142 l 1,48,-1
 1039 152 l 1,49,-1
 1540 708 l 1,50,-1
 1754 794 l 1,51,-1
 1764 794 l 1,52,-1
 1666 333 l 1,53,-1
 1741 333 l 1,54,-1
 1739 323 l 1,55,-1
 1623 133 l 1,56,-1
 1607 55 l 1,57,-1
 1401 -20 l 1,45,-1
EndSplineSet
Validated: 19457
EndChar

StartChar: questiondown
Encoding: 191 191 127
Width: 1303
GlyphClass: 2
Flags: W
HStem: -410 300<432.4 847.792> 755 365<809.677 985.903>
VStem: 99 324<-266.5 123.966>
LayerCount: 2
Fore
SplineSet
936 1120 m 0,0,1
 1012 1120 1012 1120 1052 1066 c 0,2,3
 1082 1027 1082 1027 1082 977 c 0,4,5
 1082 958 1082 958 1078 938 c 0,6,7
 1062 862 1062 862 998 809 c 0,8,9
 934 755 934 755 859 755 c 0,10,11
 783 755 783 755 742 808 c 0,12,13
 713 846 713 846 713 897 c 0,14,15
 713 916 713 916 717 937 c 0,16,17
 733 1012 733 1012 797.5 1066 c 128,-1,18
 862 1120 862 1120 936 1120 c 0,0,1
726 -410 m 2,19,-1
 466 -410 l 2,20,21
 99 -410 99 -410 99 -123 c 0,22,23
 99 -80 99 -80 107 -30 c 2,24,-1
 120 47 l 2,25,26
 172 357 172 357 577 541 c 0,27,28
 652 575 652 575 658 594 c 1,29,-1
 1003 741 l 1,30,-1
 1013 741 l 1,31,32
 942 408 942 408 677 304 c 0,33,34
 480 227 480 227 446 62 c 2,35,-1
 425 -39 l 2,36,37
 423 -50 423 -50 423 -60 c 0,38,39
 423 -110 423 -110 490 -110 c 2,40,-1
 770 -110 l 2,41,42
 850 -110 850 -110 865 -39 c 2,43,-1
 873 0 l 1,44,-1
 1215 148 l 1,45,-1
 1225 148 l 1,46,-1
 1187 -30 l 2,47,48
 1106 -410 1106 -410 726 -410 c 2,19,-1
EndSplineSet
Validated: 19457
EndChar

StartChar: endash
Encoding: 8211 8211 128
Width: 1240
GlyphClass: 2
Flags: W
HStem: 620 270<424 1137>
LayerCount: 2
Fore
SplineSet
424 890 m 1,0,-1
 1319 890 l 1,1,-1
 1317 880 l 1,2,-1
 1137 620 l 1,3,-1
 242 620 l 1,4,-1
 244 630 l 1,5,-1
 424 890 l 1,0,-1
EndSplineSet
Validated: 19457
EndChar

StartChar: emdash
Encoding: 8212 8212 129
Width: 1570
GlyphClass: 2
Flags: W
HStem: 620 270<424 1467>
LayerCount: 2
Fore
SplineSet
424 890 m 1,0,-1
 1649 890 l 1,1,-1
 1647 880 l 1,2,-1
 1467 620 l 1,3,-1
 242 620 l 1,4,-1
 244 630 l 1,5,-1
 424 890 l 1,0,-1
EndSplineSet
Validated: 19457
EndChar

StartChar: afii00208
Encoding: 8213 8213 130
Width: 1570
GlyphClass: 2
Flags: W
HStem: 620 270<424 1467>
LayerCount: 2
Fore
SplineSet
424 890 m 1,0,-1
 1649 890 l 1,1,-1
 1647 880 l 1,2,-1
 1467 620 l 1,3,-1
 242 620 l 1,4,-1
 244 630 l 1,5,-1
 424 890 l 1,0,-1
EndSplineSet
Validated: 19457
EndChar

StartChar: quoteleft
Encoding: 8216 8216 131
Width: 496
GlyphClass: 2
Flags: W
HStem: 934 666
VStem: 281 282<1124.94 1316.96>
LayerCount: 2
Fore
SplineSet
706 1600 m 1,0,-1
 712 1593 l 1,1,2
 601 1444 601 1444 569 1296 c 0,3,4
 563 1269 563 1269 563 1244 c 0,5,6
 563 1126 563 1126 691 1060 c 1,7,-1
 396 934 l 1,8,-1
 386 934 l 1,9,10
 281 1014 281 1014 281 1142 c 0,11,12
 281 1178 281 1178 289 1218 c 0,13,14
 343 1475 343 1475 706 1600 c 1,0,-1
EndSplineSet
Validated: 19457
EndChar

StartChar: quoteright
Encoding: 8217 8217 132
Width: 496
GlyphClass: 2
Flags: W
HStem: 934 666
VStem: 471 283<1217.04 1409.06>
LayerCount: 2
Fore
SplineSet
343 1474 m 1,0,-1
 639 1600 l 1,1,-1
 649 1600 l 1,2,3
 754 1520 754 1520 754 1392 c 0,4,5
 754 1356 754 1356 746 1316 c 0,6,7
 691 1059 691 1059 329 934 c 1,8,-1
 323 941 l 1,9,10
 434 1090 434 1090 465 1238 c 0,11,12
 471 1265 471 1265 471 1290 c 0,13,14
 471 1408 471 1408 343 1474 c 1,0,-1
EndSplineSet
Validated: 19457
EndChar

StartChar: quotesinglbase
Encoding: 8218 8218 133
Width: 496
GlyphClass: 2
Flags: W
HStem: -328 666
VStem: 203 283<-42.5039 147.058>
LayerCount: 2
Fore
SplineSet
75 212 m 1,0,-1
 371 338 l 1,1,-1
 381 338 l 1,2,3
 486 259 486 259 486 132 c 0,4,5
 486 95 486 95 477 54 c 0,6,7
 422 -203 422 -203 60 -328 c 1,8,-1
 55 -321 l 1,9,10
 166 -172 166 -172 197 -24 c 0,11,12
 203 3 203 3 203 28 c 0,13,14
 203 146 203 146 75 212 c 1,0,-1
EndSplineSet
Validated: 19457
EndChar

StartChar: quotereversed
Encoding: 8219 8219 134
Width: 496
GlyphClass: 2
Flags: W
HStem: 934 666<475.621 537>
VStem: 302 243<1092.94 1320.7>
LayerCount: 2
Fore
SplineSet
779 1474 m 1,0,1
 590 1394 590 1394 557 1238 c 0,2,3
 545 1179 545 1179 545 1120 c 0,4,5
 545 1031 545 1031 573 941 c 1,6,-1
 565 934 l 1,7,8
 302 1040 302 1040 302 1242 c 0,9,10
 302 1277 302 1277 310 1316 c 0,11,12
 349 1498 349 1498 527 1600 c 1,13,-1
 537 1600 l 1,14,-1
 779 1474 l 1,0,1
EndSplineSet
Validated: 19457
EndChar

StartChar: quotedblleft
Encoding: 8220 8220 135
Width: 914
GlyphClass: 2
Flags: W
HStem: 934 666
VStem: 281 282<1124.94 1316.96> 699 282<1124.94 1316.96>
LayerCount: 2
Fore
SplineSet
706 1600 m 1,0,-1
 712 1593 l 1,1,2
 601 1444 601 1444 569 1296 c 0,3,4
 563 1269 563 1269 563 1244 c 0,5,6
 563 1126 563 1126 691 1060 c 1,7,-1
 396 934 l 1,8,-1
 386 934 l 1,9,10
 281 1014 281 1014 281 1142 c 0,11,12
 281 1178 281 1178 289 1218 c 0,13,14
 343 1475 343 1475 706 1600 c 1,0,-1
1124 1600 m 1,15,-1
 1130 1593 l 1,16,17
 1019 1444 1019 1444 987 1296 c 0,18,19
 981 1269 981 1269 981 1244 c 0,20,21
 981 1126 981 1126 1109 1060 c 1,22,-1
 814 934 l 1,23,-1
 804 934 l 1,24,25
 699 1014 699 1014 699 1142 c 0,26,27
 699 1178 699 1178 707 1218 c 0,28,29
 761 1475 761 1475 1124 1600 c 1,15,-1
EndSplineSet
Validated: 19457
EndChar

StartChar: quotedblright
Encoding: 8221 8221 136
Width: 914
GlyphClass: 2
Flags: W
HStem: 934 666
VStem: 471 283<1217.04 1409.06> 889 283<1217.04 1409.06>
LayerCount: 2
Fore
SplineSet
761 1474 m 1,0,-1
 1057 1600 l 1,1,-1
 1067 1600 l 1,2,3
 1172 1520 1172 1520 1172 1392 c 0,4,5
 1172 1356 1172 1356 1164 1316 c 0,6,7
 1109 1059 1109 1059 747 934 c 1,8,-1
 741 941 l 1,9,10
 852 1090 852 1090 883 1238 c 0,11,12
 889 1265 889 1265 889 1290 c 0,13,14
 889 1408 889 1408 761 1474 c 1,0,-1
343 1474 m 1,15,-1
 639 1600 l 1,16,-1
 649 1600 l 1,17,18
 754 1520 754 1520 754 1392 c 0,19,20
 754 1356 754 1356 746 1316 c 0,21,22
 691 1059 691 1059 329 934 c 1,23,-1
 323 941 l 1,24,25
 434 1090 434 1090 465 1238 c 0,26,27
 471 1265 471 1265 471 1290 c 0,28,29
 471 1408 471 1408 343 1474 c 1,15,-1
EndSplineSet
Validated: 19457
EndChar

StartChar: quotedblbase
Encoding: 8222 8222 137
Width: 914
GlyphClass: 2
Flags: W
HStem: -328 666
VStem: 203 283<-42.5039 147.058> 621 283<-42.5039 147.058>
LayerCount: 2
Fore
SplineSet
493 212 m 1,0,-1
 789 338 l 1,1,-1
 799 338 l 1,2,3
 904 259 904 259 904 132 c 0,4,5
 904 95 904 95 895 54 c 0,6,7
 840 -203 840 -203 478 -328 c 1,8,-1
 473 -321 l 1,9,10
 584 -172 584 -172 615 -24 c 0,11,12
 621 3 621 3 621 28 c 0,13,14
 621 146 621 146 493 212 c 1,0,-1
75 212 m 1,15,-1
 371 338 l 1,16,-1
 381 338 l 1,17,18
 486 259 486 259 486 132 c 0,19,20
 486 95 486 95 477 54 c 0,21,22
 422 -203 422 -203 60 -328 c 1,23,-1
 55 -321 l 1,24,25
 166 -172 166 -172 197 -24 c 0,26,27
 203 3 203 3 203 28 c 0,28,29
 203 146 203 146 75 212 c 1,15,-1
EndSplineSet
Validated: 19457
EndChar

StartChar: dagger
Encoding: 8224 8224 138
Width: 1254
GlyphClass: 2
Flags: W
HStem: -20 21G<463 519.395> 914 300<507 661 1045 1199> 1510 20G<1055.92 1112>
DStem2: 463 -20 782.754 -20 0.207912 0.978148<216.765 954.756 1328.04 1433.32>
LayerCount: 2
Fore
SplineSet
473 -20 m 1,0,-1
 463 -20 l 1,1,-1
 661 914 l 1,2,-1
 304 914 l 1,3,-1
 306 924 l 1,4,-1
 507 1214 l 1,5,-1
 725 1214 l 1,6,-1
 761 1382 l 1,7,-1
 1102 1530 l 1,8,-1
 1112 1530 l 1,9,-1
 1045 1214 l 1,10,-1
 1402 1214 l 1,11,-1
 1400 1204 l 1,12,-1
 1199 914 l 1,13,-1
 981 914 l 1,14,-1
 814 127 l 1,15,-1
 473 -20 l 1,0,-1
EndSplineSet
Validated: 19457
EndChar

StartChar: daggerdbl
Encoding: 8225 8225 139
Width: 1254
GlyphClass: 2
Flags: W
HStem: -20 21G<463 519.081> 296 300<376 530 914 1068> 914 300<507 661 1045 1199> 1510 20G<1055.92 1112>
DStem2: 463 -20 782.542 -20 0.207912 0.978148<217.743 323.025 696.307 954.756 1328.04 1433.32>
LayerCount: 2
Fore
SplineSet
473 -20 m 1,0,-1
 463 -20 l 1,1,-1
 530 296 l 1,2,-1
 173 296 l 1,3,-1
 175 306 l 1,4,-1
 376 596 l 1,5,-1
 594 596 l 1,6,-1
 661 914 l 1,7,-1
 304 914 l 1,8,-1
 306 924 l 1,9,-1
 507 1214 l 1,10,-1
 725 1214 l 1,11,-1
 761 1382 l 1,12,-1
 1102 1530 l 1,13,-1
 1112 1530 l 1,14,-1
 1045 1214 l 1,15,-1
 1402 1214 l 1,16,-1
 1400 1204 l 1,17,-1
 1199 914 l 1,18,-1
 981 914 l 1,19,-1
 914 596 l 1,20,-1
 1271 596 l 1,21,-1
 1269 586 l 1,22,-1
 1068 296 l 1,23,-1
 850 296 l 1,24,-1
 814 128 l 1,25,-1
 473 -20 l 1,0,-1
EndSplineSet
Validated: 19457
EndChar

StartChar: bullet
Encoding: 8226 8226 140
Width: 950
GlyphClass: 2
Flags: W
LayerCount: 2
Fore
SplineSet
615 1122 m 2,0,-1
 781 1122 l 2,1,2
 1029 1122 1029 1122 1029 927 c 0,3,4
 1029 889 1029 889 1019 843 c 2,5,-1
 982 666 l 2,6,7
 924 387 924 387 655 387 c 2,8,-1
 489 387 l 2,9,10
 242 387 242 387 242 582 c 0,11,12
 242 620 242 620 252 666 c 2,13,-1
 289 843 l 2,14,15
 347 1122 347 1122 615 1122 c 2,0,-1
EndSplineSet
Validated: 3073
EndChar

StartChar: ellipsis
Encoding: 8230 8230 141
Width: 1292
GlyphClass: 2
Flags: W
HStem: -20 365<156.097 332.323 592.097 768.323 1028.1 1204.32>
LayerCount: 2
Fore
SplineSet
1078 -20 m 0,0,1
 1002 -20 1002 -20 962 34 c 0,2,3
 932 73 932 73 932 123 c 0,4,5
 932 142 932 142 936 162 c 0,6,7
 952 238 952 238 1016 291 c 0,8,9
 1080 345 1080 345 1155 345 c 0,10,11
 1231 345 1231 345 1272 292 c 0,12,13
 1301 254 1301 254 1301 203 c 0,14,15
 1301 184 1301 184 1297 163 c 0,16,17
 1281 88 1281 88 1216.5 34 c 128,-1,18
 1152 -20 1152 -20 1078 -20 c 0,0,1
642 -20 m 0,19,20
 566 -20 566 -20 526 34 c 0,21,22
 496 73 496 73 496 123 c 0,23,24
 496 142 496 142 500 162 c 0,25,26
 516 238 516 238 580 291 c 0,27,28
 644 345 644 345 719 345 c 0,29,30
 795 345 795 345 836 292 c 0,31,32
 865 254 865 254 865 203 c 0,33,34
 865 184 865 184 861 163 c 0,35,36
 845 88 845 88 780.5 34 c 128,-1,37
 716 -20 716 -20 642 -20 c 0,19,20
206 -20 m 0,38,39
 130 -20 130 -20 90 34 c 0,40,41
 60 73 60 73 60 123 c 0,42,43
 60 142 60 142 64 162 c 0,44,45
 80 238 80 238 144 291 c 0,46,47
 208 345 208 345 283 345 c 0,48,49
 359 345 359 345 400 292 c 0,50,51
 429 254 429 254 429 203 c 0,52,53
 429 184 429 184 425 163 c 0,54,55
 409 88 409 88 344.5 34 c 128,-1,56
 280 -20 280 -20 206 -20 c 0,38,39
EndSplineSet
Validated: 19457
EndChar

StartChar: perthousand
Encoding: 8240 8240 142
Width: 2750
GlyphClass: 2
Flags: W
HStem: -20 21G<709.301 770.57> 0 206<1364.97 1675.52 2168.97 2479.52> 536 213<1410.63 1728.03 2214.63 2532.03> 761 213<538.969 856.372> 1304 206<591.482 902.031> 1510 20G<1496.42 1557.52>
VStem: 321 213<857.5 1200.73> 908 212<1070.36 1413.5> 1147 212<96.5 439.641> 1733 213<309.266 652.5> 1951 212<96.5 439.641> 2537 213<309.266 652.5>
DStem2: 105.69 -20 312.816 -20 0.207912 0.978148<1098.74 1400.16> 534 93 757 -20 0.561853 0.827237<31.8155 1737.11> 636.478 -20 844.092 -20 0.207912 0.978148<1012.92 1314.11> 1093.45 -20 1301.06 -20 0.207912 0.978148<313.688 614.874> 1624.72 -20 1831.85 -20 0.207912 0.978148<227.528 528.948> 1897.45 -20 2105.06 -20 0.207912 0.978148<313.688 614.874> 2428.72 -20 2635.85 -20 0.207912 0.978148<227.528 528.948>
LayerCount: 2
Fore
SplineSet
2420 206 m 2,0,1
 2477 206 2477 206 2489 262 c 2,2,-1
 2535 480 l 2,3,4
 2537 490 2537 490 2537 498 c 0,5,6
 2537 536 2537 536 2490 536 c 2,7,-1
 2280 536 l 2,8,9
 2223 536 2223 536 2211 480 c 2,10,-1
 2165 262 l 2,11,12
 2163 252 2163 252 2163 244 c 0,13,14
 2163 206 2163 206 2210 206 c 2,15,-1
 2420 206 l 2,0,1
2373 0 m 2,16,-1
 2199 0 l 2,17,18
 1951 0 1951 0 1951 193 c 0,19,20
 1951 232 1951 232 1961 279 c 2,21,-1
 2002 470 l 2,22,23
 2062 749 2062 749 2328 749 c 2,24,-1
 2502 749 l 2,25,26
 2750 749 2750 749 2750 556 c 0,27,28
 2750 517 2750 517 2740 470 c 2,29,-1
 2699 279 l 2,30,31
 2639 0 2639 0 2373 0 c 2,16,-1
1616 206 m 2,32,33
 1673 206 1673 206 1685 262 c 2,34,-1
 1731 480 l 2,35,36
 1733 490 1733 490 1733 498 c 0,37,38
 1733 536 1733 536 1686 536 c 2,39,-1
 1476 536 l 2,40,41
 1419 536 1419 536 1407 480 c 2,42,-1
 1361 262 l 2,43,44
 1359 252 1359 252 1359 244 c 0,45,46
 1359 206 1359 206 1406 206 c 2,47,-1
 1616 206 l 2,32,33
1569 0 m 2,48,-1
 1395 0 l 2,49,50
 1147 0 1147 0 1147 193 c 0,51,52
 1147 232 1147 232 1157 279 c 2,53,-1
 1198 470 l 2,54,55
 1258 749 1258 749 1524 749 c 2,56,-1
 1698 749 l 2,57,58
 1946 749 1946 749 1946 556 c 0,59,60
 1946 517 1946 517 1936 470 c 2,61,-1
 1895 279 l 2,62,63
 1835 0 1835 0 1569 0 c 2,48,-1
651 1304 m 2,64,65
 594 1304 594 1304 582 1248 c 2,66,-1
 536 1030 l 2,67,68
 534 1020 534 1020 534 1012 c 0,69,70
 534 974 534 974 581 974 c 2,71,-1
 791 974 l 2,72,73
 848 974 848 974 860 1030 c 2,74,-1
 906 1248 l 2,75,76
 908 1258 908 1258 908 1266 c 0,77,78
 908 1304 908 1304 861 1304 c 2,79,-1
 651 1304 l 2,64,65
698 1510 m 2,80,-1
 872 1510 l 2,81,82
 1120 1510 1120 1510 1120 1317 c 0,83,84
 1120 1278 1120 1278 1110 1231 c 2,85,-1
 1069 1040 l 2,86,87
 1009 761 1009 761 743 761 c 2,88,-1
 569 761 l 2,89,90
 321 761 321 761 321 954 c 0,91,92
 321 993 321 993 331 1040 c 2,93,-1
 372 1231 l 2,94,95
 432 1510 432 1510 698 1510 c 2,80,-1
747 -20 m 1,96,-1
 534 93 l 1,97,-1
 1510 1530 l 1,98,-1
 1520 1530 l 1,99,-1
 1732 1417 l 1,100,-1
 757 -20 l 1,101,-1
 747 -20 l 1,96,-1
EndSplineSet
Validated: 19457
EndChar

StartChar: minute
Encoding: 8242 8242 143
Width: 450
GlyphClass: 2
Flags: W
HStem: 1140 460
VStem: 287 452
LayerCount: 2
Fore
SplineSet
543 1600 m 1,0,-1
 553 1600 l 1,1,-1
 739 1501 l 1,2,-1
 430 1140 l 1,3,-1
 420 1140 l 1,4,-1
 287 1210 l 1,5,-1
 543 1600 l 1,0,-1
EndSplineSet
Validated: 19457
EndChar

StartChar: second
Encoding: 8243 8243 144
Width: 770
GlyphClass: 2
Flags: W
HStem: 1140 460
LayerCount: 2
Fore
SplineSet
863 1600 m 1,0,-1
 873 1600 l 1,1,-1
 1059 1501 l 1,2,-1
 750 1140 l 1,3,-1
 740 1140 l 1,4,-1
 607 1210 l 1,5,-1
 863 1600 l 1,0,-1
543 1600 m 1,6,-1
 553 1600 l 1,7,-1
 739 1501 l 1,8,-1
 430 1140 l 1,9,-1
 420 1140 l 1,10,-1
 287 1210 l 1,11,-1
 543 1600 l 1,6,-1
EndSplineSet
Validated: 19457
EndChar

StartChar: guilsinglleft
Encoding: 8249 8249 145
Width: 811
GlyphClass: 2
Flags: W
VStem: 270 624
DStem2: 563 731 270 755 0.35398 -0.935253<0 402.274> 270 755 563 731 0.62602 0.779807<164.709 643.749>
LayerCount: 2
Fore
SplineSet
270 755 m 1,0,-1
 673 1257 l 1,1,-1
 683 1257 l 1,2,-1
 894 1145 l 1,3,-1
 563 731 l 1,4,-1
 706 355 l 1,5,-1
 470 253 l 1,6,-1
 460 253 l 1,7,-1
 270 755 l 1,0,-1
EndSplineSet
Validated: 19457
EndChar

StartChar: guilsinglright
Encoding: 8250 8250 146
Width: 811
GlyphClass: 2
Flags: W
VStem: 238 624
DStem2: 238 365 459 253 0.62602 0.779807<51.0121 530.053> 672 1257 426 1155 0.35398 -0.935253<8.31667 410.591>
LayerCount: 2
Fore
SplineSet
862 755 m 1,0,-1
 459 253 l 1,1,-1
 449 253 l 1,2,-1
 238 365 l 1,3,-1
 569 779 l 1,4,-1
 426 1155 l 1,5,-1
 662 1257 l 1,6,-1
 672 1257 l 1,7,-1
 862 755 l 1,0,-1
EndSplineSet
Validated: 19457
EndChar

StartChar: fraction
Encoding: 8260 8260 147
Width: 937
GlyphClass: 2
Flags: W
HStem: -20 21G<205.301 266.57> 1510 20G<992.416 1053.52>
DStem2: 30 93 253 -20 0.561853 0.827237<31.8155 1737.11>
LayerCount: 2
Fore
SplineSet
243 -20 m 1,0,-1
 30 93 l 1,1,-1
 1006 1530 l 1,2,-1
 1016 1530 l 1,3,-1
 1228 1417 l 1,4,-1
 253 -20 l 1,5,-1
 243 -20 l 1,0,-1
EndSplineSet
Validated: 1
EndChar

StartChar: Euro
Encoding: 8364 8364 148
Width: 1440
GlyphClass: 2
Flags: W
HStem: 0 300<645.942 1071.79> 586 140<255 365 714 1034> 786 140<298 407 757 1076> 1210 300<818.923 1243.96>
VStem: 308 329<135.5 528.477> 1254 317<1112.74 1372.5>
DStem2: 240.229 0 560.142 0 0.207912 0.978148<425.151 599.136 1013.21 1300.16>
LayerCount: 2
Fore
SplineSet
680 0 m 2,0,1
 308 0 308 0 308 271 c 0,2,3
 308 321 308 321 321 380 c 2,4,-1
 365 586 l 1,5,-1
 165 586 l 1,6,-1
 167 596 l 1,7,-1
 255 726 l 1,8,-1
 394 726 l 1,9,-1
 407 786 l 1,10,-1
 207 786 l 1,11,-1
 209 796 l 1,12,-1
 298 926 l 1,13,-1
 437 926 l 1,14,-1
 480 1130 l 2,15,16
 560 1510 560 1510 941 1510 c 2,17,-1
 1211 1510 l 2,18,19
 1571 1510 1571 1510 1571 1235 c 0,20,21
 1571 1182 1571 1182 1558 1118 c 1,22,-1
 1227 974 l 1,23,-1
 1217 974 l 1,24,-1
 1252 1139 l 2,25,26
 1254 1150 1254 1150 1254 1160 c 0,27,28
 1254 1210 1254 1210 1187 1210 c 2,29,-1
 897 1210 l 2,30,31
 817 1210 817 1210 802 1139 c 2,32,-1
 757 926 l 1,33,-1
 1167 926 l 1,34,-1
 1165 916 l 1,35,-1
 1076 786 l 1,36,-1
 727 786 l 1,37,-1
 714 726 l 1,38,-1
 1124 726 l 1,39,-1
 1122 716 l 1,40,-1
 1034 586 l 1,41,-1
 685 586 l 1,42,-1
 639 371 l 2,43,44
 637 360 637 360 637 350 c 0,45,46
 637 300 637 300 704 300 c 2,47,-1
 994 300 l 2,48,49
 1074 300 1074 300 1089 371 c 2,50,-1
 1097 410 l 1,51,-1
 1439 558 l 1,52,-1
 1449 558 l 1,53,-1
 1411 380 l 2,54,55
 1330 0 1330 0 950 0 c 2,56,-1
 680 0 l 2,0,1
EndSplineSet
Validated: 19457
EndChar

StartChar: afii61248
Encoding: 8453 8453 149
Width: 1734
GlyphClass: 2
Flags: W
HStem: -20 21G<593.301 654.57> 0 191<1262 1469.3> 604 191<1341.7 1549> 715 191<505.004 696.906> 1319 191<585.939 772.996> 1510 20G<1380.42 1441.52>
VStem: 299 206<789.5 1101.98> 773 192<1266.91 1422> 1056 206<75 386.984> 1549 206<408.016 720>
DStem2: 105.134 -20 304.921 -20 0.207912 0.978148<999.784 1418.33> 418 93 641 -20 0.561853 0.827237<31.8155 1737.11> 1014.11 -20 1213.9 -20 0.207912 0.978148<268.81 687.087> 1419.62 -20 1619.4 -20 0.207912 0.978148<208.105 626.382>
LayerCount: 2
Fore
SplineSet
642 1510 m 2,0,-1
 776 1510 l 2,1,2
 965 1510 965 1510 965 1334 c 0,3,4
 965 1306 965 1306 960 1273 c 1,5,-1
 761 1201 l 1,6,-1
 751 1201 l 1,7,-1
 772 1300 l 2,8,9
 773 1305 773 1305 773 1308 c 0,10,11
 773 1319 773 1319 756 1319 c 2,12,-1
 610 1319 l 2,13,14
 590 1319 590 1319 587 1304 c 2,15,-1
 506 926 l 2,16,17
 505 921 505 921 505 917 c 0,18,19
 505 906 505 906 522 906 c 2,20,-1
 668 906 l 2,21,22
 688 906 688 906 691 921 c 2,23,-1
 697 950 l 1,24,-1
 905 1034 l 1,25,-1
 915 1034 l 1,26,-1
 892 925 l 2,27,28
 848 715 848 715 637 715 c 2,29,-1
 503 715 l 2,30,31
 299 715 299 715 299 864 c 0,32,33
 299 892 299 892 306 925 c 2,34,-1
 386 1300 l 2,35,36
 431 1510 431 1510 642 1510 c 2,0,-1
1263 211 m 2,37,38
 1262 206 1262 206 1262 202 c 0,39,40
 1262 191 1262 191 1279 191 c 2,41,-1
 1445 191 l 2,42,43
 1465 191 1465 191 1468 206 c 2,44,-1
 1548 584 l 2,45,46
 1549 589 1549 589 1549 593 c 0,47,48
 1549 604 1549 604 1532 604 c 2,49,-1
 1366 604 l 2,50,51
 1346 604 1346 604 1343 589 c 2,52,-1
 1263 211 l 2,37,38
1413 0 m 2,53,-1
 1259 0 l 2,54,55
 1056 0 1056 0 1056 150 c 0,56,57
 1056 178 1056 178 1063 210 c 2,58,-1
 1142 585 l 2,59,60
 1186 795 1186 795 1398 795 c 2,61,-1
 1552 795 l 2,62,63
 1755 795 1755 795 1755 645 c 0,64,65
 1755 617 1755 617 1748 585 c 2,66,-1
 1669 210 l 2,67,68
 1625 0 1625 0 1413 0 c 2,53,-1
631 -20 m 1,69,-1
 418 93 l 1,70,-1
 1394 1530 l 1,71,-1
 1404 1530 l 1,72,-1
 1616 1417 l 1,73,-1
 641 -20 l 1,74,-1
 631 -20 l 1,69,-1
EndSplineSet
Validated: 19457
EndChar

StartChar: afii61289
Encoding: 8467 8467 150
Width: 1247
GlyphClass: 2
Flags: W
HStem: -20 236<632 800.645> 0 21G<110 490.364> 1510 20G<1129.5 1227>
LayerCount: 2
Fore
SplineSet
686 -20 m 0,0,1
 578 -20 578 -20 510 44 c 1,2,-1
 474 0 l 1,3,-1
 110 0 l 1,4,5
 306 162 306 162 444 325 c 1,6,7
 453 420 453 420 475 524 c 0,8,9
 509 686 509 686 595 865 c 0,10,11
 773 1240 773 1240 963 1423 c 0,12,13
 1074 1530 1074 1530 1185 1530 c 0,14,15
 1269 1530 1269 1530 1309 1480 c 0,16,17
 1341 1439 1341 1439 1341 1371 c 0,18,19
 1341 1331 1341 1331 1330 1281 c 0,20,21
 1310 1186 1310 1186 1250 1041 c 0,22,23
 1105 688 1105 688 734 272 c 1,24,25
 731 254 731 254 731 242 c 0,26,27
 731 216 731 216 745 216 c 0,28,29
 766 216 766 216 800 260 c 0,30,31
 821 286 821 286 839 319 c 1,32,-1
 1155 319 l 1,33,34
 1025 144 1025 144 910.5 62 c 128,-1,35
 796 -20 796 -20 686 -20 c 0,0,1
EndSplineSet
Validated: 19457
EndChar

StartChar: trademark
Encoding: 8482 8482 151
Width: 1791
GlyphClass: 2
Flags: W
HStem: 1339 191<465 558 758 899 1150.46 1357 1551.8 1762>
VStem: 1762 207<1147.89 1455.5>
DStem2: 427 723 627.058 723 0.207912 0.978148<118.27 629.775> 825 723 1025.06 723 0.207912 0.978148<118.27 679.124> 1230 723 1430.06 723 0.207912 0.978148<118.27 617.083> 1635 723 1835.06 723 0.207912 0.978148<118.27 617.052>
LayerCount: 2
Fore
SplineSet
1206 1530 m 2,0,-1
 1361 1530 l 2,1,2
 1436 1530 1436 1530 1481 1505 c 1,3,4
 1537 1530 1537 1530 1611 1530 c 2,5,-1
 1766 1530 l 2,6,7
 1969 1530 1969 1530 1969 1381 c 0,8,9
 1969 1353 1969 1353 1962 1320 c 2,10,-1
 1851 798 l 1,11,-1
 1645 723 l 1,12,-1
 1635 723 l 1,13,-1
 1760 1313 l 2,14,15
 1762 1322 1762 1322 1762 1327 c 0,16,17
 1762 1339 1762 1339 1746 1339 c 2,18,-1
 1581 1339 l 2,19,20
 1560 1339 1560 1339 1557 1323 c 2,21,-1
 1446 798 l 1,22,-1
 1240 723 l 1,23,-1
 1230 723 l 1,24,-1
 1356 1318 l 2,25,26
 1357 1323 1357 1323 1357 1327 c 0,27,28
 1357 1339 1357 1339 1341 1339 c 2,29,-1
 1176 1339 l 2,30,31
 1155 1339 1155 1339 1152 1323 c 2,32,-1
 1041 798 l 1,33,-1
 835 723 l 1,34,-1
 825 723 l 1,35,-1
 952 1320 l 2,36,37
 997 1530 997 1530 1206 1530 c 2,0,-1
465 1530 m 1,38,-1
 1011 1530 l 1,39,-1
 1009 1520 l 1,40,-1
 899 1339 l 1,41,-1
 758 1339 l 1,42,-1
 643 798 l 1,43,-1
 437 723 l 1,44,-1
 427 723 l 1,45,-1
 558 1339 l 1,46,-1
 345 1339 l 1,47,-1
 347 1349 l 1,48,-1
 465 1530 l 1,38,-1
EndSplineSet
Validated: 19457
EndChar

StartChar: uni2126
Encoding: 8486 8486 152
Width: 1450
GlyphClass: 2
Flags: W
HStem: 0 300<360 546 1061 1154> 1210 300<738.923 1204.97>
VStem: 1214 328<979.93 1374>
DStem2: 160.375 0 480.403 0 0.207912 0.978148<664.403 1300.13> 970.403 0 1290.37 0 0.207912 0.978148<543.696 1184.99>
LayerCount: 2
Fore
SplineSet
688 0 m 1,0,-1
 160 0 l 1,1,-1
 162 10 l 1,2,-1
 360 300 l 1,3,-1
 546 300 l 1,4,5
 291 339 291 339 291 564 c 0,6,7
 291 613 291 613 303 671 c 2,8,-1
 400 1130 l 2,9,10
 480 1510 480 1510 861 1510 c 2,11,-1
 1171 1510 l 2,12,13
 1542 1510 1542 1510 1542 1238 c 0,14,15
 1542 1188 1542 1188 1530 1130 c 2,16,-1
 1433 671 l 2,17,18
 1361 331 1361 331 1061 300 c 1,19,-1
 1354 300 l 1,20,-1
 1352 290 l 1,21,-1
 1154 0 l 1,22,-1
 762 0 l 1,23,-1
 876 534 l 1,24,-1
 1004 534 l 2,25,26
 1084 534 1084 534 1099 605 c 2,27,-1
 1212 1139 l 2,28,29
 1214 1150 1214 1150 1214 1160 c 0,30,31
 1214 1210 1214 1210 1147 1210 c 2,32,-1
 817 1210 l 2,33,34
 737 1210 737 1210 722 1139 c 2,35,-1
 609 605 l 2,36,37
 607 594 607 594 607 584 c 0,38,39
 607 534 607 534 674 534 c 2,40,-1
 802 534 l 1,41,-1
 688 0 l 1,0,-1
EndSplineSet
Validated: 19457
EndChar

StartChar: estimated
Encoding: 8494 8494 153
Width: 1241
GlyphClass: 2
Flags: W
HStem: -20 183<484.071 844.178> 491 189<538 990> 935 185<629.618 988.502>
LayerCount: 2
Fore
SplineSet
615 -20 m 0,0,1
 364 -20 364 -20 245 145 c 0,2,3
 162 260 162 260 162 412 c 0,4,5
 162 479 162 479 178 553 c 0,6,7
 231 802 231 802 420 960 c 0,8,9
 612 1120 612 1120 854 1120 c 0,10,11
 1097 1120 1097 1120 1214 974 c 0,12,13
 1306 858 1306 858 1306 679 c 0,14,15
 1306 593 1306 593 1285 491 c 1,16,-1
 497 491 l 1,17,-1
 444 239 l 1,18,19
 523 163 523 163 654 163 c 0,20,21
 862 163 862 163 1020 351 c 1,22,-1
 1163 255 l 1,23,24
 1003 85 1003 85 873 32.5 c 128,-1,25
 743 -20 743 -20 615 -20 c 0,0,1
990 680 m 1,26,-1
 1028 862 l 1,27,28
 946 935 946 935 816 935 c 0,29,30
 684 935 684 935 576 861 c 1,31,-1
 538 680 l 1,32,-1
 990 680 l 1,26,-1
EndSplineSet
Validated: 19457
EndChar

StartChar: partialdiff
Encoding: 8706 8706 154
Width: 1325
GlyphClass: 2
Flags: W
HStem: -20 273<518.171 730.08> 823 260<742.537 985.899> 1257 273<781.982 1086.06>
VStem: 183 317<275.435 519.417> 1130 310<1024.77 1213.04>
LayerCount: 2
Fore
SplineSet
528 -20 m 0,0,1
 258 -20 258 -20 199 171 c 0,2,3
 183 223 183 223 183 285 c 0,4,5
 183 345 183 345 198 416 c 0,6,7
 253 673 253 673 450.5 878 c 128,-1,8
 648 1083 648 1083 920 1083 c 0,9,10
 1039 1083 1039 1083 1124 1024 c 1,11,12
 1130 1059 1130 1059 1130 1089 c 0,13,14
 1130 1138 1130 1138 1114 1173 c 0,15,16
 1075 1257 1075 1257 953 1257 c 0,17,18
 798 1257 798 1257 621 1132 c 1,19,-1
 687 1443 l 1,20,21
 851 1530 851 1530 1048 1530 c 0,22,23
 1365 1530 1365 1530 1426 1271 c 0,24,25
 1440 1213 1440 1213 1440 1145 c 0,26,27
 1440 1057 1440 1057 1417 950 c 0,28,29
 1335 563 1335 563 1090 272 c 0,30,31
 847 -20 847 -20 528 -20 c 0,0,1
1028 699 m 1,32,33
 1019 756 1019 756 982 788 c 0,34,35
 942 823 942 823 875 823 c 0,36,37
 766 823 766 823 660 706 c 0,38,39
 535 567 535 567 507 431 c 0,40,41
 500 396 500 396 500 367 c 0,42,43
 500 324 500 324 516 295 c 0,44,45
 539 253 539 253 599 253 c 0,46,47
 706 253 706 253 827 376 c 128,-1,48
 948 499 948 499 1028 699 c 1,32,33
EndSplineSet
Validated: 19457
EndChar

StartChar: uni2206
Encoding: 8710 8710 155
Width: 1505
GlyphClass: 2
Flags: W
HStem: 0 300<524 1120> 1510 20G<1143.69 1203.92>
DStem2: 5 0 524 300 0.533902 0.845546<530.759 1381.63> 1200 1530 979 1019 0.192414 -0.981314<458.928 1191.62>
LayerCount: 2
Fore
SplineSet
5 0 m 1,0,-1
 889 1400 l 1,1,-1
 1190 1530 l 1,2,-1
 1200 1530 l 1,3,-1
 1500 0 l 1,4,-1
 5 0 l 1,0,-1
524 300 m 1,5,-1
 1120 300 l 1,6,-1
 979 1019 l 1,7,-1
 524 300 l 1,5,-1
EndSplineSet
Validated: 1
EndChar

StartChar: product
Encoding: 8719 8719 156
Width: 1440
GlyphClass: 2
Flags: W
HStem: -430 21G<69 125.395 869 925.395> 1210 300<749 1217>
DStem2: 69 -430 388.754 -430 0.207912 0.978148<216.765 1743.05> 869 -430 1188.75 -430 0.207912 0.978148<216.765 1676.52>
LayerCount: 2
Fore
SplineSet
79 -430 m 1,0,-1
 69 -430 l 1,1,-1
 454 1384 l 1,2,-1
 749 1510 l 1,3,-1
 1601 1510 l 1,4,-1
 1220 -283 l 1,5,-1
 879 -430 l 1,6,-1
 869 -430 l 1,7,-1
 1217 1210 l 1,8,-1
 737 1210 l 1,9,-1
 420 -283 l 1,10,-1
 79 -430 l 1,0,-1
EndSplineSet
Validated: 19457
EndChar

StartChar: summation
Encoding: 8721 8721 157
Width: 1284
GlyphClass: 2
Flags: W
HStem: -410 300<572 951> 1210 300<815 1289>
DStem2: -27 -410 572 -110 0.591399 0.806379<596.162 1232.67> 815 1210 377 1427 0.359721 -0.93306<0 543.447>
LayerCount: 2
Fore
SplineSet
-27 -410 m 1,0,-1
 702 584 l 1,1,-1
 377 1427 l 1,2,-1
 571 1510 l 1,3,-1
 1489 1510 l 1,4,-1
 1487 1500 l 1,5,-1
 1289 1210 l 1,6,-1
 815 1210 l 1,7,-1
 1067 545 l 1,8,-1
 572 -110 l 1,9,-1
 1151 -110 l 1,10,-1
 1148 -120 l 1,11,-1
 951 -410 l 1,12,-1
 -27 -410 l 1,0,-1
EndSplineSet
Validated: 19457
EndChar

StartChar: minus
Encoding: 8722 8722 158
Width: 1240
GlyphClass: 2
Flags: W
HStem: 620 270<424 1137>
LayerCount: 2
Fore
SplineSet
424 890 m 1,0,-1
 1319 890 l 1,1,-1
 1317 880 l 1,2,-1
 1137 620 l 1,3,-1
 242 620 l 1,4,-1
 244 630 l 1,5,-1
 424 890 l 1,0,-1
EndSplineSet
Validated: 19457
EndChar

StartChar: uni2215
Encoding: 8725 8725 159
Width: 937
GlyphClass: 2
Flags: W
HStem: -20 21G<205.301 266.57> 1510 20G<992.416 1053.52>
DStem2: 30 93 253 -20 0.561853 0.827237<31.8155 1737.11>
LayerCount: 2
Fore
SplineSet
243 -20 m 1,0,-1
 30 93 l 1,1,-1
 1006 1530 l 1,2,-1
 1016 1530 l 1,3,-1
 1228 1417 l 1,4,-1
 253 -20 l 1,5,-1
 243 -20 l 1,0,-1
EndSplineSet
Validated: 1
EndChar

StartChar: uni2219
Encoding: 8729 8729 160
Width: 420
GlyphClass: 2
Flags: W
HStem: 573 365<282.097 458.323>
VStem: 186 369<668.75 842.936>
LayerCount: 2
Fore
SplineSet
409 938 m 0,0,1
 485 938 485 938 526 885 c 0,2,3
 555 847 555 847 555 796 c 0,4,5
 555 777 555 777 551 756 c 0,6,7
 535 681 535 681 470.5 627 c 128,-1,8
 406 573 406 573 332 573 c 0,9,10
 256 573 256 573 216 627 c 0,11,12
 186 666 186 666 186 716 c 0,13,14
 186 735 186 735 190 755 c 0,15,16
 206 831 206 831 270 884 c 0,17,18
 334 938 334 938 409 938 c 0,0,1
EndSplineSet
Validated: 19457
EndChar

StartChar: radical
Encoding: 8730 8730 161
Width: 1119
GlyphClass: 2
Flags: W
HStem: -20 21G<296.505 356.508> 1510 20G<1149.64 1211.17>
DStem2: 513 480 603 106 0.526062 0.850446<0 1234.38>
LayerCount: 2
Fore
SplineSet
310 -20 m 1,0,-1
 300 -20 l 1,1,-1
 167 741 l 1,2,-1
 437 858 l 1,3,-1
 447 858 l 1,4,-1
 513 480 l 1,5,-1
 1162 1530 l 1,6,-1
 1172 1530 l 1,7,-1
 1409 1409 l 1,8,-1
 603 106 l 1,9,-1
 310 -20 l 1,0,-1
EndSplineSet
Validated: 19457
EndChar

StartChar: infinity
Encoding: 8734 8734 162
Width: 1473
GlyphClass: 2
Flags: W
HStem: 387 206<459.09 765.443 978.582 1285.59> 909 213<507.799 814.13 1026.27 1334.03>
VStem: 242 211<484.5 831.312> 816 160<649.02 852.98> 1339 213<677.375 1024.5>
DStem2: 192.697 387 399.31 387 0.207912 0.978148<293.033 579.759> 1237.95 387 1445.07 387 0.207912 0.978148<207.432 494.188>
LayerCount: 2
Fore
SplineSet
1225 593 m 2,0,1
 1282 593 1282 593 1294 649 c 2,2,-1
 1337 853 l 2,3,4
 1339 863 1339 863 1339 871 c 0,5,6
 1339 909 1339 909 1292 909 c 2,7,-1
 1090 909 l 2,8,9
 1033 909 1033 909 1021 853 c 2,10,-1
 978 649 l 2,11,12
 976 639 976 639 976 631 c 0,13,14
 976 593 976 593 1023 593 c 2,15,-1
 1225 593 l 2,0,1
702 593 m 2,16,17
 759 593 759 593 771 649 c 2,18,-1
 814 853 l 2,19,20
 816 863 816 863 816 871 c 0,21,22
 816 909 816 909 769 909 c 2,23,-1
 567 909 l 2,24,25
 510 909 510 909 498 853 c 2,26,-1
 455 649 l 2,27,28
 453 639 453 639 453 631 c 0,29,30
 453 593 453 593 500 593 c 2,31,-1
 702 593 l 2,16,17
615 1122 m 2,32,-1
 781 1122 l 2,33,34
 891 1122 891 1122 950 1079 c 1,35,36
 1026 1122 1026 1122 1138 1122 c 2,37,-1
 1304 1122 l 2,38,39
 1552 1122 1552 1122 1552 927 c 0,40,41
 1552 889 1552 889 1542 843 c 2,42,-1
 1505 666 l 2,43,44
 1447 387 1447 387 1178 387 c 2,45,-1
 1012 387 l 2,46,47
 901 387 901 387 842 430 c 1,48,49
 765 387 765 387 655 387 c 2,50,-1
 489 387 l 2,51,52
 242 387 242 387 242 582 c 0,53,54
 242 620 242 620 252 666 c 2,55,-1
 289 843 l 2,56,57
 347 1122 347 1122 615 1122 c 2,32,-1
EndSplineSet
Validated: 19457
EndChar

StartChar: approxequal
Encoding: 8776 8776 163
Width: 1178
GlyphClass: 2
Flags: W
LayerCount: 2
Fore
SplineSet
1217 747 m 1,0,-1
 1227 747 l 1,1,2
 1125 265 1125 265 838 265 c 0,3,4
 682 265 682 265 588 416 c 0,5,6
 561 459 561 459 554 468 c 0,7,8
 545 479 545 479 533 479 c 0,9,10
 500 479 500 479 481 397 c 1,11,-1
 176 265 l 1,12,-1
 166 265 l 1,13,14
 268 747 268 747 555 747 c 0,15,16
 711 747 711 747 806 596 c 0,17,18
 833 553 833 553 840 544 c 0,19,20
 849 533 849 533 860 533 c 0,21,22
 893 533 893 533 912 615 c 1,23,-1
 1217 747 l 1,0,-1
1323 1247 m 1,24,-1
 1333 1247 l 1,25,26
 1231 765 1231 765 944 765 c 0,27,28
 788 765 788 765 694 916 c 0,29,30
 667 959 667 959 660 968 c 0,31,32
 651 979 651 979 639 979 c 0,33,34
 606 979 606 979 587 897 c 1,35,-1
 282 765 l 1,36,-1
 272 765 l 1,37,38
 374 1247 374 1247 661 1247 c 0,39,40
 817 1247 817 1247 912 1096 c 0,41,42
 939 1053 939 1053 946 1044 c 0,43,44
 955 1033 955 1033 966 1033 c 0,45,46
 999 1033 999 1033 1018 1115 c 1,47,-1
 1323 1247 l 1,24,-1
EndSplineSet
Validated: 3073
EndChar

StartChar: notequal
Encoding: 8800 8800 164
Width: 1240
GlyphClass: 2
Flags: W
HStem: 390 270<375 448 617 631 800 1088> 850 270<473 760 930 943 1113 1186>
DStem2: 298 170 465 166 0.561828 0.827254<90.5163 266.27 687.392 822.097 1243.78 1420.36>
LayerCount: 2
Fore
SplineSet
473 1120 m 1,0,-1
 943 1120 l 1,1,-1
 1096 1345 l 1,2,-1
 1255 1345 l 1,3,-1
 1263 1341 l 1,4,-1
 1113 1120 l 1,5,-1
 1368 1120 l 1,6,-1
 1366 1110 l 1,7,-1
 1186 850 l 1,8,-1
 930 850 l 1,9,-1
 800 660 l 1,10,-1
 1270 660 l 1,11,-1
 1268 650 l 1,12,-1
 1088 390 l 1,13,-1
 617 390 l 1,14,-1
 465 166 l 1,15,-1
 306 166 l 1,16,-1
 298 170 l 1,17,-1
 448 390 l 1,18,-1
 193 390 l 1,19,-1
 195 400 l 1,20,-1
 375 660 l 1,21,-1
 631 660 l 1,22,-1
 760 850 l 1,23,-1
 291 850 l 1,24,-1
 293 860 l 1,25,-1
 473 1120 l 1,0,-1
EndSplineSet
Validated: 19457
EndChar

StartChar: lessequal
Encoding: 8804 8804 165
Width: 1355
GlyphClass: 2
Flags: W
HStem: 154 270<325 1103>
DStem2: 804 910 282 806 0.933479 -0.358631<0 512.014> 452 1059 804 910 0.945892 0.324481<284.606 958.174>
LayerCount: 2
Fore
SplineSet
282 806 m 1,0,-1
 284 816 l 1,1,-1
 452 1059 l 1,2,-1
 1379 1377 l 1,3,-1
 1444 1136 l 1,4,-1
 1442 1126 l 1,5,-1
 804 910 l 1,6,-1
 1346 707 l 1,7,-1
 1343 697 l 1,8,-1
 1180 461 l 1,9,-1
 282 806 l 1,0,-1
325 424 m 1,10,-1
 1285 424 l 1,11,-1
 1283 414 l 1,12,-1
 1103 154 l 1,13,-1
 143 154 l 1,14,-1
 145 164 l 1,15,-1
 325 424 l 1,10,-1
EndSplineSet
Validated: 19457
EndChar

StartChar: greaterequal
Encoding: 8805 8805 166
Width: 1355
GlyphClass: 2
Flags: W
HStem: 154 270<375 1153>
DStem2: 304 712 367 461 0.945892 0.324481<0 673.567> 566 1377 400 1131 0.933479 -0.358631<0 512.014>
LayerCount: 2
Fore
SplineSet
1464 1032 m 1,0,-1
 1462 1022 l 1,1,-1
 1294 779 l 1,2,-1
 367 461 l 1,3,-1
 302 702 l 1,4,-1
 304 712 l 1,5,-1
 942 928 l 1,6,-1
 400 1131 l 1,7,-1
 403 1141 l 1,8,-1
 566 1377 l 1,9,-1
 1464 1032 l 1,0,-1
375 424 m 1,10,-1
 1335 424 l 1,11,-1
 1333 414 l 1,12,-1
 1153 154 l 1,13,-1
 193 154 l 1,14,-1
 195 164 l 1,15,-1
 375 424 l 1,10,-1
EndSplineSet
Validated: 19457
EndChar

StartChar: lozenge
Encoding: 9674 9674 167
Width: 1178
GlyphClass: 2
Flags: W
HStem: -20 21G<575.29 603.16> 1510 20G<896.399 923.176>
DStem2: 217 738 523 721 0.660649 0.750695<189.397 645.741> 672 415 585 -20 0.672237 0.740336<0 449.148>
LayerCount: 2
Fore
SplineSet
672 415 m 1,0,-1
 969 752 l 1,1,-1
 824 1064 l 1,2,-1
 523 721 l 1,3,-1
 672 415 l 1,0,-1
585 -20 m 1,4,-1
 217 738 l 1,5,-1
 914 1530 l 1,6,-1
 1276 741 l 1,7,-1
 585 -20 l 1,4,-1
EndSplineSet
Validated: 19457
EndChar

StartChar: Oslash
Encoding: 216 216 168
Width: 1370
Flags: W
HStem: 0 300<602 991.792> 1210 300<699.208 1088>
DStem2: 111.726 -40 431.427 -40 0.207912 0.978148<487.674 1341.12> 303 54 371 -40 0.562139 0.827043<-39.5166 0 384.422 1385.01 1769.43 1808.39> 921.639 -40 1241.73 -40 0.207912 0.978148<350.861 1204.31>
LayerCount: 2
Fore
SplineSet
870 0 m 2,0,-1
 560 0 l 2,1,2
 474 0 474 0 408 15 c 1,3,-1
 371 -40 l 1,4,-1
 250 -40 l 1,5,-1
 242 -36 l 1,6,-1
 303 54 l 1,7,8
 189 121 189 121 189 271 c 0,9,10
 189 321 189 321 201 380 c 2,11,-1
 360 1130 l 2,12,13
 441 1510 441 1510 821 1510 c 2,14,-1
 1131 1510 l 2,15,16
 1216 1510 1216 1510 1282 1496 c 1,17,-1
 1319 1550 l 1,18,-1
 1440 1550 l 1,19,-1
 1449 1546 l 1,20,-1
 1388 1456 l 1,21,22
 1502 1389 1502 1389 1502 1239 c 0,23,24
 1502 1189 1502 1189 1490 1130 c 2,25,-1
 1331 380 l 2,26,27
 1250 0 1250 0 870 0 c 2,0,-1
519 372 m 1,28,-1
 1088 1210 l 1,29,-1
 777 1210 l 2,30,31
 697 1210 697 1210 682 1139 c 2,32,-1
 519 372 l 1,28,-1
1172 1138 m 1,33,-1
 602 300 l 1,34,-1
 914 300 l 2,35,36
 994 300 994 300 1009 371 c 2,37,-1
 1172 1138 l 1,33,-1
EndSplineSet
Validated: 19457
EndChar

StartChar: oslash
Encoding: 248 248 169
Width: 1190
Flags: W
HStem: 0 280<594 833.453> 820 280<590.547 829>
DStem2: 111.243 -40 411.905 -40 0.207912 0.978148<428.509 943.786> 294 33 377 -40 0.561983 0.827149<-13.7373 0 372.901 951.627 1324.53 1338.26> 761.853 -40 1061.24 -40 0.207912 0.978148<324.967 842.409>
LayerCount: 2
Fore
SplineSet
760 0 m 2,0,-1
 490 0 l 2,1,2
 445 0 445 0 407 4 c 1,3,-1
 377 -40 l 1,4,-1
 256 -40 l 1,5,-1
 247 -36 l 1,6,-1
 294 33 l 1,7,8
 175 86 175 86 175 222 c 0,9,10
 175 261 175 261 185 307 c 2,11,-1
 289 793 l 2,12,13
 355 1100 355 1100 664 1100 c 2,14,-1
 934 1100 l 2,15,16
 978 1100 978 1100 1016 1096 c 1,17,-1
 1046 1140 l 1,18,-1
 1167 1140 l 1,19,-1
 1176 1136 l 1,20,-1
 1129 1067 l 1,21,22
 1249 1015 1249 1015 1249 878 c 0,23,24
 1249 839 1249 839 1239 793 c 2,25,-1
 1135 307 l 2,26,27
 1069 0 1069 0 760 0 c 2,0,-1
790 280 m 2,28,29
 830 280 830 280 837 315 c 2,30,-1
 937 784 l 1,31,-1
 594 280 l 1,32,-1
 790 280 l 2,28,29
488 318 m 1,33,-1
 829 820 l 1,34,-1
 634 820 l 2,35,36
 594 820 594 820 587 785 c 2,37,-1
 488 318 l 1,33,-1
EndSplineSet
Validated: 19457
EndChar

StartChar: multiply
Encoding: 215 215 170
Width: 1232
Flags: W
DStem2: 264 490 521 387 0.771669 0.636024<132.808 411.294 716.76 995.245> 678 1123 377 1020 0.618315 -0.78593<0 225.055 475.197 700.253>
LayerCount: 2
Fore
SplineSet
1283 1027 m 1,0,-1
 1289 1020 l 1,1,-1
 967 755 l 1,2,-1
 1176 490 l 1,3,-1
 1168 483 l 1,4,-1
 875 387 l 1,5,-1
 736 564 l 1,6,-1
 521 387 l 1,7,-1
 270 483 l 1,8,-1
 264 490 l 1,9,-1
 585 755 l 1,10,-1
 377 1020 l 1,11,-1
 385 1027 l 1,12,-1
 678 1123 l 1,13,-1
 817 946 l 1,14,-1
 1032 1123 l 1,15,-1
 1283 1027 l 1,0,-1
EndSplineSet
Validated: 19457
EndChar

StartChar: divide
Encoding: 247 247 171
Width: 1240
Flags: W
HStem: 155 365<604.097 780.323> 620 270<424 1137> 990 365<781.097 957.323>
CounterMasks: 1 e0
LayerCount: 2
Fore
SplineSet
654 155 m 0,0,1
 578 155 578 155 538 209 c 0,2,3
 508 248 508 248 508 298 c 0,4,5
 508 317 508 317 512 337 c 0,6,7
 528 413 528 413 592 466 c 0,8,9
 656 520 656 520 731 520 c 0,10,11
 807 520 807 520 848 467 c 0,12,13
 877 429 877 429 877 378 c 0,14,15
 877 359 877 359 873 338 c 0,16,17
 857 263 857 263 792.5 209 c 128,-1,18
 728 155 728 155 654 155 c 0,0,1
908 1355 m 0,19,20
 984 1355 984 1355 1025 1302 c 0,21,22
 1054 1264 1054 1264 1054 1213 c 0,23,24
 1054 1194 1054 1194 1050 1173 c 0,25,26
 1034 1098 1034 1098 969.5 1044 c 128,-1,27
 905 990 905 990 831 990 c 0,28,29
 755 990 755 990 715 1044 c 0,30,31
 685 1083 685 1083 685 1133 c 0,32,33
 685 1152 685 1152 689 1172 c 0,34,35
 705 1248 705 1248 769 1301 c 0,36,37
 833 1355 833 1355 908 1355 c 0,19,20
424 890 m 1,38,-1
 1319 890 l 1,39,-1
 1317 880 l 1,40,-1
 1137 620 l 1,41,-1
 242 620 l 1,42,-1
 244 630 l 1,43,-1
 424 890 l 1,38,-1
EndSplineSet
Validated: 19457
EndChar

StartChar: uni1E02
Encoding: 7682 7682 172
Width: 1300
Flags: W
HStem: 0 300<544 992.077> 676 285<684 1060.58> 1225 285<749 1107.84> 1589 365<939.097 1115.32>
VStem: 1061 321<409.062 674.303> 1108 307<1008.5 1378.5>
DStem2: 160 0 480.233 0 0.207912 0.978148<373.282 757.699 1048.95 1318.82>
LayerCount: 2
Fore
SplineSet
1066 1954 m 0,0,1
 1142 1954 1142 1954 1183 1901 c 0,2,3
 1212 1863 1212 1863 1212 1812 c 0,4,5
 1212 1793 1212 1793 1208 1772 c 0,6,7
 1192 1697 1192 1697 1127.5 1643 c 128,-1,8
 1063 1589 1063 1589 989 1589 c 0,9,10
 913 1589 913 1589 873 1643 c 0,11,12
 843 1682 843 1682 843 1732 c 0,13,14
 843 1751 843 1751 847 1771 c 0,15,16
 863 1847 863 1847 927 1900 c 0,17,18
 991 1954 991 1954 1066 1954 c 0,0,1
544 300 m 1,19,-1
 914 300 l 2,20,21
 994 300 994 300 1008 367 c 2,22,-1
 1059 609 l 2,23,24
 1061 619 1061 619 1061 628 c 0,25,26
 1061 676 1061 676 994 676 c 2,27,-1
 624 676 l 1,28,-1
 544 300 l 1,19,-1
160 0 m 1,29,-1
 454 1384 l 1,30,-1
 749 1510 l 1,31,-1
 1041 1510 l 2,32,33
 1415 1510 1415 1510 1415 1247 c 0,34,35
 1415 1201 1415 1201 1404 1148 c 2,36,-1
 1388 1072 l 2,37,38
 1358 928 1358 928 1271 866 c 1,39,40
 1382 780 1382 780 1382 655 c 0,41,42
 1382 624 1382 624 1375 590 c 2,43,-1
 1331 380 l 2,44,45
 1251 0 1251 0 870 0 c 2,46,-1
 160 0 l 1,29,-1
684 961 m 1,47,-1
 984 961 l 2,48,49
 1064 961 1064 961 1078 1027 c 2,50,-1
 1106 1159 l 2,51,52
 1108 1169 1108 1169 1108 1177 c 0,53,54
 1108 1225 1108 1225 1040 1225 c 2,55,-1
 740 1225 l 1,56,-1
 684 961 l 1,47,-1
EndSplineSet
Validated: 19457
EndChar

StartChar: uni1E03
Encoding: 7683 7683 173
Width: 1210
Flags: W
HStem: 0 280<506.008 853.453> 820 280<673.656 957.992> 1179 365<893.097 1069.32> 1510 20G<708.768 765>
VStem: 195 311<111 464.398> 958 311<632.156 989>
DStem2: 139.745 0 440.045 0 0.207912 0.978148<374.637 909.878 1180.96 1423.18> 790.045 0 1090.44 0 0.207912 0.978148<284.138 812.394>
LayerCount: 2
Fore
SplineSet
1020 1544 m 0,0,1
 1096 1544 1096 1544 1137 1491 c 0,2,3
 1166 1453 1166 1453 1166 1402 c 0,4,5
 1166 1383 1166 1383 1162 1362 c 0,6,7
 1146 1287 1146 1287 1081.5 1233 c 128,-1,8
 1017 1179 1017 1179 943 1179 c 0,9,10
 867 1179 867 1179 827 1233 c 0,11,12
 797 1272 797 1272 797 1322 c 0,13,14
 797 1341 797 1341 801 1361 c 0,15,16
 817 1437 817 1437 881 1490 c 0,17,18
 945 1544 945 1544 1020 1544 c 0,0,1
510 0 m 2,19,20
 195 0 195 0 195 222 c 0,21,22
 195 261 195 261 205 307 c 2,23,-1
 436 1392 l 1,24,-1
 755 1530 l 1,25,-1
 765 1530 l 1,26,-1
 673 1094 l 1,27,28
 694 1100 694 1100 714 1100 c 2,29,-1
 954 1100 l 2,30,31
 1269 1100 1269 1100 1269 878 c 0,32,33
 1269 839 1269 839 1259 793 c 2,34,-1
 1155 307 l 2,35,36
 1089 0 1089 0 780 0 c 2,37,-1
 510 0 l 2,19,20
540 280 m 2,38,-1
 810 280 l 2,39,40
 850 280 850 280 857 315 c 2,41,-1
 957 785 l 2,42,43
 958 790 958 790 958 795 c 0,44,45
 958 820 958 820 924 820 c 2,46,-1
 654 820 l 2,47,48
 614 820 614 820 607 785 c 2,49,-1
 507 315 l 2,50,51
 506 310 506 310 506 305 c 0,52,53
 506 280 506 280 540 280 c 2,38,-1
EndSplineSet
Validated: 19457
EndChar

StartChar: uni1E0A
Encoding: 7690 7690 174
Width: 1390
Flags: W
HStem: 0 300<544 1011.79> 1210 300<749 1184.97> 1589 365<974.097 1150.32>
VStem: 1194 328<980.328 1374.5>
DStem2: 160 0 480.233 0 0.207912 0.978148<373.282 1303.52> 950.142 0 1270.23 0 0.207912 0.978148<309.967 1185.05>
LayerCount: 2
Fore
SplineSet
1101 1954 m 0,0,1
 1177 1954 1177 1954 1218 1901 c 0,2,3
 1247 1863 1247 1863 1247 1812 c 0,4,5
 1247 1793 1247 1793 1243 1772 c 0,6,7
 1227 1697 1227 1697 1162.5 1643 c 128,-1,8
 1098 1589 1098 1589 1024 1589 c 0,9,10
 948 1589 948 1589 908 1643 c 0,11,12
 878 1682 878 1682 878 1732 c 0,13,14
 878 1751 878 1751 882 1771 c 0,15,16
 898 1847 898 1847 962 1900 c 0,17,18
 1026 1954 1026 1954 1101 1954 c 0,0,1
544 300 m 1,19,-1
 934 300 l 2,20,21
 1014 300 1014 300 1029 371 c 2,22,-1
 1192 1139 l 2,23,24
 1194 1150 1194 1150 1194 1160 c 0,25,26
 1194 1210 1194 1210 1127 1210 c 2,27,-1
 737 1210 l 1,28,-1
 544 300 l 1,19,-1
160 0 m 1,29,-1
 454 1383 l 1,30,-1
 749 1510 l 1,31,-1
 1151 1510 l 2,32,33
 1522 1510 1522 1510 1522 1239 c 0,34,35
 1522 1189 1522 1189 1510 1130 c 2,36,-1
 1351 380 l 2,37,38
 1270 0 1270 0 890 0 c 2,39,-1
 160 0 l 1,29,-1
EndSplineSet
Validated: 19457
EndChar

StartChar: uni1E0B
Encoding: 7691 7691 175
Width: 1210
Flags: W
HStem: 0 280<486.008 833.672> 820 280<590.547 937.458> 1179 365<709.097 885.323>
VStem: 175 311<111 467.844>
DStem2: 119.745 0 420.045 0 0.207912 0.978148<374.637 902.892> 770.143 0 1069.75 0 0.207912 0.978148<284.173 812.374 1114.5 1423.09>
LayerCount: 2
Fore
SplineSet
836 1544 m 0,0,1
 912 1544 912 1544 953 1491 c 0,2,3
 982 1453 982 1453 982 1402 c 0,4,5
 982 1383 982 1383 978 1362 c 0,6,7
 962 1287 962 1287 897.5 1233 c 128,-1,8
 833 1179 833 1179 759 1179 c 0,9,10
 683 1179 683 1179 643 1233 c 0,11,12
 613 1272 613 1272 613 1322 c 0,13,14
 613 1341 613 1341 617 1361 c 0,15,16
 633 1437 633 1437 697 1490 c 0,17,18
 761 1544 761 1544 836 1544 c 0,0,1
490 0 m 2,19,20
 175 0 175 0 175 222 c 0,21,22
 175 261 175 261 185 307 c 2,23,-1
 289 793 l 2,24,25
 355 1100 355 1100 664 1100 c 2,26,-1
 934 1100 l 2,27,28
 971 1100 971 1100 1003 1094 c 1,29,-1
 1066 1392 l 1,30,-1
 1385 1530 l 1,31,-1
 1395 1530 l 1,32,-1
 1135 307 l 2,33,34
 1070 0 1070 0 760 0 c 2,35,-1
 490 0 l 2,19,20
790 280 m 2,36,37
 830 280 830 280 837 315 c 2,38,-1
 937 785 l 2,39,40
 938 790 938 790 938 795 c 0,41,42
 938 820 938 820 904 820 c 2,43,-1
 634 820 l 2,44,45
 594 820 594 820 587 785 c 2,46,-1
 487 315 l 2,47,48
 486 310 486 310 486 305 c 0,49,50
 486 280 486 280 520 280 c 2,51,-1
 790 280 l 2,36,37
EndSplineSet
Validated: 19457
EndChar

StartChar: uni1E1E
Encoding: 7710 7710 176
Width: 1050
Flags: W
HStem: -20 21G<156 212.395> 605 300<672 1033> 1210 300<749 1161> 1589 365<897.097 1073.32>
DStem2: 156 -20 475.754 -20 0.207912 0.978148<216.765 705.526 1012.07 1323.92>
LayerCount: 2
Fore
SplineSet
1024 1954 m 0,0,1
 1100 1954 1100 1954 1141 1901 c 0,2,3
 1170 1863 1170 1863 1170 1812 c 0,4,5
 1170 1793 1170 1793 1166 1772 c 0,6,7
 1150 1697 1150 1697 1085.5 1643 c 128,-1,8
 1021 1589 1021 1589 947 1589 c 0,9,10
 871 1589 871 1589 831 1643 c 0,11,12
 801 1682 801 1682 801 1732 c 0,13,14
 801 1751 801 1751 805 1771 c 0,15,16
 821 1847 821 1847 885 1900 c 0,17,18
 949 1954 949 1954 1024 1954 c 0,0,1
166 -20 m 1,19,-1
 156 -20 l 1,20,-1
 454 1384 l 1,21,-1
 749 1510 l 1,22,-1
 1361 1510 l 1,23,-1
 1359 1500 l 1,24,-1
 1161 1210 l 1,25,-1
 737 1210 l 1,26,-1
 672 905 l 1,27,-1
 1232 905 l 1,28,-1
 1230 895 l 1,29,-1
 1033 605 l 1,30,-1
 609 605 l 1,31,-1
 507 127 l 1,32,-1
 166 -20 l 1,19,-1
EndSplineSet
Validated: 19457
EndChar

StartChar: uni1E1F
Encoding: 7711 7711 177
Width: 860
Flags: W
HStem: -20 21G<136 192.232> 662 280<640 823> 1230 280<697.328 982> 1589 365<754.097 930.323>
DStem2: 136 -20 435.667 -20 0.207912 0.978148<203.387 759.617 1045.77 1342.31>
LayerCount: 2
Fore
SplineSet
881 1954 m 0,0,1
 957 1954 957 1954 998 1901 c 0,2,3
 1027 1863 1027 1863 1027 1812 c 0,4,5
 1027 1793 1027 1793 1023 1772 c 0,6,7
 1007 1697 1007 1697 942.5 1643 c 128,-1,8
 878 1589 878 1589 804 1589 c 0,9,10
 728 1589 728 1589 688 1643 c 0,11,12
 658 1682 658 1682 658 1732 c 0,13,14
 658 1751 658 1751 662 1771 c 0,15,16
 678 1847 678 1847 742 1900 c 0,17,18
 806 1954 806 1954 881 1954 c 0,0,1
146 -20 m 1,19,-1
 136 -20 l 1,20,-1
 396 1203 l 2,21,22
 461 1510 461 1510 771 1510 c 2,23,-1
 1171 1510 l 1,24,-1
 1169 1500 l 1,25,-1
 982 1230 l 1,26,-1
 741 1230 l 2,27,28
 701 1230 701 1230 694 1195 c 2,29,-1
 640 942 l 1,30,-1
 1011 942 l 1,31,-1
 1009 932 l 1,32,-1
 823 662 l 1,33,-1
 581 662 l 1,34,-1
 465 118 l 1,35,-1
 146 -20 l 1,19,-1
EndSplineSet
Validated: 19457
EndChar

StartChar: uni1E40
Encoding: 7744 7744 178
Width: 2220
Flags: W
HStem: -20 21G<136 192.395 946 1002.39 1756 1812.39> 1210 300<719.208 1192.93 1524.56 1995.06> 1589 365<1392.1 1568.32>
VStem: 2004 329<991.539 1374.5>
DStem2: 136 -20 455.754 -20 0.207912 0.978148<216.765 1320.67> 946 -20 1265.75 -20 0.207912 0.978148<216.765 1205.47> 1756 -20 2075.75 -20 0.207912 0.978148<216.765 1205.47>
LayerCount: 2
Fore
SplineSet
1519 1954 m 0,0,1
 1595 1954 1595 1954 1636 1901 c 0,2,3
 1665 1863 1665 1863 1665 1812 c 0,4,5
 1665 1793 1665 1793 1661 1772 c 0,6,7
 1645 1697 1645 1697 1580.5 1643 c 128,-1,8
 1516 1589 1516 1589 1442 1589 c 0,9,10
 1366 1589 1366 1589 1326 1643 c 0,11,12
 1296 1682 1296 1682 1296 1732 c 0,13,14
 1296 1751 1296 1751 1300 1771 c 0,15,16
 1316 1847 1316 1847 1380 1900 c 0,17,18
 1444 1954 1444 1954 1519 1954 c 0,0,1
146 -20 m 1,19,-1
 136 -20 l 1,20,-1
 380 1130 l 2,21,22
 461 1510 461 1510 841 1510 c 2,23,-1
 1151 1510 l 2,24,25
 1305 1510 1305 1510 1389 1456 c 1,26,27
 1496 1510 1496 1510 1651 1510 c 2,28,-1
 1961 1510 l 2,29,30
 2333 1510 2333 1510 2333 1239 c 0,31,32
 2333 1189 2333 1189 2320 1130 c 2,33,-1
 2107 127 l 1,34,-1
 1766 -20 l 1,35,-1
 1756 -20 l 1,36,-1
 2002 1139 l 2,37,38
 2004 1150 2004 1150 2004 1160 c 0,39,40
 2004 1210 2004 1210 1937 1210 c 2,41,-1
 1607 1210 l 2,42,43
 1527 1210 1527 1210 1512 1139 c 2,44,-1
 1297 127 l 1,45,-1
 956 -20 l 1,46,-1
 946 -20 l 1,47,-1
 1192 1139 l 2,48,49
 1194 1150 1194 1150 1194 1160 c 0,50,51
 1194 1210 1194 1210 1127 1210 c 2,52,-1
 797 1210 l 2,53,54
 717 1210 717 1210 702 1139 c 2,55,-1
 487 127 l 1,56,-1
 146 -20 l 1,19,-1
EndSplineSet
Validated: 19457
EndChar

StartChar: uni1E41
Encoding: 7745 7745 179
Width: 1880
Flags: W
HStem: -20 21G<136 192.232 786 842.232 1436 1492.23> 820 280<610.328 957.551 1257 1607.99> 1179 365<1133.1 1309.32>
VStem: 1608 311<634.43 989>
DStem2: 136 -20 435.667 -20 0.207912 0.978148<203.387 923.179> 786 -20 1085.67 -20 0.207912 0.978148<203.387 832.798> 1436 -20 1735.67 -20 0.207912 0.978148<203.387 832.798>
LayerCount: 2
Fore
SplineSet
1260 1544 m 0,0,1
 1336 1544 1336 1544 1377 1491 c 0,2,3
 1406 1453 1406 1453 1406 1402 c 0,4,5
 1406 1383 1406 1383 1402 1362 c 0,6,7
 1386 1287 1386 1287 1321.5 1233 c 128,-1,8
 1257 1179 1257 1179 1183 1179 c 0,9,10
 1107 1179 1107 1179 1067 1233 c 0,11,12
 1037 1272 1037 1272 1037 1322 c 0,13,14
 1037 1341 1037 1341 1041 1361 c 0,15,16
 1057 1437 1057 1437 1121 1490 c 0,17,18
 1185 1544 1185 1544 1260 1544 c 0,0,1
146 -20 m 1,19,-1
 136 -20 l 1,20,-1
 309 793 l 2,21,22
 374 1100 374 1100 684 1100 c 2,23,-1
 954 1100 l 2,24,25
 1068 1100 1068 1100 1136 1065 c 1,26,27
 1219 1100 1219 1100 1334 1100 c 2,28,-1
 1604 1100 l 2,29,30
 1919 1100 1919 1100 1919 878 c 0,31,32
 1919 839 1919 839 1909 793 c 2,33,-1
 1765 118 l 1,34,-1
 1446 -20 l 1,35,-1
 1436 -20 l 1,36,-1
 1607 785 l 2,37,38
 1608 790 1608 790 1608 795 c 0,39,40
 1608 820 1608 820 1574 820 c 2,41,-1
 1304 820 l 2,42,43
 1264 820 1264 820 1257 785 c 2,44,-1
 1115 118 l 1,45,-1
 796 -20 l 1,46,-1
 786 -20 l 1,47,-1
 957 785 l 2,48,49
 958 790 958 790 958 795 c 0,50,51
 958 820 958 820 924 820 c 2,52,-1
 654 820 l 2,53,54
 614 820 614 820 607 785 c 2,55,-1
 465 118 l 1,56,-1
 146 -20 l 1,19,-1
EndSplineSet
Validated: 19457
EndChar

StartChar: uni1E56
Encoding: 7766 7766 180
Width: 1250
Flags: W
HStem: -20 21G<156 212.395> 440 300<637 1045.82> 1210 300<749 1124.87> 1589 365<930.097 1106.32>
VStem: 1134 327<972.703 1372>
DStem2: 156 -20 475.754 -20 0.207912 0.978148<216.765 536.855 843.398 1323.92> 885.365 -20 1205.75 -20 0.207912 0.978148<775.253 1205.6>
LayerCount: 2
Fore
SplineSet
1057 1954 m 0,0,1
 1133 1954 1133 1954 1174 1901 c 0,2,3
 1203 1863 1203 1863 1203 1812 c 0,4,5
 1203 1793 1203 1793 1199 1772 c 0,6,7
 1183 1697 1183 1697 1118.5 1643 c 128,-1,8
 1054 1589 1054 1589 980 1589 c 0,9,10
 904 1589 904 1589 864 1643 c 0,11,12
 834 1682 834 1682 834 1732 c 0,13,14
 834 1751 834 1751 838 1771 c 0,15,16
 854 1847 854 1847 918 1900 c 0,17,18
 982 1954 982 1954 1057 1954 c 0,0,1
166 -20 m 1,19,-1
 156 -20 l 1,20,-1
 454 1383 l 1,21,-1
 749 1510 l 1,22,-1
 1091 1510 l 2,23,24
 1461 1510 1461 1510 1461 1234 c 0,25,26
 1461 1183 1461 1183 1448 1122 c 2,27,-1
 1386 828 l 2,28,29
 1304 440 1304 440 924 440 c 2,30,-1
 574 440 l 1,31,-1
 507 127 l 1,32,-1
 166 -20 l 1,19,-1
637 740 m 1,33,-1
 967 740 l 2,34,35
 1047 740 1047 740 1062 811 c 2,36,-1
 1132 1139 l 2,37,38
 1134 1150 1134 1150 1134 1160 c 0,39,40
 1134 1210 1134 1210 1067 1210 c 2,41,-1
 737 1210 l 1,42,-1
 637 740 l 1,33,-1
EndSplineSet
Validated: 19457
EndChar

StartChar: uni1E57
Encoding: 7767 7767 181
Width: 1210
Flags: W
HStem: -430 21G<49 105.232> 0 280<506.905 853.453> 820 280<610.328 957.992> 1179 365<814.097 990.323>
VStem: 958 311<632.156 989>
DStem2: 49 -430 348.667 -430 0.207912 0.978148<203.387 511.797 814.107 1342.31> 698.645 -430 999.043 -430 0.207912 0.978148<723.745 1252>
LayerCount: 2
Fore
SplineSet
941 1544 m 0,0,1
 1017 1544 1017 1544 1058 1491 c 0,2,3
 1087 1453 1087 1453 1087 1402 c 0,4,5
 1087 1383 1087 1383 1083 1362 c 0,6,7
 1067 1287 1067 1287 1002.5 1233 c 128,-1,8
 938 1179 938 1179 864 1179 c 0,9,10
 788 1179 788 1179 748 1233 c 0,11,12
 718 1272 718 1272 718 1322 c 0,13,14
 718 1341 718 1341 722 1361 c 0,15,16
 738 1437 738 1437 802 1490 c 0,17,18
 866 1544 866 1544 941 1544 c 0,0,1
780 0 m 2,19,-1
 510 0 l 2,20,21
 460 0 460 0 441 6 c 1,22,-1
 378 -292 l 1,23,-1
 59 -430 l 1,24,-1
 49 -430 l 1,25,-1
 309 793 l 2,26,27
 374 1100 374 1100 684 1100 c 2,28,-1
 954 1100 l 2,29,30
 1269 1100 1269 1100 1269 878 c 0,31,32
 1269 839 1269 839 1259 793 c 2,33,-1
 1155 307 l 2,34,35
 1089 0 1089 0 780 0 c 2,19,-1
654 820 m 2,36,37
 614 820 614 820 607 785 c 2,38,-1
 507 315 l 2,39,40
 506 310 506 310 506 305 c 0,41,42
 506 280 506 280 540 280 c 2,43,-1
 810 280 l 2,44,45
 850 280 850 280 857 315 c 2,46,-1
 957 785 l 2,47,48
 958 790 958 790 958 795 c 0,49,50
 958 820 958 820 924 820 c 2,51,-1
 654 820 l 2,36,37
EndSplineSet
Validated: 19457
EndChar

StartChar: uni1E6A
Encoding: 7786 7786 182
Width: 1190
Flags: W
HStem: -20 21G<431 487.712> 1210 300<467 692 1012 1301> 1589 365<877.097 1053.32>
DStem2: 431 -20 750.967 -20 0.207912 0.978148<215.787 1257.39>
LayerCount: 2
Fore
SplineSet
1004 1954 m 0,0,1
 1080 1954 1080 1954 1121 1901 c 0,2,3
 1150 1863 1150 1863 1150 1812 c 0,4,5
 1150 1793 1150 1793 1146 1772 c 0,6,7
 1130 1697 1130 1697 1065.5 1643 c 128,-1,8
 1001 1589 1001 1589 927 1589 c 0,9,10
 851 1589 851 1589 811 1643 c 0,11,12
 781 1682 781 1682 781 1732 c 0,13,14
 781 1751 781 1751 785 1771 c 0,15,16
 801 1847 801 1847 865 1900 c 0,17,18
 929 1954 929 1954 1004 1954 c 0,0,1
441 -20 m 1,19,-1
 431 -20 l 1,20,-1
 692 1210 l 1,21,-1
 267 1210 l 1,22,-1
 269 1220 l 1,23,-1
 467 1510 l 1,24,-1
 1501 1510 l 1,25,-1
 1499 1500 l 1,26,-1
 1301 1210 l 1,27,-1
 1012 1210 l 1,28,-1
 782 126 l 1,29,-1
 441 -20 l 1,19,-1
EndSplineSet
Validated: 1
EndChar

StartChar: uni1E6B
Encoding: 7787 7787 183
Width: 890
Flags: W
HStem: -20 21G<296 352.316> 820 280<373 474 824 925> 1510 20G<858.684 915> 1589 365<733.097 909.323>
DStem2: 296 -20 585.73 -20 0.207912 0.978148<196.21 858.652 1205.3 1448.62>
LayerCount: 2
Fore
SplineSet
860 1954 m 0,0,1
 936 1954 936 1954 977 1901 c 0,2,3
 1006 1863 1006 1863 1006 1812 c 0,4,5
 1006 1793 1006 1793 1002 1772 c 0,6,7
 986 1697 986 1697 921.5 1643 c 128,-1,8
 857 1589 857 1589 783 1589 c 0,9,10
 707 1589 707 1589 667 1643 c 0,11,12
 637 1682 637 1682 637 1732 c 0,13,14
 637 1751 637 1751 641 1771 c 0,15,16
 657 1847 657 1847 721 1900 c 0,17,18
 785 1954 785 1954 860 1954 c 0,0,1
306 -20 m 1,19,-1
 296 -20 l 1,20,-1
 474 820 l 1,21,-1
 184 820 l 1,22,-1
 186 830 l 1,23,-1
 373 1100 l 1,24,-1
 534 1100 l 1,25,-1
 597 1397 l 1,26,-1
 905 1530 l 1,27,-1
 915 1530 l 1,28,-1
 824 1100 l 1,29,-1
 1114 1100 l 1,30,-1
 1112 1090 l 1,31,-1
 925 820 l 1,32,-1
 764 820 l 1,33,-1
 614 113 l 1,34,-1
 306 -20 l 1,19,-1
EndSplineSet
Validated: 1
EndChar

StartChar: uni1E60
Encoding: 7776 7776 184
Width: 1150
Flags: W
HStem: 0 300<416.164 841.223> 683 301<644.066 903.058> 1220 290<677.015 954.983> 1589 365<857.097 1033.32>
VStem: 98 318<136 388.97> 321 323<808.5 1183.96> 913 328<453.562 848>
LayerCount: 2
Fore
SplineSet
984 1954 m 0,0,1
 1060 1954 1060 1954 1101 1901 c 0,2,3
 1130 1863 1130 1863 1130 1812 c 0,4,5
 1130 1793 1130 1793 1126 1772 c 0,6,7
 1110 1697 1110 1697 1045.5 1643 c 128,-1,8
 981 1589 981 1589 907 1589 c 0,9,10
 831 1589 831 1589 791 1643 c 0,11,12
 761 1682 761 1682 761 1732 c 0,13,14
 761 1751 761 1751 765 1771 c 0,15,16
 781 1847 781 1847 845 1900 c 0,17,18
 909 1954 909 1954 984 1954 c 0,0,1
720 0 m 2,19,-1
 460 0 l 2,20,21
 98 0 98 0 98 272 c 0,22,23
 98 323 98 323 111 383 c 1,24,-1
 442 526 l 1,25,-1
 452 526 l 1,26,-1
 418 367 l 2,27,28
 416 357 416 357 416 349 c 0,29,30
 416 300 416 300 484 300 c 2,31,-1
 764 300 l 2,32,33
 844 300 844 300 858 367 c 2,34,-1
 911 616 l 2,35,36
 913 626 913 626 913 634 c 0,37,38
 913 683 913 683 845 683 c 2,39,-1
 648 683 l 2,40,41
 321 683 321 683 321 934 c 0,42,43
 321 985 321 985 335 1047 c 2,44,-1
 362 1170 l 2,45,46
 437 1510 437 1510 764 1510 c 2,47,-1
 948 1510 l 2,48,49
 1268 1510 1268 1510 1268 1268 c 0,50,51
 1268 1225 1268 1225 1258 1175 c 1,52,-1
 937 1036 l 1,53,-1
 927 1036 l 1,54,-1
 953 1158 l 2,55,56
 955 1167 955 1167 955 1174 c 0,57,58
 955 1220 955 1220 886 1220 c 2,59,-1
 762 1220 l 2,60,61
 682 1220 682 1220 668 1154 c 2,62,-1
 646 1050 l 2,63,64
 644 1040 644 1040 644 1032 c 0,65,66
 644 984 644 984 712 984 c 2,67,-1
 869 984 l 2,68,69
 1241 984 1241 984 1241 712 c 0,70,71
 1241 661 1241 661 1228 601 c 2,72,-1
 1181 383 l 2,73,74
 1098 0 1098 0 720 0 c 2,19,-1
EndSplineSet
Validated: 19457
EndChar

StartChar: uni1E61
Encoding: 7777 7777 185
Width: 941
Flags: W
HStem: 0 255<371.45 673.121> 443 251<502.009 694.934> 850 250<526.851 750.991> 1179 365<663.097 839.323>
VStem: 73 298<106.5 291.133> 224 278<544.5 829.294> 699 300<262.619 592.5>
LayerCount: 2
Fore
SplineSet
790 1544 m 0,0,1
 866 1544 866 1544 907 1491 c 0,2,3
 936 1453 936 1453 936 1402 c 0,4,5
 936 1383 936 1383 932 1362 c 0,6,7
 916 1287 916 1287 851.5 1233 c 128,-1,8
 787 1179 787 1179 713 1179 c 0,9,10
 637 1179 637 1179 597 1233 c 0,11,12
 567 1272 567 1272 567 1322 c 0,13,14
 567 1341 567 1341 571 1361 c 0,15,16
 587 1437 587 1437 651 1490 c 0,17,18
 715 1544 715 1544 790 1544 c 0,0,1
381 0 m 2,19,20
 73 0 73 0 73 213 c 0,21,22
 73 249 73 249 82 291 c 1,23,-1
 391 423 l 1,24,-1
 401 423 l 1,25,-1
 372 286 l 2,26,27
 371 281 371 281 371 277 c 0,28,29
 371 255 371 255 405 255 c 2,30,-1
 625 255 l 2,31,32
 666 255 666 255 672 286 c 2,33,-1
 698 411 l 2,34,35
 699 416 699 416 699 420 c 0,36,37
 699 443 699 443 665 443 c 2,38,-1
 503 443 l 2,39,40
 224 443 224 443 224 646 c 0,41,42
 224 685 224 685 234 731 c 2,43,-1
 254 822 l 2,44,45
 315 1100 315 1100 583 1100 c 2,46,-1
 751 1100 l 2,47,48
 1018 1100 1018 1100 1018 898 c 0,49,50
 1018 879 1018 879 1016 859 c 1,51,-1
 742 740 l 1,52,-1
 732 740 l 1,53,-1
 750 824 l 2,54,55
 751 827 751 827 751 830 c 0,56,57
 751 850 751 850 716 850 c 2,58,-1
 570 850 l 2,59,60
 530 850 530 850 524 821 c 2,61,-1
 503 724 l 2,62,63
 502 720 502 720 502 717 c 0,64,65
 502 694 502 694 537 694 c 2,66,-1
 675 694 l 2,67,68
 999 694 999 694 999 491 c 0,69,70
 999 459 999 459 991 422 c 2,71,-1
 967 311 l 2,72,73
 900 0 900 0 591 0 c 2,74,-1
 381 0 l 2,19,20
EndSplineSet
Validated: 19457
EndChar

StartChar: Wgrave
Encoding: 7808 7808 186
Width: 2220
Flags: W
HStem: 0 300<545.942 1019.33 1348.05 1821.79> 1510 20G<728.605 785 1538.61 1595 2348.61 2405>
VStem: 208 329<135.5 518.461>
DStem2: 140.229 0 460.142 0 0.207912 0.978148<425.151 1413.86> 950.142 0 1270.14 0 0.207912 0.978148<425.169 1413.87> 1511 1980 1303 1895 0.255077 -0.966921<29.1322 337.153> 1760.14 0 2080.23 0 0.207912 0.978148<309.967 1413.87>
LayerCount: 2
Fore
SplineSet
580 0 m 2,0,1
 208 0 208 0 208 271 c 0,2,3
 208 321 208 321 221 380 c 2,4,-1
 434 1383 l 1,5,-1
 775 1530 l 1,6,-1
 785 1530 l 1,7,-1
 539 371 l 2,8,9
 537 360 537 360 537 350 c 0,10,11
 537 300 537 300 604 300 c 2,12,-1
 934 300 l 2,13,14
 1014 300 1014 300 1029 371 c 2,15,-1
 1244 1383 l 1,16,-1
 1585 1530 l 1,17,-1
 1595 1530 l 1,18,-1
 1349 371 l 2,19,20
 1347 360 1347 360 1347 350 c 0,21,22
 1347 300 1347 300 1414 300 c 2,23,-1
 1744 300 l 2,24,25
 1824 300 1824 300 1839 371 c 2,26,-1
 2054 1383 l 1,27,-1
 2395 1530 l 1,28,-1
 2405 1530 l 1,29,-1
 2161 380 l 2,30,31
 2080 0 2080 0 1700 0 c 2,32,-1
 1390 0 l 2,33,34
 1236 0 1236 0 1151 54 c 1,35,36
 1044 0 1044 0 890 0 c 2,37,-1
 580 0 l 2,0,1
1501 1980 m 1,38,-1
 1511 1980 l 1,39,-1
 1597 1654 l 1,40,-1
 1401 1570 l 1,41,-1
 1391 1570 l 1,42,-1
 1303 1895 l 1,43,-1
 1501 1980 l 1,38,-1
EndSplineSet
Validated: 19457
EndChar

StartChar: wgrave
Encoding: 7809 7809 187
Width: 1880
Flags: W
HStem: 0 280<506.008 856.999 1156.45 1503.67> 1100 20G<621.768 678 1271.77 1328 1921.77 1978>
VStem: 195 311<111 465.57>
DStem2: 139.745 0 440.045 0 0.207912 0.978148<374.637 1004.05> 790.045 0 1090.04 0 0.207912 0.978148<374.574 1003.99> 1243 1570 1035 1485 0.252301 -0.967649<29.7715 336.899> 1440.27 0 1739.75 0 0.207912 0.978148<284.147 1003.94>
LayerCount: 2
Fore
SplineSet
510 0 m 2,0,1
 195 0 195 0 195 222 c 0,2,3
 195 261 195 261 205 307 c 2,4,-1
 349 982 l 1,5,-1
 668 1120 l 1,6,-1
 678 1120 l 1,7,-1
 507 315 l 2,8,9
 506 310 506 310 506 305 c 0,10,11
 506 280 506 280 540 280 c 2,12,-1
 810 280 l 2,13,14
 850 280 850 280 857 315 c 2,15,-1
 999 982 l 1,16,-1
 1318 1120 l 1,17,-1
 1328 1120 l 1,18,-1
 1157 315 l 2,19,20
 1156 310 1156 310 1156 305 c 0,21,22
 1156 280 1156 280 1190 280 c 2,23,-1
 1460 280 l 2,24,25
 1500 280 1500 280 1507 315 c 2,26,-1
 1649 982 l 1,27,-1
 1968 1120 l 1,28,-1
 1978 1120 l 1,29,-1
 1805 307 l 2,30,31
 1740 0 1740 0 1430 0 c 2,32,-1
 1160 0 l 2,33,34
 1046 0 1046 0 977 35 c 1,35,36
 894 0 894 0 780 0 c 2,37,-1
 510 0 l 2,0,1
1233 1570 m 1,38,-1
 1243 1570 l 1,39,-1
 1328 1244 l 1,40,-1
 1133 1160 l 1,41,-1
 1123 1160 l 1,42,-1
 1035 1485 l 1,43,-1
 1233 1570 l 1,38,-1
EndSplineSet
Validated: 19457
EndChar

StartChar: Wacute
Encoding: 7810 7810 188
Width: 2220
Flags: W
HStem: 0 300<545.942 1019.33 1348.05 1821.79> 1510 20G<728.605 785 1538.61 1595 2348.61 2405>
VStem: 208 329<135.5 518.461>
DStem2: 140.229 0 460.142 0 0.207912 0.978148<425.151 1413.86> 950.142 0 1270.14 0 0.207912 0.978148<425.169 1413.87> 1298 1654 1468 1570 0.570916 0.821008<28.0911 395.534> 1760.14 0 2080.23 0 0.207912 0.978148<309.967 1413.87>
LayerCount: 2
Fore
SplineSet
580 0 m 2,0,1
 208 0 208 0 208 271 c 0,2,3
 208 321 208 321 221 380 c 2,4,-1
 434 1383 l 1,5,-1
 775 1530 l 1,6,-1
 785 1530 l 1,7,-1
 539 371 l 2,8,9
 537 360 537 360 537 350 c 0,10,11
 537 300 537 300 604 300 c 2,12,-1
 934 300 l 2,13,14
 1014 300 1014 300 1029 371 c 2,15,-1
 1244 1383 l 1,16,-1
 1585 1530 l 1,17,-1
 1595 1530 l 1,18,-1
 1349 371 l 2,19,20
 1347 360 1347 360 1347 350 c 0,21,22
 1347 300 1347 300 1414 300 c 2,23,-1
 1744 300 l 2,24,25
 1824 300 1824 300 1839 371 c 2,26,-1
 2054 1383 l 1,27,-1
 2395 1530 l 1,28,-1
 2405 1530 l 1,29,-1
 2161 380 l 2,30,31
 2080 0 2080 0 1700 0 c 2,32,-1
 1390 0 l 2,33,34
 1236 0 1236 0 1151 54 c 1,35,36
 1044 0 1044 0 890 0 c 2,37,-1
 580 0 l 2,0,1
1532 1980 m 1,38,-1
 1694 1895 l 1,39,-1
 1468 1570 l 1,40,-1
 1458 1570 l 1,41,-1
 1298 1654 l 1,42,-1
 1522 1980 l 1,43,-1
 1532 1980 l 1,38,-1
EndSplineSet
Validated: 19457
EndChar

StartChar: wacute
Encoding: 7811 7811 189
Width: 1880
Flags: W
HStem: 0 280<506.008 856.999 1156.45 1503.67> 1100 20G<621.768 678 1271.77 1328 1921.77 1978>
VStem: 195 311<111 465.57>
DStem2: 139.745 0 440.045 0 0.207912 0.978148<374.637 1004.05> 790.045 0 1090.04 0 0.207912 0.978148<374.574 1003.99> 1030 1244 1201 1160 0.568028 0.823009<28 396.107> 1440.27 0 1739.75 0 0.207912 0.978148<284.147 1003.94>
LayerCount: 2
Fore
SplineSet
510 0 m 2,0,1
 195 0 195 0 195 222 c 0,2,3
 195 261 195 261 205 307 c 2,4,-1
 349 982 l 1,5,-1
 668 1120 l 1,6,-1
 678 1120 l 1,7,-1
 507 315 l 2,8,9
 506 310 506 310 506 305 c 0,10,11
 506 280 506 280 540 280 c 2,12,-1
 810 280 l 2,13,14
 850 280 850 280 857 315 c 2,15,-1
 999 982 l 1,16,-1
 1318 1120 l 1,17,-1
 1328 1120 l 1,18,-1
 1157 315 l 2,19,20
 1156 310 1156 310 1156 305 c 0,21,22
 1156 280 1156 280 1190 280 c 2,23,-1
 1460 280 l 2,24,25
 1500 280 1500 280 1507 315 c 2,26,-1
 1649 982 l 1,27,-1
 1968 1120 l 1,28,-1
 1978 1120 l 1,29,-1
 1805 307 l 2,30,31
 1740 0 1740 0 1430 0 c 2,32,-1
 1160 0 l 2,33,34
 1046 0 1046 0 977 35 c 1,35,36
 894 0 894 0 780 0 c 2,37,-1
 510 0 l 2,0,1
1265 1570 m 1,38,-1
 1427 1485 l 1,39,-1
 1201 1160 l 1,40,-1
 1191 1160 l 1,41,-1
 1030 1244 l 1,42,-1
 1255 1570 l 1,43,-1
 1265 1570 l 1,38,-1
EndSplineSet
Validated: 19457
EndChar

StartChar: Wdieresis
Encoding: 7812 7812 190
Width: 2220
Flags: W
HStem: 0 300<545.942 1019.33 1348.05 1821.79> 1510 20G<728.605 785 1538.61 1595 2348.61 2405> 1620 297<1218.47 1380.49 1557.98 1718.99>
VStem: 208 329<135.5 518.461> 1150 300<1688.5 1848.97> 1488 300<1688.5 1847.11>
DStem2: 140.229 0 460.142 0 0.207912 0.978148<425.151 1413.86> 950.142 0 1270.14 0 0.207912 0.978148<425.169 1413.87> 1760.14 0 2080.23 0 0.207912 0.978148<309.967 1413.87>
LayerCount: 2
Fore
SplineSet
1669 1917 m 128,-1,1
 1729 1917 1729 1917 1763 1873 c 0,2,3
 1787 1842 1787 1842 1788 1801 c 0,4,5
 1788 1784 1788 1784 1784 1768 c 0,6,7
 1771 1708 1771 1708 1719 1664 c 128,-1,8
 1667 1620 1667 1620 1606 1620 c 128,-1,9
 1545 1620 1545 1620 1512 1664 c 0,10,11
 1488 1696 1488 1696 1488 1735 c 0,12,13
 1488 1751 1488 1751 1492 1768 c 0,14,15
 1504 1827 1504 1827 1557 1872 c 0,16,0
 1609 1917 1609 1917 1669 1917 c 128,-1,1
1330.5 1917 m 128,-1,18
 1391 1917 1391 1917 1425 1873 c 0,19,20
 1450 1841 1450 1841 1450 1801 c 0,21,22
 1450 1786 1450 1786 1446 1768 c 0,23,24
 1433 1708 1433 1708 1380.5 1664 c 128,-1,25
 1328 1620 1328 1620 1268 1620 c 0,26,27
 1207 1620 1207 1620 1174 1664 c 0,28,29
 1150 1696 1150 1696 1150 1735 c 0,30,31
 1150 1751 1150 1751 1154 1768 c 0,32,33
 1167 1829 1167 1829 1218 1872 c 0,34,17
 1270 1917 1270 1917 1330.5 1917 c 128,-1,18
580 0 m 2,35,36
 208 0 208 0 208 271 c 0,37,38
 208 321 208 321 221 380 c 2,39,-1
 434 1383 l 1,40,-1
 775 1530 l 1,41,-1
 785 1530 l 1,42,-1
 539 371 l 2,43,44
 537 360 537 360 537 350 c 0,45,46
 537 300 537 300 604 300 c 2,47,-1
 934 300 l 2,48,49
 1014 300 1014 300 1029 371 c 2,50,-1
 1244 1383 l 1,51,-1
 1585 1530 l 1,52,-1
 1595 1530 l 1,53,-1
 1349 371 l 2,54,55
 1347 360 1347 360 1347 350 c 0,56,57
 1347 300 1347 300 1414 300 c 2,58,-1
 1744 300 l 2,59,60
 1824 300 1824 300 1839 371 c 2,61,-1
 2054 1383 l 1,62,-1
 2395 1530 l 1,63,-1
 2405 1530 l 1,64,-1
 2161 380 l 2,65,66
 2080 0 2080 0 1700 0 c 2,67,-1
 1390 0 l 2,68,69
 1236 0 1236 0 1151 54 c 1,70,71
 1044 0 1044 0 890 0 c 2,72,-1
 580 0 l 2,35,36
EndSplineSet
Validated: 19457
EndChar

StartChar: wdieresis
Encoding: 7813 7813 191
Width: 1880
Flags: W
HStem: 0 280<506.008 856.999 1156.45 1503.67> 1100 20G<621.768 678 1271.77 1328 1921.77 1978> 1210 297<967.468 1129.49 1306.98 1467.99>
VStem: 195 311<111 465.57> 899 300<1278.5 1438.97> 1237 300<1278.5 1437.11>
DStem2: 139.745 0 440.045 0 0.207912 0.978148<374.637 1004.05> 790.045 0 1090.04 0 0.207912 0.978148<374.574 1003.99> 1440.27 0 1739.75 0 0.207912 0.978148<284.147 1003.94>
LayerCount: 2
Fore
SplineSet
1418 1507 m 128,-1,1
 1478 1507 1478 1507 1512 1463 c 0,2,3
 1536 1432 1536 1432 1537 1391 c 0,4,5
 1537 1374 1537 1374 1533 1358 c 0,6,7
 1520 1298 1520 1298 1468 1254 c 128,-1,8
 1416 1210 1416 1210 1355 1210 c 128,-1,9
 1294 1210 1294 1210 1261 1254 c 0,10,11
 1237 1286 1237 1286 1237 1325 c 0,12,13
 1237 1341 1237 1341 1241 1358 c 0,14,15
 1253 1417 1253 1417 1306 1462 c 0,16,0
 1358 1507 1358 1507 1418 1507 c 128,-1,1
1079.5 1507 m 128,-1,18
 1140 1507 1140 1507 1174 1463 c 0,19,20
 1199 1431 1199 1431 1199 1391 c 0,21,22
 1199 1376 1199 1376 1195 1358 c 0,23,24
 1182 1298 1182 1298 1129.5 1254 c 128,-1,25
 1077 1210 1077 1210 1017 1210 c 0,26,27
 956 1210 956 1210 923 1254 c 0,28,29
 899 1286 899 1286 899 1325 c 0,30,31
 899 1341 899 1341 903 1358 c 0,32,33
 916 1419 916 1419 967 1462 c 0,34,17
 1019 1507 1019 1507 1079.5 1507 c 128,-1,18
510 0 m 2,35,36
 195 0 195 0 195 222 c 0,37,38
 195 261 195 261 205 307 c 2,39,-1
 349 982 l 1,40,-1
 668 1120 l 1,41,-1
 678 1120 l 1,42,-1
 507 315 l 2,43,44
 506 310 506 310 506 305 c 0,45,46
 506 280 506 280 540 280 c 2,47,-1
 810 280 l 2,48,49
 850 280 850 280 857 315 c 2,50,-1
 999 982 l 1,51,-1
 1318 1120 l 1,52,-1
 1328 1120 l 1,53,-1
 1157 315 l 2,54,55
 1156 310 1156 310 1156 305 c 0,56,57
 1156 280 1156 280 1190 280 c 2,58,-1
 1460 280 l 2,59,60
 1500 280 1500 280 1507 315 c 2,61,-1
 1649 982 l 1,62,-1
 1968 1120 l 1,63,-1
 1978 1120 l 1,64,-1
 1805 307 l 2,65,66
 1740 0 1740 0 1430 0 c 2,67,-1
 1160 0 l 2,68,69
 1046 0 1046 0 977 35 c 1,70,71
 894 0 894 0 780 0 c 2,72,-1
 510 0 l 2,35,36
EndSplineSet
Validated: 19457
EndChar

StartChar: Ygrave
Encoding: 7922 7922 192
Width: 1250
Flags: W
HStem: -20 21G<461 517.395> 1510 20G<668.605 725 1438.61 1495>
VStem: 236 329<554 941.109>
DStem2: 75.3413 -20 395.254 -20 0.207912 0.978148<871.914 1434.44> 845.254 -20 1165.34 -20 0.207912 0.978148<756.696 1434.45> 1099 1980 891 1895 0.255077 -0.966921<29.1322 337.153>
LayerCount: 2
Fore
SplineSet
471 -20 m 1,0,-1
 461 -20 l 1,1,-1
 554 417 l 1,2,3
 236 426 236 426 236 682 c 0,4,5
 236 734 236 734 249 797 c 2,6,-1
 374 1383 l 1,7,-1
 715 1530 l 1,8,-1
 725 1530 l 1,9,-1
 567 788 l 2,10,11
 565 777 565 777 565 767 c 0,12,13
 565 717 565 717 632 717 c 2,14,-1
 922 717 l 2,15,16
 1002 717 1002 717 1017 788 c 2,17,-1
 1144 1383 l 1,18,-1
 1485 1530 l 1,19,-1
 1495 1530 l 1,20,-1
 1339 797 l 2,21,22
 1258 417 1258 417 874 417 c 1,23,-1
 812 127 l 1,24,-1
 471 -20 l 1,0,-1
1089 1980 m 1,25,-1
 1099 1980 l 1,26,-1
 1185 1654 l 1,27,-1
 989 1570 l 1,28,-1
 979 1570 l 1,29,-1
 891 1895 l 1,30,-1
 1089 1980 l 1,25,-1
EndSplineSet
Validated: 19457
EndChar

StartChar: ygrave
Encoding: 7923 7923 193
Width: 1250
Flags: W
HStem: -410 250<361 757.882> 0 280<506.008 790.344> 1100 20G<621.768 678 1271.77 1328>
VStem: 195 311<111 465.57>
DStem2: 52.5969 -410 352.896 -410 0.207912 0.978148<793.796 1423.21> 702.421 -410 1002.75 -410 0.207912 0.978148<250.941 425.326 696.412 1423.24> 983 1570 775 1485 0.252301 -0.967649<29.7715 336.899>
LayerCount: 2
Fore
SplineSet
510 0 m 2,0,1
 195 0 195 0 195 222 c 0,2,3
 195 261 195 261 205 307 c 2,4,-1
 349 982 l 1,5,-1
 668 1120 l 1,6,-1
 678 1120 l 1,7,-1
 507 315 l 2,8,9
 506 310 506 310 506 305 c 0,10,11
 506 280 506 280 540 280 c 2,12,-1
 810 280 l 2,13,14
 850 280 850 280 857 315 c 2,15,-1
 999 982 l 1,16,-1
 1318 1120 l 1,17,-1
 1328 1120 l 1,18,-1
 1068 -103 l 2,19,20
 1003 -410 1003 -410 693 -410 c 2,21,-1
 193 -410 l 1,22,-1
 195 -400 l 1,23,-1
 361 -160 l 1,24,-1
 716 -160 l 2,25,26
 756 -160 756 -160 763 -125 c 2,27,-1
 791 6 l 1,28,29
 770 0 770 0 750 0 c 2,30,-1
 510 0 l 2,0,1
973 1570 m 1,31,-1
 983 1570 l 1,32,-1
 1068 1244 l 1,33,-1
 873 1160 l 1,34,-1
 863 1160 l 1,35,-1
 775 1485 l 1,36,-1
 973 1570 l 1,31,-1
EndSplineSet
Validated: 19457
EndChar

StartChar: AE
Encoding: 198 198 194
Width: 1728
Flags: W
HStem: -20 21G<136 192.395> 0 300<1172 1582> 605 300<652 917 1300 1661> 1210 300<719.208 1045 1365 1789>
DStem2: 136 -20 455.754 -20 0.207912 0.978148<216.765 705.526 1012.07 1320.67> 783.749 -20 1103.98 -20 0.207912 0.978148<393.729 639.047 1012.12 1257.44>
LayerCount: 2
Fore
SplineSet
1582 0 m 1,0,-1
 788 0 l 1,1,-1
 917 605 l 1,2,-1
 589 605 l 1,3,-1
 487 127 l 1,4,-1
 146 -20 l 1,5,-1
 136 -20 l 1,6,-1
 380 1130 l 2,7,8
 461 1510 461 1510 841 1510 c 2,9,-1
 1989 1510 l 1,10,-1
 1987 1500 l 1,11,-1
 1789 1210 l 1,12,-1
 1365 1210 l 1,13,-1
 1300 905 l 1,14,-1
 1860 905 l 1,15,-1
 1858 895 l 1,16,-1
 1661 605 l 1,17,-1
 1237 605 l 1,18,-1
 1172 300 l 1,19,-1
 1782 300 l 1,20,-1
 1780 290 l 1,21,-1
 1582 0 l 1,0,-1
1045 1210 m 9,22,-1
 797 1210 l 2,23,24
 717 1210 717 1210 702 1139 c 2,25,26
 652 905 l 1,27,-1
 980 905 l 1,28,-1
 1045 1210 l 9,22,-1
EndSplineSet
Validated: 19457
EndChar

StartChar: Eth
Encoding: 208 208 195
Width: 1390
Flags: W
HStem: 0 300<544 1011.79> 665 180<261 301 660 865> 1210 300<749 1184.97>
VStem: 1194 328<980.328 1374.5>
DStem2: 160 0 480.233 0 0.207912 0.978148<373.282 679.784 930.491 1303.52> 950.142 0 1270.23 0 0.207912 0.978148<309.967 1185.05>
CounterMasks: 1 e0
LayerCount: 2
Fore
SplineSet
160 0 m 1,0,-1
 301 665 l 1,1,-1
 141 665 l 1,2,-1
 143 675 l 1,3,-1
 261 845 l 1,4,-1
 340 845 l 1,5,-1
 454 1383 l 1,6,-1
 749 1510 l 1,7,-1
 1151 1510 l 2,8,9
 1522 1510 1522 1510 1522 1239 c 0,10,11
 1522 1189 1522 1189 1510 1130 c 2,12,-1
 1351 380 l 2,13,14
 1270 0 1270 0 890 0 c 2,15,-1
 160 0 l 1,0,-1
544 300 m 1,16,-1
 934 300 l 2,17,18
 1014 300 1014 300 1029 371 c 2,19,-1
 1192 1139 l 2,20,21
 1194 1150 1194 1150 1194 1160 c 0,22,23
 1194 1210 1194 1210 1127 1210 c 2,24,-1
 737 1210 l 1,25,-1
 660 845 l 1,26,-1
 985 845 l 1,27,-1
 982 835 l 1,28,-1
 865 665 l 1,29,-1
 621 665 l 1,30,-1
 544 300 l 1,16,-1
EndSplineSet
Validated: 19457
EndChar

StartChar: Dcroat
Encoding: 272 272 196
Width: 1390
Flags: W
HStem: 0 300<544 1011.79> 665 180<261 301 660 865> 1210 300<749 1184.97>
VStem: 1194 328<980.328 1374.5>
DStem2: 160 0 480.233 0 0.207912 0.978148<373.282 679.784 930.491 1303.52> 950.142 0 1270.23 0 0.207912 0.978148<309.967 1185.05>
CounterMasks: 1 e0
LayerCount: 2
Fore
SplineSet
160 0 m 1,0,-1
 301 665 l 1,1,-1
 141 665 l 1,2,-1
 143 675 l 1,3,-1
 261 845 l 1,4,-1
 340 845 l 1,5,-1
 454 1383 l 1,6,-1
 749 1510 l 1,7,-1
 1151 1510 l 2,8,9
 1522 1510 1522 1510 1522 1239 c 0,10,11
 1522 1189 1522 1189 1510 1130 c 2,12,-1
 1351 380 l 2,13,14
 1270 0 1270 0 890 0 c 2,15,-1
 160 0 l 1,0,-1
544 300 m 1,16,-1
 934 300 l 2,17,18
 1014 300 1014 300 1029 371 c 2,19,-1
 1192 1139 l 2,20,21
 1194 1150 1194 1150 1194 1160 c 0,22,23
 1194 1210 1194 1210 1127 1210 c 2,24,-1
 737 1210 l 1,25,-1
 660 845 l 1,26,-1
 985 845 l 1,27,-1
 982 835 l 1,28,-1
 865 665 l 1,29,-1
 621 665 l 1,30,-1
 544 300 l 1,16,-1
EndSplineSet
Validated: 19457
EndChar

StartChar: Hbar
Encoding: 294 294 197
Width: 1440
Flags: W
HStem: -20 21G<156 212.395 956 1012.39> 605 300<672 1089> 1197 180<404 414 773 1214 1573 1583> 1510 20G<748.605 805 1548.61 1605>
DStem2: 156 -20 475.754 -20 0.207912 0.978148<216.765 705.526 1012.07 1244.05> 956 -20 1275.75 -20 0.207912 0.978148<216.765 638.995 945.537 1244.05>
LayerCount: 2
Fore
SplineSet
166 -20 m 1,0,-1
 156 -20 l 1,1,-1
 414 1197 l 1,2,-1
 284 1197 l 1,3,-1
 287 1207 l 1,4,-1
 404 1377 l 1,5,-1
 453 1377 l 1,6,-1
 454 1383 l 1,7,-1
 795 1530 l 1,8,-1
 805 1530 l 1,9,-1
 773 1377 l 1,10,-1
 1253 1377 l 1,11,-1
 1254 1383 l 1,12,-1
 1595 1530 l 1,13,-1
 1605 1530 l 1,14,-1
 1573 1377 l 1,15,-1
 1703 1377 l 1,16,-1
 1701 1367 l 1,17,-1
 1583 1197 l 1,18,-1
 1534 1197 l 1,19,-1
 1307 127 l 1,20,-1
 966 -20 l 1,21,-1
 956 -20 l 1,22,-1
 1089 605 l 1,23,-1
 609 605 l 1,24,-1
 507 127 l 1,25,-1
 166 -20 l 1,0,-1
734 1197 m 1,26,-1
 672 905 l 1,27,-1
 1152 905 l 1,28,-1
 1214 1197 l 1,29,-1
 734 1197 l 1,26,-1
EndSplineSet
Validated: 19457
EndChar

StartChar: IJ
Encoding: 306 306 198
Width: 1831
Flags: W
HStem: -20 21G<156 212.395> 0 300<1068.04 1452.79> 1210 300<1203 1648> 1510 20G<748.605 805>
VStem: 741 317<138 397.658>
DStem2: 156 -20 475.754 -20 0.207912 0.978148<216.765 1434.3> 1386.89 -20 1706.98 -20 0.207912 0.978148<330.414 1257.41>
LayerCount: 2
Fore
SplineSet
1331 0 m 2,0,-1
 1101 0 l 2,1,2
 741 0 741 0 741 276 c 0,3,4
 741 329 741 329 754 393 c 1,5,-1
 1085 535 l 1,6,-1
 1095 535 l 1,7,-1
 1060 371 l 2,8,9
 1058 360 1058 360 1058 350 c 0,10,11
 1058 300 1058 300 1125 300 c 2,12,-1
 1375 300 l 2,13,14
 1455 300 1455 300 1470 371 c 2,15,-1
 1648 1210 l 1,16,-1
 1003 1210 l 1,17,-1
 1005 1220 l 1,18,-1
 1203 1510 l 1,19,-1
 2032 1510 l 1,20,-1
 1792 380 l 2,21,22
 1711 0 1711 0 1331 0 c 2,0,-1
166 -20 m 1,23,-1
 156 -20 l 1,24,-1
 454 1383 l 1,25,-1
 795 1530 l 1,26,-1
 805 1530 l 1,27,-1
 507 127 l 1,28,-1
 166 -20 l 1,23,-1
EndSplineSet
Validated: 19457
EndChar

StartChar: lslash
Encoding: 322 322 199
Width: 766
Flags: W
HStem: -20 21G<229 285.232> 1510 20G<801.768 858>
DStem2: 229 -20 528.667 -20 0.207912 0.978148<203.387 621.534 823.94 827.086 1029.49 1443.52>
LayerCount: 2
Fore
SplineSet
239 -20 m 1,0,-1
 229 -20 l 1,1,-1
 358 588 l 1,2,-1
 161 505 l 1,3,-1
 159 514 l 1,4,-1
 199 701 l 1,5,-1
 400 786 l 1,6,-1
 529 1392 l 1,7,-1
 848 1530 l 1,8,-1
 858 1530 l 1,9,-1
 730 926 l 1,10,-1
 926 1009 l 1,11,-1
 929 1000 l 1,12,-1
 889 813 l 1,13,-1
 688 728 l 1,14,-1
 558 118 l 1,15,-1
 239 -20 l 1,0,-1
EndSplineSet
Validated: 19457
EndChar

StartChar: Lslash
Encoding: 321 321 200
Width: 1100
Flags: W
HStem: 0 300<544 954> 1510 20G<748.288 805>
DStem2: 160.219 0 480.233 0 0.207912 0.978148<373.237 552.064 754.469 770.785 973.398 1414.84>
LayerCount: 2
Fore
SplineSet
160 0 m 1,0,-1
 275 540 l 1,1,-1
 191 505 l 1,2,-1
 189 514 l 1,3,-1
 229 701 l 1,4,-1
 317 738 l 1,5,-1
 454 1384 l 1,6,-1
 795 1530 l 1,7,-1
 805 1530 l 1,8,-1
 669 887 l 1,9,-1
 956 1009 l 1,10,-1
 959 1000 l 1,11,-1
 919 813 l 1,12,-1
 626 689 l 1,13,-1
 544 300 l 1,14,-1
 1154 300 l 1,15,-1
 1152 290 l 1,16,-1
 954 0 l 1,17,-1
 160 0 l 1,0,-1
EndSplineSet
Validated: 19457
EndChar

StartChar: Eng
Encoding: 330 330 201
Width: 1410
Flags: W
HStem: -410 300<762 924.792> -20 21G<136 192.395> 1210 300<719.208 1184.97>
VStem: 1194 328<988.375 1374.5>
DStem2: 53.1029 -410 372.857 -410 0.207912 0.978148<615.478 1719.38> 863.142 -410 1183.23 -410 0.207912 0.978148<309.967 1604.18>
LayerCount: 2
Fore
SplineSet
146 -20 m 1,0,-1
 136 -20 l 1,1,-1
 380 1130 l 2,2,3
 461 1510 461 1510 841 1510 c 2,4,-1
 1151 1510 l 2,5,6
 1522 1510 1522 1510 1522 1239 c 0,7,8
 1522 1189 1522 1189 1510 1130 c 2,9,-1
 1264 -30 l 2,10,11
 1183 -410 1183 -410 803 -410 c 2,12,-1
 559 -410 l 1,13,-1
 561 -400 l 1,14,-1
 762 -110 l 1,15,-1
 847 -110 l 2,16,17
 927 -110 927 -110 942 -39 c 2,18,-1
 1192 1139 l 2,19,20
 1194 1150 1194 1150 1194 1160 c 0,21,22
 1194 1210 1194 1210 1127 1210 c 2,23,-1
 797 1210 l 2,24,25
 717 1210 717 1210 702 1139 c 2,26,-1
 487 127 l 1,27,-1
 146 -20 l 1,0,-1
EndSplineSet
Validated: 19457
EndChar

StartChar: OE
Encoding: 338 338 202
Width: 1714
Flags: W
HStem: 0 300<526.034 838 1158 1568> 605 300<1286 1647> 1210 300<699.208 1031 1351 1775>
VStem: 189 328<135.5 529.672>
DStem2: 120.229 0 440.142 0 0.207912 0.978148<425.151 1300.23> 774.233 0 1094.23 0 0.207912 0.978148<373.234 685.083 991.626 1236.94>
CounterMasks: 1 e0
LayerCount: 2
Fore
SplineSet
838 300 m 1,0,-1
 1031 1210 l 9,1,-1
 777 1210 l 2,2,3
 697 1210 697 1210 682 1139 c 2,4,5
 519 371 l 2,6,7
 517 360 517 360 517 350 c 0,8,9
 517 300 517 300 584 300 c 2,10,-1
 838 300 l 1,0,-1
560 0 m 2,11,12
 189 0 189 0 189 271 c 0,13,14
 189 321 189 321 201 380 c 2,15,-1
 360 1130 l 2,16,17
 441 1510 441 1510 821 1510 c 2,18,-1
 1975 1510 l 1,19,-1
 1973 1500 l 1,20,-1
 1775 1210 l 1,21,-1
 1351 1210 l 1,22,-1
 1286 905 l 1,23,-1
 1846 905 l 1,24,-1
 1844 895 l 1,25,-1
 1647 605 l 1,26,-1
 1223 605 l 1,27,-1
 1158 300 l 1,28,-1
 1768 300 l 1,29,-1
 1766 290 l 1,30,-1
 1568 0 l 1,31,-1
 560 0 l 2,11,12
EndSplineSet
Validated: 19457
EndChar

StartChar: Thorn
Encoding: 222 222 203
Width: 1250
Flags: W
HStem: -20 21G<156 212.395> 220 300<591 998.537> 990 300<754 1077.97> 1510 20G<748.605 805>
VStem: 1087 328<755 1152.5>
DStem2: 156 -20 475.754 -20 0.207912 0.978148<216.765 311.891 618.641 1098.95 1405.7 1434.3> 886.128 -20 1205.51 -20 0.207912 0.978148<550.06 980.479>
LayerCount: 2
Fore
SplineSet
166 -20 m 1,0,-1
 156 -20 l 1,1,-1
 454 1383 l 1,2,-1
 795 1530 l 1,3,-1
 805 1530 l 1,4,-1
 754 1290 l 1,5,-1
 1044 1290 l 2,6,7
 1415 1290 1415 1290 1415 1015 c 0,8,9
 1415 963 1415 963 1402 902 c 2,10,-1
 1339 608 l 2,11,12
 1256 220 1256 220 877 220 c 2,13,-1
 527 220 l 1,14,-1
 507 127 l 1,15,-1
 166 -20 l 1,0,-1
690 990 m 1,16,-1
 591 520 l 1,17,-1
 921 520 l 2,18,19
 1001 520 1001 520 1016 591 c 2,20,-1
 1085 919 l 2,21,22
 1087 930 1087 930 1087 940 c 0,23,24
 1087 990 1087 990 1020 990 c 2,25,-1
 690 990 l 1,16,-1
EndSplineSet
Validated: 19457
EndChar

StartChar: Tbar
Encoding: 358 358 204
Width: 1190
Flags: W
HStem: -20 21G<431 487.712> 416 180<448 523 882 957> 1210 300<467 692 1012 1301>
DStem2: 431 -20 750.967 -20 0.207912 0.978148<215.787 445.6 696.307 1257.39>
LayerCount: 2
Fore
SplineSet
441 -20 m 1,0,-1
 431 -20 l 1,1,-1
 523 416 l 1,2,-1
 328 416 l 1,3,-1
 331 426 l 1,4,-1
 448 596 l 1,5,-1
 562 596 l 1,6,-1
 692 1210 l 1,7,-1
 267 1210 l 1,8,-1
 269 1220 l 1,9,-1
 467 1510 l 1,10,-1
 1501 1510 l 1,11,-1
 1499 1500 l 1,12,-1
 1301 1210 l 1,13,-1
 1012 1210 l 1,14,-1
 882 596 l 1,15,-1
 1077 596 l 1,16,-1
 1075 586 l 1,17,-1
 957 416 l 1,18,-1
 843 416 l 1,19,-1
 782 126 l 1,20,-1
 441 -20 l 1,0,-1
EndSplineSet
Validated: 1
EndChar

StartChar: tbar
Encoding: 359 359 205
Width: 890
Flags: W
HStem: -20 21G<296 352.316> 416 180<303 388 717 802> 820 280<373 474 824 925> 1510 20G<858.684 915>
DStem2: 296 -20 585.73 -20 0.207912 0.978148<196.21 445.6 690.07 858.652 1205.3 1448.62>
LayerCount: 2
Fore
SplineSet
183 416 m 1,0,-1
 186 426 l 1,1,-1
 303 596 l 1,2,-1
 427 596 l 1,3,-1
 474 820 l 1,4,-1
 184 820 l 1,5,-1
 186 830 l 1,6,-1
 373 1100 l 1,7,-1
 534 1100 l 1,8,-1
 597 1397 l 1,9,-1
 905 1530 l 1,10,-1
 915 1530 l 1,11,-1
 824 1100 l 1,12,-1
 1114 1100 l 1,13,-1
 1112 1090 l 1,14,-1
 925 820 l 1,15,-1
 764 820 l 1,16,-1
 717 596 l 1,17,-1
 922 596 l 1,18,-1
 920 586 l 1,19,-1
 802 416 l 1,20,-1
 678 416 l 1,21,-1
 614 113 l 1,22,-1
 306 -20 l 1,23,-1
 296 -20 l 1,24,-1
 388 416 l 1,25,-1
 183 416 l 1,0,-1
EndSplineSet
Validated: 1
EndChar

StartChar: thorn
Encoding: 254 254 206
Width: 1230
Flags: W
HStem: -430 21G<69 125.232> 0 280<526.905 873.453> 820 280<693.656 977.992> 1510 20G<728.768 785>
VStem: 978 311<632.156 989>
DStem2: 69 -430 368.667 -430 0.207912 0.978148<203.387 511.797 814.107 1349.35 1620.43 1862.65> 718.645 -430 1019.04 -430 0.207912 0.978148<723.745 1252>
LayerCount: 2
Fore
SplineSet
800 0 m 2,0,-1
 530 0 l 2,1,2
 480 0 480 0 461 6 c 1,3,-1
 398 -292 l 1,4,-1
 79 -430 l 1,5,-1
 69 -430 l 1,6,-1
 456 1392 l 1,7,-1
 775 1530 l 1,8,-1
 785 1530 l 1,9,-1
 693 1094 l 1,10,11
 714 1100 714 1100 734 1100 c 2,12,-1
 974 1100 l 2,13,14
 1289 1100 1289 1100 1289 878 c 0,15,16
 1289 839 1289 839 1279 793 c 2,17,-1
 1175 307 l 2,18,19
 1109 0 1109 0 800 0 c 2,0,-1
674 820 m 2,20,21
 634 820 634 820 627 785 c 2,22,-1
 527 315 l 2,23,24
 526 310 526 310 526 305 c 0,25,26
 526 280 526 280 560 280 c 2,27,-1
 830 280 l 2,28,29
 870 280 870 280 877 315 c 2,30,-1
 977 785 l 2,31,32
 978 790 978 790 978 795 c 0,33,34
 978 820 978 820 944 820 c 2,35,-1
 674 820 l 2,20,21
EndSplineSet
Validated: 19457
EndChar

StartChar: eth
Encoding: 240 240 207
Width: 1190
Flags: W
HStem: 0 280<486.008 833.453> 820 280<590.547 835> 1510 20G<791.645 862.167>
VStem: 175 311<111 467.844> 938 311<632.156 920>
DStem2: 119.745 0 420.045 0 0.207912 0.978148<374.637 902.892> 770.045 0 1070.44 0 0.207912 0.978148<284.138 812.394>
LayerCount: 2
Fore
SplineSet
760 0 m 2,0,-1
 490 0 l 2,1,2
 175 0 175 0 175 222 c 0,3,4
 175 261 175 261 185 307 c 2,5,-1
 289 793 l 2,6,7
 355 1100 355 1100 664 1100 c 2,8,-1
 835 1100 l 1,9,-1
 730 1237 l 1,10,-1
 486 1134 l 1,11,-1
 484 1143 l 1,12,-1
 524 1330 l 1,13,-1
 630 1375 l 1,14,-1
 590 1423 l 1,15,-1
 838 1530 l 1,16,-1
 848 1530 l 1,17,-1
 882 1482 l 1,18,-1
 1072 1562 l 1,19,-1
 1074 1553 l 1,20,-1
 1034 1366 l 1,21,-1
 979 1343 l 1,22,-1
 1210 1015 l 2,23,24
 1249 960 1249 960 1249 880 c 0,25,26
 1249 840 1249 840 1239 793 c 2,27,-1
 1135 307 l 2,28,29
 1069 0 1069 0 760 0 c 2,0,-1
790 280 m 2,30,31
 830 280 830 280 837 315 c 2,32,-1
 937 785 l 2,33,34
 938 790 938 790 938 795 c 0,35,36
 938 820 938 820 904 820 c 2,37,-1
 634 820 l 2,38,39
 594 820 594 820 587 785 c 2,40,-1
 487 315 l 2,41,42
 486 310 486 310 486 305 c 0,43,44
 486 280 486 280 520 280 c 2,45,-1
 790 280 l 2,30,31
EndSplineSet
Validated: 19457
EndChar

StartChar: oe
Encoding: 339 339 208
Width: 1777
Flags: W
HStem: 0 280<486.008 838.562 1134 1420.45> 820 280<590.547 937.303 1236.59 1524.99>
VStem: 175 311<111 467.844> 1525 311<718.602 989.5>
DStem2: 119.745 0 420.045 0 0.207912 0.978148<374.637 902.892> 1195 588 1147 363 0.918556 0.395292<0 344.023>
LayerCount: 2
Fore
SplineSet
790 280 m 2,0,1
 830 280 830 280 837 315 c 2,2,-1
 937 785 l 2,3,4
 938 790 938 790 938 795 c 0,5,6
 938 820 938 820 904 820 c 2,7,-1
 634 820 l 2,8,9
 594 820 594 820 587 785 c 2,10,-1
 487 315 l 2,11,12
 486 310 486 310 486 305 c 0,13,14
 486 280 486 280 520 280 c 2,15,-1
 790 280 l 2,0,1
760 0 m 2,16,-1
 490 0 l 2,17,18
 175 0 175 0 175 222 c 0,19,20
 175 261 175 261 185 307 c 2,21,-1
 289 793 l 2,22,23
 355 1100 355 1100 664 1100 c 2,24,-1
 934 1100 l 2,25,26
 1040 1100 1040 1100 1106 1070 c 1,27,28
 1185 1100 1185 1100 1291 1100 c 2,29,-1
 1521 1100 l 2,30,31
 1836 1100 1836 1100 1836 879 c 0,32,33
 1836 839 1836 839 1826 793 c 2,34,-1
 1793 641 l 1,35,-1
 1147 363 l 1,36,-1
 1135 307 l 2,37,38
 1134 300 1134 300 1134 295 c 0,39,40
 1134 280 1134 280 1147 280 c 2,41,-1
 1377 280 l 2,42,43
 1415 280 1415 280 1424 315 c 2,44,-1
 1427 327 l 1,45,-1
 1746 465 l 1,46,-1
 1756 465 l 1,47,-1
 1722 307 l 2,48,49
 1656 0 1656 0 1347 0 c 2,50,-1
 1117 0 l 2,51,52
 1011 0 1011 0 945 30 c 1,53,54
 866 0 866 0 760 0 c 2,16,-1
1239 793 m 2,55,-1
 1195 588 l 1,56,-1
 1511 724 l 1,57,-1
 1524 785 l 2,58,59
 1525 790 1525 790 1525 795 c 0,60,61
 1525 820 1525 820 1491 820 c 2,62,-1
 1261 820 l 2,63,64
 1245 820 1245 820 1239 793 c 2,55,-1
EndSplineSet
Validated: 19457
EndChar

StartChar: eng
Encoding: 331 331 209
Width: 1230
Flags: W
HStem: -410 21G<468 848> -20 21G<136 192.232> 820 280<610.328 957.992>
VStem: 958 311<636.375 989>
DStem2: 53.1029 -410 352.77 -410 0.207912 0.978148<602.1 1321.89> 703.045 -410 1003.29 -410 0.207912 0.978148<284.193 1231.52>
LayerCount: 2
Fore
SplineSet
146 -20 m 1,0,-1
 136 -20 l 1,1,-1
 309 793 l 2,2,3
 374 1100 374 1100 684 1100 c 2,4,-1
 954 1100 l 2,5,6
 1269 1100 1269 1100 1269 878 c 0,7,8
 1269 839 1269 839 1259 793 c 2,9,-1
 1068 -103 l 2,10,11
 1003 -410 1003 -410 693 -410 c 2,12,-1
 468 -410 l 1,13,-1
 470 -400 l 1,14,-1
 656 -130 l 1,15,-1
 722 -130 l 2,16,17
 763 -130 763 -130 770 -95 c 2,18,-1
 957 785 l 2,19,20
 958 790 958 790 958 795 c 0,21,22
 958 820 958 820 924 820 c 2,23,-1
 654 820 l 2,24,25
 614 820 614 820 607 785 c 2,26,-1
 465 118 l 1,27,-1
 146 -20 l 1,0,-1
EndSplineSet
Validated: 19457
EndChar

StartChar: kgreenlandic
Encoding: 312 312 210
Width: 1210
Flags: W
HStem: -20 21G<156 212.232 786 842.232> 1100 20G<641.768 698 1020.46 1099.73>
VStem: 898 308<338.688 669.5>
DStem2: 156 -20 455.667 -20 0.207912 0.978148<203.387 640.864 961.815 1024.39>
LayerCount: 2
Fore
SplineSet
166 -20 m 1,0,-1
 156 -20 l 1,1,-1
 369 982 l 1,2,-1
 688 1120 l 1,3,-1
 698 1120 l 1,4,-1
 642 860 l 1,5,-1
 1052 1120 l 1,6,-1
 1062 1120 l 1,7,-1
 1311 988 l 1,8,-1
 988 791 l 1,9,10
 1206 756 1206 756 1206 583 c 0,11,12
 1206 548 1206 548 1198 510 c 2,13,-1
 1115 118 l 1,14,-1
 796 -20 l 1,15,-1
 786 -20 l 1,16,-1
 897 502 l 2,17,18
 898 507 898 507 898 512 c 0,19,20
 898 537 898 537 864 537 c 2,21,-1
 614 537 l 2,22,23
 574 537 574 537 567 502 c 2,24,-1
 485 118 l 1,25,-1
 166 -20 l 1,0,-1
EndSplineSet
Validated: 19457
EndChar

StartChar: ij
Encoding: 307 307 211
Width: 1220
Flags: W
HStem: -410 21G<438 818> -20 21G<156 212.232> 1100 20G<641.768 698 1241.77 1298> 1179 365<511.097 687.323 1111.1 1287.32>
DStem2: 73.1029 -410 372.77 -410 0.207912 0.978148<602.1 1423.1> 673.121 -410 972.745 -410 0.207912 0.978148<284.177 1423.1>
LayerCount: 2
Fore
SplineSet
638 1544 m 0,0,1
 714 1544 714 1544 755 1491 c 0,2,3
 784 1453 784 1453 784 1402 c 0,4,5
 784 1383 784 1383 780 1362 c 0,6,7
 764 1287 764 1287 699.5 1233 c 128,-1,8
 635 1179 635 1179 561 1179 c 0,9,10
 485 1179 485 1179 445 1233 c 0,11,12
 415 1272 415 1272 415 1322 c 0,13,14
 415 1341 415 1341 419 1361 c 0,15,16
 435 1437 435 1437 499 1490 c 0,17,18
 563 1544 563 1544 638 1544 c 0,0,1
1238 1544 m 0,19,20
 1314 1544 1314 1544 1355 1491 c 0,21,22
 1384 1453 1384 1453 1384 1402 c 0,23,24
 1384 1383 1384 1383 1380 1362 c 0,25,26
 1364 1287 1364 1287 1299.5 1233 c 128,-1,27
 1235 1179 1235 1179 1161 1179 c 0,28,29
 1085 1179 1085 1179 1045 1233 c 0,30,31
 1015 1272 1015 1272 1015 1322 c 0,32,33
 1015 1341 1015 1341 1019 1361 c 0,34,35
 1035 1437 1035 1437 1099 1490 c 0,36,37
 1163 1544 1163 1544 1238 1544 c 0,19,20
1288 1120 m 1,38,-1
 1298 1120 l 1,39,-1
 1038 -103 l 2,40,41
 973 -410 973 -410 663 -410 c 2,42,-1
 438 -410 l 1,43,-1
 440 -400 l 1,44,-1
 626 -130 l 1,45,-1
 692 -130 l 2,46,47
 733 -130 733 -130 740 -95 c 2,48,-1
 969 982 l 1,49,-1
 1288 1120 l 1,38,-1
166 -20 m 1,50,-1
 156 -20 l 1,51,-1
 369 982 l 1,52,-1
 688 1120 l 1,53,-1
 698 1120 l 1,54,-1
 485 118 l 1,55,-1
 166 -20 l 1,50,-1
EndSplineSet
Validated: 19457
EndChar

StartChar: hbar
Encoding: 295 295 212
Width: 1250
Flags: W
HStem: -20 21G<156 212.232 806 862.232> 820 280<692.564 977.992> 1197 180<404 414 753 863> 1510 20G<728.768 785>
VStem: 978 311<634.43 989>
DStem2: 156 -20 455.667 -20 0.207912 0.978148<203.387 930.219 1200.12 1244.05> 806 -20 1105.67 -20 0.207912 0.978148<203.387 832.798>
LayerCount: 2
Fore
SplineSet
166 -20 m 1,0,-1
 156 -20 l 1,1,-1
 414 1197 l 1,2,-1
 284 1197 l 1,3,-1
 287 1207 l 1,4,-1
 404 1377 l 1,5,-1
 453 1377 l 1,6,-1
 456 1392 l 1,7,-1
 775 1530 l 1,8,-1
 785 1530 l 1,9,-1
 753 1377 l 1,10,-1
 983 1377 l 1,11,-1
 981 1367 l 1,12,-1
 863 1197 l 1,13,-1
 714 1197 l 1,14,-1
 692 1093 l 1,15,16
 710 1100 710 1100 734 1100 c 2,17,-1
 974 1100 l 2,18,19
 1289 1100 1289 1100 1289 878 c 0,20,21
 1289 840 1289 840 1279 793 c 2,22,-1
 1135 118 l 1,23,-1
 816 -20 l 1,24,-1
 806 -20 l 1,25,-1
 977 785 l 2,26,27
 978 790 978 790 978 795 c 0,28,29
 978 820 978 820 944 820 c 2,30,-1
 674 820 l 2,31,32
 634 820 634 820 627 785 c 2,33,-1
 485 118 l 1,34,-1
 166 -20 l 1,0,-1
EndSplineSet
Validated: 19457
EndChar

StartChar: longs
Encoding: 383 383 213
Width: 940
Flags: W
HStem: -20 21G<216 272.232> 1230 280<777.547 1062>
DStem2: 216 -20 515.667 -20 0.207912 0.978148<203.387 697.244 983.392 1342.36>
LayerCount: 2
Fore
SplineSet
226 -20 m 1,0,-1
 216 -20 l 1,1,-1
 361 662 l 1,2,-1
 151 662 l 1,3,-1
 153 672 l 1,4,-1
 339 942 l 1,5,-1
 420 942 l 1,6,-1
 476 1203 l 2,7,8
 542 1510 542 1510 851 1510 c 2,9,-1
 1251 1510 l 1,10,-1
 1249 1500 l 1,11,-1
 1062 1230 l 1,12,-1
 821 1230 l 2,13,14
 781 1230 781 1230 774 1195 c 2,15,-1
 545 118 l 1,16,-1
 226 -20 l 1,0,-1
EndSplineSet
Validated: 1
EndChar

StartChar: florin
Encoding: 402 402 214
Width: 880
Flags: W
HStem: -410 21G<-162 218> 662 280<660 843> 1230 280<717.328 1002>
DStem2: 73.1463 -410 372.745 -410 0.207912 0.978148<284.172 1158.32 1444.47 1741.01>
LayerCount: 2
Fore
SplineSet
-162 -410 m 1,0,-1
 -160 -400 l 1,1,-1
 26 -130 l 1,2,-1
 92 -130 l 2,3,4
 133 -130 133 -130 140 -95 c 2,5,-1
 416 1203 l 2,6,7
 481 1510 481 1510 791 1510 c 2,8,-1
 1191 1510 l 1,9,-1
 1189 1500 l 1,10,-1
 1002 1230 l 1,11,-1
 761 1230 l 2,12,13
 721 1230 721 1230 714 1195 c 2,14,-1
 660 942 l 1,15,-1
 1031 942 l 1,16,-1
 1029 932 l 1,17,-1
 843 662 l 1,18,-1
 601 662 l 1,19,-1
 438 -103 l 2,20,21
 373 -410 373 -410 63 -410 c 2,22,-1
 -162 -410 l 1,0,-1
EndSplineSet
Validated: 19457
EndChar

StartChar: dcroat
Encoding: 273 273 215
Width: 1210
Flags: W
HStem: 0 280<486.008 833.672> 820 280<590.547 937.095> 1197 180<914 1024> 1510 20G<1338.77 1395>
VStem: 175 311<111 467.844>
DStem2: 119.745 0 420.045 0 0.207912 0.978148<374.637 902.892> 770.143 0 1069.75 0 0.207912 0.978148<284.173 812.374 1114.68 1223.62>
LayerCount: 2
Fore
SplineSet
760 0 m 2,0,-1
 490 0 l 2,1,2
 175 0 175 0 175 222 c 0,3,4
 175 260 175 260 185 307 c 2,5,-1
 289 793 l 2,6,7
 355 1100 355 1100 664 1100 c 2,8,-1
 934 1100 l 2,9,10
 984 1100 984 1100 1003 1094 c 1,11,-1
 1024 1197 l 1,12,-1
 794 1197 l 1,13,-1
 797 1207 l 1,14,-1
 914 1377 l 1,15,-1
 1063 1377 l 1,16,-1
 1066 1392 l 1,17,-1
 1385 1530 l 1,18,-1
 1395 1530 l 1,19,-1
 1363 1377 l 1,20,-1
 1463 1377 l 1,21,-1
 1461 1367 l 1,22,-1
 1343 1197 l 1,23,-1
 1324 1197 l 1,24,-1
 1135 307 l 2,25,26
 1070 0 1070 0 760 0 c 2,0,-1
790 280 m 2,27,28
 830 280 830 280 837 315 c 2,29,-1
 937 785 l 2,30,31
 938 790 938 790 938 795 c 0,32,33
 938 820 938 820 904 820 c 2,34,-1
 634 820 l 2,35,36
 594 820 594 820 587 785 c 2,37,-1
 487 315 l 2,38,39
 486 310 486 310 486 305 c 0,40,41
 486 280 486 280 520 280 c 2,42,-1
 790 280 l 2,27,28
EndSplineSet
Validated: 19457
EndChar

StartChar: germandbls
Encoding: 223 223 216
Width: 1219
Flags: W
HStem: -20 21G<136 192.232> 0 280<664 942.672> 681 280<807 1002.79> 1230 280<697.328 1043.99>
VStem: 1017 308<480.5 778.5> 1044 311<1045.94 1399.5>
DStem2: 136 -20 435.667 -20 0.207912 0.978148<203.387 1342.31>
LayerCount: 2
Fore
SplineSet
869 0 m 2,0,-1
 475 0 l 17,1,-1
 477 10 l 1,2,-1
 664 280 l 9,3,-1
 899 280 l 2,4,5
 939 280 939 280 946 315 c 2,6,-1
 1016 646 l 2,7,8
 1017 651 1017 651 1017 656 c 0,9,10
 1017 681 1017 681 984 681 c 2,11,-1
 619 681 l 17,12,-1
 621 691 l 1,13,-1
 807 961 l 1,14,-1
 953 961 l 2,15,16
 994 961 994 961 1001 996 c 2,17,-1
 1043 1195 l 2,18,19
 1044 1200 1044 1200 1044 1205 c 0,20,21
 1044 1230 1044 1230 1010 1230 c 2,22,-1
 741 1230 l 2,23,24
 701 1230 701 1230 694 1195 c 2,25,-1
 465 118 l 1,26,-1
 146 -20 l 1,27,-1
 136 -20 l 1,28,-1
 396 1203 l 2,29,30
 461 1510 461 1510 771 1510 c 2,31,-1
 1041 1510 l 2,32,33
 1355 1510 1355 1510 1355 1289 c 0,34,35
 1355 1250 1355 1250 1345 1203 c 2,36,-1
 1317 1072 l 2,37,38
 1294 966 1294 966 1215 900 c 1,39,40
 1325 838 1325 838 1325 719 c 0,41,42
 1325 688 1325 688 1318 654 c 2,43,-1
 1244 307 l 2,44,45
 1179 0 1179 0 869 0 c 2,0,-1
EndSplineSet
Validated: 19457
EndChar

StartChar: ae
Encoding: 230 230 217
Width: 1662
Flags: W
HStem: -20 21G<651 707.182> 0 280<1015.22 1305.45> 0 250<411.202 655.375> 469 251<449.703 753.987> 840 260<548 825.586 1124.69 1413.99>
VStem: 105 305<110 451.926> 1414 307<719.945 989.5>
DStem2: 1080 588 1032 363 0.918556 0.395292<0 344.023>
LayerCount: 2
Fore
SplineSet
1232 0 m 2,0,-1
 1002 0 l 2,1,2
 857 0 857 0 788 35 c 1,3,-1
 661 -20 l 1,4,-1
 651 -20 l 1,5,-1
 656 7 l 1,6,7
 636 0 636 0 615 0 c 2,8,-1
 421 0 l 2,9,10
 105 0 105 0 105 220 c 0,11,12
 105 260 105 260 116 308 c 2,13,-1
 139 412 l 2,14,15
 207 720 207 720 514 720 c 2,16,-1
 738 720 l 2,17,18
 787 720 787 720 807 713 c 1,19,-1
 826 805 l 2,20,21
 827 812 827 812 827 817 c 0,22,23
 827 840 827 840 804 840 c 2,24,-1
 374 840 l 1,25,-1
 376 850 l 1,26,-1
 548 1100 l 1,27,-1
 819 1100 l 2,28,29
 925 1100 925 1100 991 1070 c 1,30,31
 1070 1100 1070 1100 1176 1100 c 2,32,-1
 1406 1100 l 2,33,34
 1721 1100 1721 1100 1721 879 c 0,35,36
 1721 839 1721 839 1711 793 c 2,37,-1
 1678 641 l 1,38,-1
 1032 363 l 1,39,-1
 1015 282 l 1,40,41
 1022 280 1022 280 1032 280 c 2,42,-1
 1262 280 l 2,43,44
 1300 280 1300 280 1309 315 c 2,45,-1
 1312 327 l 1,46,-1
 1631 465 l 1,47,-1
 1641 465 l 1,48,-1
 1607 307 l 2,49,50
 1541 0 1541 0 1232 0 c 2,0,-1
411 282 m 18,51,52
 410 277 410 277 410 273 c 0,53,54
 410 250 410 250 444 250 c 2,55,-1
 673 250 l 2,56,57
 713 250 713 250 720 282 c 2,58,-1
 753 437 l 2,59,60
 754 442 754 442 754 446 c 0,61,62
 754 469 754 469 720 469 c 2,63,-1
 491 469 l 2,64,65
 451 469 451 469 444 437 c 2,66,-1
 411 282 l 18,51,52
1151 840 m 2,67,68
 1134 840 1134 840 1128 816 c 2,69,-1
 1080 588 l 1,70,-1
 1396 724 l 1,71,-1
 1413 805 l 2,72,73
 1414 810 1414 810 1414 815 c 0,74,75
 1414 840 1414 840 1381 840 c 2,76,-1
 1151 840 l 2,67,68
EndSplineSet
Validated: 19457
EndChar

StartChar: S
Encoding: 83 83 218
Width: 1150
Flags: W
HStem: 0 300<416.164 841.223> 683 301<644.066 903.058> 1220 290<677.015 954.983>
VStem: 98 318<136 388.97> 321 323<808.5 1183.96> 913 328<453.562 848>
LayerCount: 2
Fore
SplineSet
720 0 m 2,0,1
 460 0 l 2,2,3
 98 0 98 0 98 272 c 0,4,5
 98 323 98 323 111 383 c 1,6,-1
 442 526 l 1,7,-1
 452 526 l 1,8,-1
 418 367 l 2,9,10
 416 357 416 357 416 349 c 0,11,12
 416 300 416 300 484 300 c 2,13,-1
 764 300 l 2,14,15
 844 300 844 300 858 367 c 2,16,-1
 911 616 l 2,17,18
 913 626 913 626 913 634 c 0,19,20
 913 683 913 683 845 683 c 2,21,-1
 648 683 l 2,22,23
 321 683 321 683 321 934 c 0,24,25
 321 985 321 985 335 1047 c 2,26,-1
 362 1170 l 2,27,28
 437 1510 437 1510 764 1510 c 2,29,-1
 948 1510 l 2,30,31
 1268 1510 1268 1510 1268 1268 c 0,32,33
 1268 1225 1268 1225 1258 1175 c 1,34,-1
 937 1036 l 1,35,-1
 927 1036 l 1,36,-1
 953 1158 l 2,37,38
 955 1167 955 1167 955 1174 c 0,39,40
 955 1220 955 1220 886 1220 c 2,41,-1
 762 1220 l 2,42,43
 682 1220 682 1220 668 1154 c 2,44,-1
 646 1050 l 2,45,46
 644 1040 644 1040 644 1032 c 0,47,48
 644 984 644 984 712 984 c 2,49,-1
 869 984 l 2,50,51
 1241 984 1241 984 1241 712 c 0,52,53
 1241 661 1241 661 1228 601 c 2,54,-1
 1181 383 l 2,55,56
 1098 0 1098 0 720 0 c 2,0,1
EndSplineSet
Validated: 19457
EndChar

StartChar: s
Encoding: 115 115 219
Width: 941
Flags: W
HStem: 0 255<371.45 673.121> 443 251<502.009 694.934> 850 250<526.851 750.991>
VStem: 73 298<106.5 291.133> 224 278<544.5 829.294> 699 300<262.619 592.5>
LayerCount: 2
Fore
SplineSet
381 0 m 2,0,1
 73 0 73 0 73 213 c 0,2,3
 73 249 73 249 82 291 c 1,4,-1
 391 423 l 1,5,-1
 401 423 l 1,6,-1
 372 286 l 2,7,8
 371 281 371 281 371 277 c 0,9,10
 371 255 371 255 405 255 c 2,11,-1
 625 255 l 2,12,13
 666 255 666 255 672 286 c 2,14,-1
 698 411 l 2,15,16
 699 416 699 416 699 420 c 0,17,18
 699 443 699 443 665 443 c 2,19,-1
 503 443 l 2,20,21
 224 443 224 443 224 646 c 0,22,23
 224 685 224 685 234 731 c 2,24,-1
 254 822 l 2,25,26
 315 1100 315 1100 583 1100 c 2,27,-1
 751 1100 l 2,28,29
 1018 1100 1018 1100 1018 898 c 0,30,31
 1018 879 1018 879 1016 859 c 1,32,-1
 742 740 l 1,33,-1
 732 740 l 1,34,-1
 750 824 l 2,35,36
 751 827 751 827 751 830 c 0,37,38
 751 850 751 850 716 850 c 2,39,-1
 570 850 l 2,40,41
 530 850 530 850 524 821 c 2,42,-1
 503 724 l 2,43,44
 502 720 502 720 502 717 c 0,45,46
 502 694 502 694 537 694 c 2,47,-1
 675 694 l 2,48,49
 999 694 999 694 999 491 c 0,50,51
 999 459 999 459 991 422 c 2,52,-1
 967 311 l 2,53,54
 900 0 900 0 591 0 c 2,55,-1
 381 0 l 2,0,1
EndSplineSet
Validated: 19457
EndChar

StartChar: circumflex
Encoding: 710 710 220
Width: 643
Flags: W
HStem: 1160 410
VStem: 296 580
LayerCount: 2
Fore
SplineSet
715 1570 m 1,0,-1
 725 1570 l 1,1,-1
 876 1237 l 1,2,-1
 696 1160 l 1,3,-1
 686 1160 l 1,4,-1
 619 1322 l 1,5,-1
 480 1160 l 1,6,-1
 470 1160 l 1,7,-1
 296 1251 l 1,8,-1
 516 1484 l 1,9,-1
 715 1570 l 1,0,-1
EndSplineSet
Validated: 19457
EndChar

StartChar: caron
Encoding: 711 711 221
Width: 643
Flags: W
HStem: 1160 410
VStem: 347 580
LayerCount: 2
Fore
SplineSet
527 1570 m 1,0,-1
 537 1570 l 1,1,-1
 604 1408 l 1,2,-1
 743 1570 l 1,3,-1
 753 1570 l 1,4,-1
 927 1479 l 1,5,-1
 707 1246 l 1,6,-1
 508 1160 l 1,7,-1
 498 1160 l 1,8,-1
 347 1493 l 1,9,-1
 527 1570 l 1,0,-1
EndSplineSet
Validated: 19457
EndChar

StartChar: uni02C9
Encoding: 713 713 222
Width: 680
Flags: W
HStem: 1270 190<426 834>
VStem: 300 660
LayerCount: 2
Fore
SplineSet
426 1460 m 1,0,-1
 960 1460 l 1,1,-1
 958 1450 l 1,2,-1
 834 1270 l 1,3,-1
 300 1270 l 1,4,-1
 302 1280 l 1,5,-1
 426 1460 l 1,0,-1
EndSplineSet
Validated: 19457
EndChar

StartChar: breve
Encoding: 728 728 223
Width: 680
Flags: W
HStem: 1240 200<487.305 822.73>
VStem: 314 622
LayerCount: 2
Fore
SplineSet
446 1535 m 1,0,1
 496 1440 496 1440 646 1440 c 128,-1,2
 796 1440 796 1440 886 1535 c 1,3,-1
 936 1346 l 1,4,-1
 934 1336 l 1,5,6
 807 1240 807 1240 624 1240 c 0,7,8
 426 1240 426 1240 314 1336 c 1,9,-1
 316 1346 l 1,10,-1
 446 1535 l 1,0,1
EndSplineSet
Validated: 19457
EndChar

